<svg id="White_Badges" data-name="White Badges" xmlns="http://www.w3.org/2000/svg" viewBox="0 0 704.36 800"><defs><style>.cls-1{fill:#f8f8f8;}.cls-2{fill:#fff;}.cls-3{fill:#dcdfdd;}.cls-4{fill:#ff3100;}.cls-5{fill:#252530;}</style></defs><polygon class="cls-1" points="667.54 638.25 352.18 800 36.82 638.25 36.82 0 667.54 0 667.54 638.25"/><polygon class="cls-2" points="37.56 0 37.56 638.24 668.28 0 37.56 0"/><path class="cls-3" d="M661.54,6V634.58L352.18,793.26,42.82,634.58V6H661.54m6-6H36.82V638.24L352.18,800,667.54,638.24V0Z"/><polygon class="cls-4" points="424.91 114.11 351.55 156.74 279.45 114.11 279.45 0 424.91 0 424.91 114.11"/><path class="cls-2" d="M387.21,56.45H373.54c.38-2.15,1.7-3.34,4.38-4.71l2.52-1.28c4.5-2.31,6.89-4.91,6.89-9.16A7.44,7.44,0,0,0,384.24,35a12,12,0,0,0-7.35-2.27,11.41,11.41,0,0,0-6.24,1.78,10.48,10.48,0,0,0-4.12,4.5l4,4c1.53-3.1,3.76-4.62,6.69-4.62,2.47,0,4,1.28,4,3.05,0,1.49-.74,2.73-3.59,4.17l-1.61.79c-3.51,1.77-6,3.79-7.35,6.11a16.43,16.43,0,0,0-2.1,8.71v1h20.68Z"/><polygon class="cls-2" points="385.38 68.64 362.75 68.64 351.44 88.23 374.07 88.23 385.38 107.83 396.69 88.23 385.38 68.64"/><path class="cls-2" d="M353.39,101.3a26.13,26.13,0,0,1,0-52.26l8.95-18.72a46.35,46.35,0,0,0-8.95-.87,45.72,45.72,0,1,0,26.93,82.67L370.41,95A26,26,0,0,1,353.39,101.3Z"/><polygon class="cls-4" points="681.96 501.65 22.4 501.65 0 445.65 22.4 389.65 681.96 389.65 704.36 445.65 681.96 501.65"/><path class="cls-5" d="M139.18,567.43c0,.08.06.14.16.19a6.31,6.31,0,0,1,3.42,6.07,6.56,6.56,0,0,1-2.65,5.72,11.8,11.8,0,0,1-7,1.88h-10a.68.68,0,0,1-.5-.19.66.66,0,0,1-.19-.5V555.1a.65.65,0,0,1,.69-.69h9.68q4.68,0,7.08,1.77t2.4,5.72a5.55,5.55,0,0,1-3,5.34C139.24,567.29,139.18,567.35,139.18,567.43Zm-10.33-7.3v4.69a.24.24,0,0,0,.27.27h3.73a3.81,3.81,0,0,0,2.42-.68,2.28,2.28,0,0,0,.84-1.9,2.42,2.42,0,0,0-.84-2,3.75,3.75,0,0,0-2.42-.69h-3.73A.24.24,0,0,0,128.85,560.13Zm6.69,15a2.91,2.91,0,0,0,0-4.07,3.64,3.64,0,0,0-2.4-.71h-4a.24.24,0,0,0-.27.27v4.95a.24.24,0,0,0,.27.27h4A3.63,3.63,0,0,0,135.54,575.09Z"/><path class="cls-5" d="M166,559.67a.68.68,0,0,1-.5.19H153.78a.24.24,0,0,0-.27.27v4.57a.24.24,0,0,0,.27.27h7.41a.72.72,0,0,1,.5.19.68.68,0,0,1,.19.5v4a.65.65,0,0,1-.19.5.69.69,0,0,1-.5.2h-7.41a.24.24,0,0,0-.27.26v4.92a.24.24,0,0,0,.27.27h11.75a.65.65,0,0,1,.69.69v4.07a.66.66,0,0,1-.19.5.68.68,0,0,1-.5.19h-17.7a.65.65,0,0,1-.5-.19.67.67,0,0,1-.2-.5V555.1a.69.69,0,0,1,.2-.5.65.65,0,0,1,.5-.19h17.7a.65.65,0,0,1,.69.69v4.07A.66.66,0,0,1,166,559.67Z"/><path class="cls-5" d="M174.46,580.58a8,8,0,0,1-3.59-2.92,7.67,7.67,0,0,1-1.27-4.39v-.5a.65.65,0,0,1,.69-.69h4.88a.81.81,0,0,1,.49.13.4.4,0,0,1,.2.33V573a2.73,2.73,0,0,0,1.25,2.19,5.1,5.1,0,0,0,3.2,1,3.68,3.68,0,0,0,2.5-.73,2.21,2.21,0,0,0,.8-1.69,1.81,1.81,0,0,0-.94-1.65,16.09,16.09,0,0,0-3.36-1.35l-.84-.27a31.41,31.41,0,0,1-4.3-1.74A9.33,9.33,0,0,1,171,566.1a6.49,6.49,0,0,1-1.31-4.12,7.11,7.11,0,0,1,1.25-4.17,8,8,0,0,1,3.46-2.75,12.44,12.44,0,0,1,5-1,12.68,12.68,0,0,1,5.32,1.08,8.83,8.83,0,0,1,3.7,3,7.76,7.76,0,0,1,1.35,4.5v.3a.7.7,0,0,1-.19.5.68.68,0,0,1-.5.19h-4.88a1.18,1.18,0,0,1-.5-.09.31.31,0,0,1-.19-.29V563a3.11,3.11,0,0,0-1.19-2.38,4.71,4.71,0,0,0-3.19-1,3.9,3.9,0,0,0-2.34.61,2,2,0,0,0-.85,1.73,1.93,1.93,0,0,0,.54,1.4,5.06,5.06,0,0,0,1.67,1c.76.32,1.91.73,3.48,1.25,1.79.61,3.18,1.15,4.18,1.61a8.37,8.37,0,0,1,2.82,2.24,6.06,6.06,0,0,1,1.33,4.09,7.23,7.23,0,0,1-1.27,4.25,8.2,8.2,0,0,1-3.57,2.82,14.65,14.65,0,0,1-10.69,0Z"/><path class="cls-5" d="M213.61,554.6a.72.72,0,0,1,.19.5v4.11a.7.7,0,0,1-.19.5.68.68,0,0,1-.5.19h-6.42a.24.24,0,0,0-.27.27V580.6a.65.65,0,0,1-.69.69h-5a.68.68,0,0,1-.5-.19.66.66,0,0,1-.19-.5V560.17a.24.24,0,0,0-.27-.27H193.6a.65.65,0,0,1-.69-.69V555.1a.68.68,0,0,1,.19-.5.66.66,0,0,1,.5-.19h19.51A.68.68,0,0,1,213.61,554.6Z"/><path class="cls-5" d="M230.37,580.58a8,8,0,0,1-3.59-2.92,7.67,7.67,0,0,1-1.27-4.39v-.5a.65.65,0,0,1,.69-.69h4.88a.87.87,0,0,1,.5.13.41.41,0,0,1,.19.33V573a2.73,2.73,0,0,0,1.25,2.19,5.1,5.1,0,0,0,3.2,1,3.68,3.68,0,0,0,2.5-.73,2.22,2.22,0,0,0,.81-1.69,1.82,1.82,0,0,0-.95-1.65,16.09,16.09,0,0,0-3.36-1.35l-.84-.27a31.41,31.41,0,0,1-4.3-1.74,9.33,9.33,0,0,1-3.15-2.62,6.49,6.49,0,0,1-1.31-4.12,7.11,7.11,0,0,1,1.25-4.17,8,8,0,0,1,3.46-2.75,12.44,12.44,0,0,1,5-1,12.68,12.68,0,0,1,5.32,1.08,8.83,8.83,0,0,1,3.7,3,7.76,7.76,0,0,1,1.35,4.5v.3a.7.7,0,0,1-.19.5.68.68,0,0,1-.5.19h-4.88a1.18,1.18,0,0,1-.5-.09.31.31,0,0,1-.19-.29V563a3.11,3.11,0,0,0-1.19-2.38,4.71,4.71,0,0,0-3.19-1,3.9,3.9,0,0,0-2.34.61,2,2,0,0,0-.85,1.73,1.93,1.93,0,0,0,.54,1.4,5.17,5.17,0,0,0,1.67,1c.76.32,1.91.73,3.48,1.25,1.79.61,3.18,1.15,4.18,1.61a8.5,8.5,0,0,1,2.83,2.24,6.11,6.11,0,0,1,1.32,4.09,7.23,7.23,0,0,1-1.27,4.25,8.2,8.2,0,0,1-3.57,2.82,13.12,13.12,0,0,1-5.3,1A13.29,13.29,0,0,1,230.37,580.58Z"/><path class="cls-5" d="M254.52,580.47a9.09,9.09,0,0,1-3.67-3.52,10.34,10.34,0,0,1-1.3-5.26V564a10.07,10.07,0,0,1,1.3-5.16,9,9,0,0,1,3.67-3.5,12.64,12.64,0,0,1,11,0,9,9,0,0,1,3.69,3.5,10.07,10.07,0,0,1,1.31,5.16v7.68a10.34,10.34,0,0,1-1.31,5.26,9,9,0,0,1-3.69,3.52,12.73,12.73,0,0,1-11,0Zm8.45-5.4a4.46,4.46,0,0,0,1.13-3.19v-8a4.45,4.45,0,0,0-1.13-3.16,3.89,3.89,0,0,0-3-1.21,3.81,3.81,0,0,0-2.93,1.21,4.41,4.41,0,0,0-1.14,3.16v8a4.42,4.42,0,0,0,1.14,3.19,3.87,3.87,0,0,0,2.93,1.19A4,4,0,0,0,263,575.07Z"/><path class="cls-5" d="M293.63,559.67a.66.66,0,0,1-.5.19H281.42a.24.24,0,0,0-.27.27v4.57a.24.24,0,0,0,.27.27h7.41a.7.7,0,0,1,.5.19.68.68,0,0,1,.19.5v4a.65.65,0,0,1-.19.5.67.67,0,0,1-.5.2h-7.41a.24.24,0,0,0-.27.26v10a.66.66,0,0,1-.19.5.68.68,0,0,1-.5.19h-5a.65.65,0,0,1-.69-.69V555.1a.68.68,0,0,1,.19-.5.66.66,0,0,1,.5-.19h17.66a.66.66,0,0,1,.5.19.68.68,0,0,1,.19.5v4.07A.66.66,0,0,1,293.63,559.67Z"/><path class="cls-5" d="M316.83,554.6a.72.72,0,0,1,.19.5v4.11a.7.7,0,0,1-.19.5.68.68,0,0,1-.5.19h-6.42a.24.24,0,0,0-.26.27V580.6a.67.67,0,0,1-.2.5.65.65,0,0,1-.5.19h-5a.68.68,0,0,1-.5-.19.7.7,0,0,1-.19-.5V560.17a.24.24,0,0,0-.27-.27h-6.18a.68.68,0,0,1-.5-.19.66.66,0,0,1-.19-.5V555.1a.65.65,0,0,1,.69-.69h19.51A.68.68,0,0,1,316.83,554.6Z"/><path class="cls-5" d="M326,580.72l-7-25.54a.47.47,0,0,1,0-.23c0-.36.2-.54.61-.54H325a.83.83,0,0,1,.52.17.73.73,0,0,1,.25.45L329,568.58c.05.1.11.15.17.15s.11-.05.14-.15L332.38,555a.7.7,0,0,1,.77-.62h4.57a.74.74,0,0,1,.77.62l3.37,13.55c.06.1.11.15.18.15s.11-.05.13-.15l3-13.55a.68.68,0,0,1,.25-.45.81.81,0,0,1,.52-.17h5.22a.56.56,0,0,1,.61.77l-6.37,25.5a.73.73,0,0,1-.77.61h-5.11a.83.83,0,0,1-.52-.17.7.7,0,0,1-.25-.44l-3.22-14.4c0-.13-.08-.2-.16-.2s-.12.07-.15.2l-2.92,14.4a.67.67,0,0,1-.73.61h-4.76A.72.72,0,0,1,326,580.72Z"/><path class="cls-5" d="M367.79,580.72l-.89-3.15c0-.16-.13-.23-.31-.23h-8.67a.29.29,0,0,0-.31.23l-.88,3.15a.72.72,0,0,1-.77.57h-5.42a.65.65,0,0,1-.54-.21.6.6,0,0,1,0-.56L358,555a.78.78,0,0,1,.81-.58h6.79a.74.74,0,0,1,.81.58l8.1,25.53a.61.61,0,0,1,0,.27c0,.34-.2.5-.61.5h-5.42A.71.71,0,0,1,367.79,580.72Zm-8.61-8.53a.21.21,0,0,0,.23.23h5.69a.22.22,0,0,0,.21-.1.25.25,0,0,0,0-.21l-2.92-10.21c0-.13-.07-.19-.14-.19s-.12.06-.17.19l-2.92,10.21Z"/><path class="cls-5" d="M392.21,580.75l-4.46-10a.29.29,0,0,0-.3-.19h-2.38a.24.24,0,0,0-.27.27v9.75a.67.67,0,0,1-.2.5.64.64,0,0,1-.49.19h-5a.68.68,0,0,1-.5-.19.7.7,0,0,1-.19-.5V555.1a.72.72,0,0,1,.19-.5.68.68,0,0,1,.5-.19h11.18a9.23,9.23,0,0,1,4.45,1,7.34,7.34,0,0,1,3,2.94,8.83,8.83,0,0,1,1,4.35,7.82,7.82,0,0,1-1.24,4.42,7.14,7.14,0,0,1-3.48,2.73.25.25,0,0,0-.15.38l4.91,10.22.08.3c0,.34-.21.5-.61.5H393A.81.81,0,0,1,392.21,580.75Zm-7.41-20.62v5.3a.24.24,0,0,0,.27.27h4.18a3.28,3.28,0,0,0,2.3-.79,2.66,2.66,0,0,0,.89-2.09,2.77,2.77,0,0,0-.89-2.15,3.25,3.25,0,0,0-2.3-.81h-4.18A.24.24,0,0,0,384.8,560.13Z"/><path class="cls-5" d="M421.85,559.67a.66.66,0,0,1-.5.19H409.6a.24.24,0,0,0-.27.27v4.57a.24.24,0,0,0,.27.27H417a.67.67,0,0,1,.7.69v4a.68.68,0,0,1-.7.7H409.6a.24.24,0,0,0-.27.26v4.92a.24.24,0,0,0,.27.27h11.75a.66.66,0,0,1,.5.19.68.68,0,0,1,.19.5v4.07a.65.65,0,0,1-.69.69h-17.7a.68.68,0,0,1-.5-.19.66.66,0,0,1-.19-.5V555.1a.65.65,0,0,1,.69-.69h17.7a.66.66,0,0,1,.5.19.68.68,0,0,1,.19.5v4.07A.66.66,0,0,1,421.85,559.67Z"/><path class="cls-5" d="M451.69,580.72l-.88-3.15c0-.16-.13-.23-.31-.23h-8.68a.3.3,0,0,0-.31.23l-.88,3.15a.72.72,0,0,1-.77.57h-5.41a.62.62,0,0,1-.54-.21.59.59,0,0,1,0-.56L441.94,555a.76.76,0,0,1,.8-.58h6.8a.75.75,0,0,1,.81.58l8.1,25.53a.81.81,0,0,1,0,.27c0,.34-.21.5-.62.5h-5.41A.72.72,0,0,1,451.69,580.72Zm-8.6-8.53a.2.2,0,0,0,.23.23H449a.22.22,0,0,0,.23-.31l-2.92-10.21c0-.13-.07-.19-.13-.19s-.12.06-.17.19l-2.92,10.21Z"/><path class="cls-5" d="M462.67,580.72l-7-25.54a.47.47,0,0,1,0-.23c0-.36.2-.54.61-.54h5.38a.83.83,0,0,1,.52.17.73.73,0,0,1,.25.45l3.22,13.55c.05.1.11.15.17.15s.11-.05.14-.15L469,555a.7.7,0,0,1,.77-.62h4.57a.74.74,0,0,1,.77.62l3.37,13.55c.06.1.11.15.18.15s.11-.05.13-.15l3-13.55a.68.68,0,0,1,.25-.45.81.81,0,0,1,.52-.17h5.22a.56.56,0,0,1,.61.77L482,580.68a.73.73,0,0,1-.77.61h-5.11a.83.83,0,0,1-.52-.17.7.7,0,0,1-.25-.44l-3.22-14.4c0-.13-.08-.2-.16-.2s-.12.07-.15.2l-2.92,14.4a.67.67,0,0,1-.73.61h-4.76A.72.72,0,0,1,462.67,580.72Z"/><path class="cls-5" d="M504.41,580.72l-.88-3.15c0-.16-.13-.23-.31-.23h-8.67a.29.29,0,0,0-.31.23l-.88,3.15a.72.72,0,0,1-.77.57h-5.42a.65.65,0,0,1-.54-.21.6.6,0,0,1,0-.56L494.66,555a.78.78,0,0,1,.81-.58h6.79a.74.74,0,0,1,.81.58l8.1,25.53a.61.61,0,0,1,0,.27c0,.34-.2.5-.61.5h-5.42A.72.72,0,0,1,504.41,580.72Zm-8.6-8.53a.21.21,0,0,0,.23.23h5.69a.22.22,0,0,0,.21-.1.25.25,0,0,0,0-.21L499,561.9c0-.13-.07-.19-.14-.19s-.12.06-.17.19l-2.92,10.21Z"/><path class="cls-5" d="M528.84,580.75l-4.46-10a.29.29,0,0,0-.3-.19H521.7a.24.24,0,0,0-.27.27v9.75a.67.67,0,0,1-.2.5.64.64,0,0,1-.49.19h-5a.68.68,0,0,1-.5-.19.7.7,0,0,1-.19-.5V555.1a.72.72,0,0,1,.19-.5.68.68,0,0,1,.5-.19h11.18a9.23,9.23,0,0,1,4.45,1,7.34,7.34,0,0,1,3,2.94,8.83,8.83,0,0,1,1,4.35,7.82,7.82,0,0,1-1.24,4.42,7.18,7.18,0,0,1-3.48,2.73.25.25,0,0,0-.15.38l4.91,10.22.08.3c0,.34-.21.5-.61.5h-5.27A.81.81,0,0,1,528.84,580.75Zm-7.41-20.62v5.3a.24.24,0,0,0,.27.27h4.18a3.28,3.28,0,0,0,2.3-.79,2.66,2.66,0,0,0,.89-2.09,2.77,2.77,0,0,0-.89-2.15,3.25,3.25,0,0,0-2.3-.81H521.7A.24.24,0,0,0,521.43,560.13Z"/><path class="cls-5" d="M539.78,581.1a.66.66,0,0,1-.19-.5V555.1a.65.65,0,0,1,.69-.69h9.56a12.79,12.79,0,0,1,5.3,1,8.1,8.1,0,0,1,3.57,2.95,7.82,7.82,0,0,1,1.27,4.42v10.06a7.79,7.79,0,0,1-1.27,4.42,8.1,8.1,0,0,1-3.57,3,12.63,12.63,0,0,1-5.3,1h-9.56A.68.68,0,0,1,539.78,581.1Zm6.45-5.26h3.88a3.17,3.17,0,0,0,2.5-1.1,4.44,4.44,0,0,0,1-2.93V563.9a4.26,4.26,0,0,0-1-2.94,3.29,3.29,0,0,0-2.56-1.1h-3.84a.24.24,0,0,0-.27.27v15.44A.24.24,0,0,0,546.23,575.84Z"/><path class="cls-5" d="M568.49,580.58a8,8,0,0,1-3.59-2.92,7.67,7.67,0,0,1-1.27-4.39v-.5a.65.65,0,0,1,.69-.69h4.88a.87.87,0,0,1,.5.13.41.41,0,0,1,.19.33V573a2.73,2.73,0,0,0,1.25,2.19,5.1,5.1,0,0,0,3.2,1,3.68,3.68,0,0,0,2.5-.73,2.21,2.21,0,0,0,.8-1.69,1.81,1.81,0,0,0-.94-1.65,16.09,16.09,0,0,0-3.36-1.35l-.84-.27a31.41,31.41,0,0,1-4.3-1.74,9.33,9.33,0,0,1-3.15-2.62,6.49,6.49,0,0,1-1.31-4.12,7.11,7.11,0,0,1,1.25-4.17,8,8,0,0,1,3.46-2.75,12.44,12.44,0,0,1,5-1,12.68,12.68,0,0,1,5.32,1.08,8.83,8.83,0,0,1,3.7,3,7.76,7.76,0,0,1,1.35,4.5v.3a.7.7,0,0,1-.19.5.68.68,0,0,1-.5.19h-4.88a1.18,1.18,0,0,1-.5-.09.31.31,0,0,1-.19-.29V563a3.11,3.11,0,0,0-1.19-2.38,4.71,4.71,0,0,0-3.19-1,3.9,3.9,0,0,0-2.34.61,2,2,0,0,0-.85,1.73,1.93,1.93,0,0,0,.54,1.4,5.06,5.06,0,0,0,1.67,1c.76.32,1.91.73,3.48,1.25,1.79.61,3.18,1.15,4.18,1.61a8.37,8.37,0,0,1,2.82,2.24,6.06,6.06,0,0,1,1.33,4.09,7.23,7.23,0,0,1-1.27,4.25,8.2,8.2,0,0,1-3.57,2.82,13.15,13.15,0,0,1-5.3,1A13.29,13.29,0,0,1,568.49,580.58Z"/><path class="cls-5" d="M205.82,241.59a2.35,2.35,0,0,1,.67,1.74v14.39a2.3,2.3,0,0,1-2.42,2.41H181.63a.84.84,0,0,0-.95.95v71.5a2.3,2.3,0,0,1-2.41,2.42H160.79a2.34,2.34,0,0,1-1.74-.67,2.37,2.37,0,0,1-.68-1.75v-71.5a.84.84,0,0,0-.94-.95H135.79a2.31,2.31,0,0,1-2.42-2.41V243.33a2.33,2.33,0,0,1,2.42-2.42h68.28A2.37,2.37,0,0,1,205.82,241.59Z"/><path class="cls-5" d="M214.62,329.62a31.68,31.68,0,0,1-11.36-17.47,43.14,43.14,0,0,1-1.61-12.1,48.41,48.41,0,0,1,1.75-13,29.93,29.93,0,0,1,11.49-16.6q8.4-6,20.36-6t20,6a31,31,0,0,1,11.42,16.46,43,43,0,0,1,1.89,12.9,46.71,46.71,0,0,1-1.48,11.83,31.59,31.59,0,0,1-11.29,17.88q-8.48,6.58-20.7,6.58T214.62,329.62Zm27-15.12a13.66,13.66,0,0,0,3.69-6.79,33.91,33.91,0,0,0,.81-7.66,31.84,31.84,0,0,0-.94-7.79,12.63,12.63,0,0,0-3.63-6.45,10.33,10.33,0,0,0-13,0,12.78,12.78,0,0,0-3.56,6.45,26.29,26.29,0,0,0-.94,7.79,34.51,34.51,0,0,0,.8,7.66,14.84,14.84,0,0,0,3.77,6.79,8.85,8.85,0,0,0,6.45,2.49A9.1,9.1,0,0,0,241.64,314.5Z"/><path class="cls-5" d="M345.73,300.59a47.34,47.34,0,0,1-2.82,16.94,29.15,29.15,0,0,1-10,13.5,25.31,25.31,0,0,1-15.53,5.18q-10.22,0-15.32-6.19c-.27-.35-.51-.49-.74-.4s-.33.36-.33.81v26.74a2.4,2.4,0,0,1-.67,1.75,2.37,2.37,0,0,1-1.75.67H281.09a2.3,2.3,0,0,1-2.42-2.42V267.93a2.36,2.36,0,0,1,.67-1.75,2.4,2.4,0,0,1,1.75-.67h17.47a2.3,2.3,0,0,1,2.42,2.42v3.23c0,.45.11.71.33.8s.47,0,.74-.4q5.11-7.12,15.32-7.12a25.63,25.63,0,0,1,16.13,5.77,28.79,28.79,0,0,1,10.08,14.92A49.81,49.81,0,0,1,345.73,300.59Zm-23.92-.4q0-6.85-2.28-11.16a9,9,0,0,0-8.2-5q-5.11,0-7.93,5.11a23.29,23.29,0,0,0-2.29,11q0,7.4,2.42,11.82a8.73,8.73,0,0,0,7.8,4.57,8.89,8.89,0,0,0,8.06-4.7Q321.81,307.44,321.81,300.19Z"/><path class="cls-5" d="M394.12,240.91h18.41a2.31,2.31,0,0,1,2.42,2.42v89.25a2.3,2.3,0,0,1-2.42,2.42H395.06a2.3,2.3,0,0,1-2.42-2.42V262.29a.93.93,0,0,0-.27-.68.6.6,0,0,0-.67-.13l-11.29,1.34H380c-1.44,0-2.15-.76-2.15-2.28V248a2.78,2.78,0,0,1,2-2.69l11.29-3.9A7.42,7.42,0,0,1,394.12,240.91Z"/><path class="cls-5" d="M434.57,327.94q-8.86-8.67-8.87-23.59V271.56q0-14.79,8.87-23.25t24.33-8.47q15.45,0,24.46,8.53t9,23.19v32.79q0,14.92-9,23.59t-24.46,8.67Q443.45,336.61,434.57,327.94ZM467,314.23q3-3.15,3-8.67V270.75q0-5.5-3-8.67a10.73,10.73,0,0,0-8.13-3.15,10.35,10.35,0,0,0-7.93,3.15q-3,3.17-3,8.67v34.81c0,3.68,1,6.57,2.89,8.67a10.29,10.29,0,0,0,8,3.16A10.7,10.7,0,0,0,467,314.23Z"/><path class="cls-5" d="M511.32,327.94q-8.86-8.67-8.87-23.59V271.56q0-14.79,8.87-23.25t24.33-8.47q15.45,0,24.46,8.53t9,23.19v32.79q0,14.92-9,23.59t-24.46,8.67Q520.19,336.61,511.32,327.94Zm32.46-13.71q3-3.15,3-8.67V270.75q0-5.5-3-8.67a10.76,10.76,0,0,0-8.13-3.15,10.35,10.35,0,0,0-7.93,3.15c-2,2.11-3,5-3,8.67v34.81q0,5.52,2.89,8.67a10.29,10.29,0,0,0,8,3.16A10.73,10.73,0,0,0,543.78,314.23Z"/><path class="cls-5" d="M285.3,662.47a.32.32,0,0,0,.31.15h19.48a.89.89,0,0,1,.65.27.87.87,0,0,1,.26.65v9a.87.87,0,0,1-.26.65.89.89,0,0,1-.65.27H269.26a.89.89,0,0,1-.65-.27.87.87,0,0,1-.26-.65v-8.48a1.54,1.54,0,0,1,.45-1.14q4.59-4.27,12.15-12.3l4.58-4.81q7-7.19,7-10.47a4.67,4.67,0,0,0-1.64-3.67,6.2,6.2,0,0,0-4.24-1.45,6.06,6.06,0,0,0-4.2,1.45,4.92,4.92,0,0,0-1.6,3.82v1.84a.89.89,0,0,1-.27.65.92.92,0,0,1-.65.26h-11a.91.91,0,0,1-.65-.26.89.89,0,0,1-.27-.65v-3.82a13.44,13.44,0,0,1,2.83-7.49,16.21,16.21,0,0,1,6.65-4.93,23.69,23.69,0,0,1,9.16-1.71,22,22,0,0,1,9.89,2.1,15.63,15.63,0,0,1,6.5,5.69,14.57,14.57,0,0,1,.72,14.28,31.69,31.69,0,0,1-4.58,6.8q-2.14,2.6-4.81,5.27t-7.41,7.18l-1.53,1.45C285.28,662.27,285.25,662.37,285.3,662.47Z"/><path class="cls-5" d="M316.62,669.46q-5-4.94-5-13.41V637.41q0-8.4,5-13.21t13.83-4.81q8.78,0,13.9,4.85t5.12,13.17v18.64q0,8.48-5.12,13.41t-13.9,4.93Q321.66,674.39,316.62,669.46Zm18.45-7.79a6.82,6.82,0,0,0,1.72-4.93V637a6.8,6.8,0,0,0-1.72-4.92,6.1,6.1,0,0,0-4.62-1.8,5.87,5.87,0,0,0-4.51,1.8,6.91,6.91,0,0,0-1.68,4.92v19.79a7.06,7.06,0,0,0,1.64,4.93,5.88,5.88,0,0,0,4.55,1.79A6.13,6.13,0,0,0,335.07,661.67Z"/><path class="cls-5" d="M372.31,662.47a.31.31,0,0,0,.31.15h19.47a.92.92,0,0,1,.92.92v9a.92.92,0,0,1-.92.92H356.27a.92.92,0,0,1-.92-.92v-8.48a1.51,1.51,0,0,1,.46-1.14q4.59-4.27,12.15-12.3l4.58-4.81q6.94-7.19,6.95-10.47a4.7,4.7,0,0,0-1.64-3.67,6.21,6.21,0,0,0-4.24-1.45,6.06,6.06,0,0,0-4.2,1.45,4.92,4.92,0,0,0-1.61,3.82v1.84a.89.89,0,0,1-.91.91h-11a.9.9,0,0,1-.92-.91v-3.82A13.37,13.37,0,0,1,357.8,626a16.17,16.17,0,0,1,6.64-4.93,23.74,23.74,0,0,1,9.17-1.71,22,22,0,0,1,9.89,2.1,15.54,15.54,0,0,1,6.49,5.69,14.54,14.54,0,0,1,.73,14.28,32.07,32.07,0,0,1-4.58,6.8c-1.43,1.73-3,3.49-4.82,5.27s-4.25,4.18-7.41,7.18l-1.52,1.45A.25.25,0,0,0,372.31,662.47Z"/><path class="cls-5" d="M415.7,662.47a.3.3,0,0,0,.3.15h19.48a.92.92,0,0,1,.92.92v9a.92.92,0,0,1-.92.92H399.66a.92.92,0,0,1-.92-.92v-8.48a1.51,1.51,0,0,1,.46-1.14q4.57-4.27,12.14-12.3l4.59-4.81q6.94-7.19,6.95-10.47a4.7,4.7,0,0,0-1.64-3.67,6.21,6.21,0,0,0-4.24-1.45,6,6,0,0,0-4.2,1.45,4.92,4.92,0,0,0-1.61,3.82v1.84a.89.89,0,0,1-.27.65.91.91,0,0,1-.65.26h-11a.9.9,0,0,1-.91-.91v-3.82a13.36,13.36,0,0,1,2.82-7.49,16.21,16.21,0,0,1,6.65-4.93,23.74,23.74,0,0,1,9.17-1.71,22,22,0,0,1,9.89,2.1,15.54,15.54,0,0,1,6.49,5.69,14.54,14.54,0,0,1,.73,14.28,31.77,31.77,0,0,1-4.59,6.8c-1.42,1.73-3,3.49-4.81,5.27s-4.25,4.18-7.41,7.18l-1.53,1.45A.26.26,0,0,0,415.7,662.47Z"/><path class="cls-2" d="M73.18,430.68H78.1a.69.69,0,0,1,.78.78v30.63a.69.69,0,0,1-.78.79H73.18a.7.7,0,0,1-.79-.79V449.67a.24.24,0,0,0-.27-.27H62.05c-.19,0-.28.09-.28.27v12.42a.69.69,0,0,1-.78.79H56.06a.69.69,0,0,1-.78-.79V431.46a.69.69,0,0,1,.78-.78H61a.69.69,0,0,1,.78.78v12.1c0,.18.09.27.28.27H72.12a.24.24,0,0,0,.27-.27v-12.1A.69.69,0,0,1,73.18,430.68Z"/><path class="cls-2" d="M84.49,435.9a4.08,4.08,0,0,1,0-5.57,4.37,4.37,0,0,1,5.73,0,4.18,4.18,0,0,1,0,5.61,4.37,4.37,0,0,1-5.73,0Zm-.37,26.19V440a.7.7,0,0,1,.79-.78h4.92a.69.69,0,0,1,.78.78v22.08a.69.69,0,0,1-.78.79H84.91A.7.7,0,0,1,84.12,462.09Z"/><path class="cls-2" d="M110.94,439.23h4.92a.69.69,0,0,1,.79.78v20.75q0,6-3.45,8.6a14.43,14.43,0,0,1-8.88,2.58,30.32,30.32,0,0,1-3.45-.23c-.46,0-.69-.31-.69-.83l.18-4.28a.69.69,0,0,1,.26-.57.66.66,0,0,1,.62-.12,22.29,22.29,0,0,0,2.8.23,7,7,0,0,0,4.53-1.29,5,5,0,0,0,1.59-4.14c0-.09,0-.14-.09-.16s-.14,0-.23.12a6.59,6.59,0,0,1-5.06,1.84,10.84,10.84,0,0,1-5.5-1.45,8,8,0,0,1-3.56-4.67,18,18,0,0,1-.69-5.47,17.35,17.35,0,0,1,.82-5.85,9.21,9.21,0,0,1,3.27-4.5,8.69,8.69,0,0,1,5.34-1.71,7,7,0,0,1,5.38,2.07c.09.1.17.13.23.1s.09-.11.09-.23V440A.69.69,0,0,1,110.94,439.23Zm-.78,11.64a20.63,20.63,0,0,0-.09-2.21,7.51,7.51,0,0,0-.32-1.47,4.16,4.16,0,0,0-1.38-2,3.74,3.74,0,0,0-2.39-.76,3.66,3.66,0,0,0-2.35.76,4.39,4.39,0,0,0-1.43,2,11.84,11.84,0,0,0-.09,7.41,4,4,0,0,0,3.91,2.76,3.73,3.73,0,0,0,3.77-2.72A15,15,0,0,0,110.16,450.87Z"/><path class="cls-2" d="M139.56,441.12a8.27,8.27,0,0,1,2.25,6.12v14.85a.69.69,0,0,1-.78.79H136.1a.69.69,0,0,1-.78-.79V448.57a4.38,4.38,0,0,0-1-3,3.42,3.42,0,0,0-2.71-1.15,3.55,3.55,0,0,0-2.76,1.15,4.22,4.22,0,0,0-1.06,3v13.52a.69.69,0,0,1-.78.79h-4.93a.69.69,0,0,1-.78-.79V431.46a.69.69,0,0,1,.78-.78H127a.69.69,0,0,1,.78.78v9.84c0,.12,0,.2.09.23s.12,0,.19-.09a6.44,6.44,0,0,1,5.56-2.58A8.07,8.07,0,0,1,139.56,441.12Z"/><path class="cls-2" d="M162.51,455.65a.79.79,0,0,1,.6-.32.7.7,0,0,1,.5.23l2.62,2.53a.79.79,0,0,1,.28.55.89.89,0,0,1-.18.56,10.61,10.61,0,0,1-3.89,3,12.31,12.31,0,0,1-5.17,1.08,11.09,11.09,0,0,1-7-2.16,10.53,10.53,0,0,1-3.75-5.93,16.14,16.14,0,0,1-.55-4.28,17.61,17.61,0,0,1,.5-4.51,9.83,9.83,0,0,1,3.71-5.47,10.73,10.73,0,0,1,6.6-2.07,9.61,9.61,0,0,1,7.15,2.67,13.26,13.26,0,0,1,3.43,7.49q.18,1.53.27,3.36a.69.69,0,0,1-.78.78H152.71a.25.25,0,0,0-.27.28,6.3,6.3,0,0,0,.32,1.43,3.74,3.74,0,0,0,1.81,2.18,6.61,6.61,0,0,0,3.29.76A6,6,0,0,0,162.51,455.65Zm-8.3-10.51a3.58,3.58,0,0,0-1.36,2c-.16.59-.25,1-.28,1.15s.05.28.23.28h7.82c.16,0,.23-.06.23-.18a3.42,3.42,0,0,0-.18-1.06,4.15,4.15,0,0,0-1.43-2.12,4.62,4.62,0,0,0-5-.07Z"/><path class="cls-2" d="M175.67,462.32a8,8,0,0,1-3.55-2.43,5.62,5.62,0,0,1-1.24-3.55v-.23a.69.69,0,0,1,.78-.78h4.65c.52,0,.78.09.78.28v.32a2,2,0,0,0,1.1,1.72,5.08,5.08,0,0,0,2.81.72,4.74,4.74,0,0,0,2.53-.6,1.78,1.78,0,0,0,1-1.56,1.34,1.34,0,0,0-.83-1.25,14.9,14.9,0,0,0-2.71-.87A27.08,27.08,0,0,1,177.6,453a14.39,14.39,0,0,1-4.74-2.48,5.2,5.2,0,0,1-1.75-4.23,6.41,6.41,0,0,1,2.67-5.41,11.39,11.39,0,0,1,7-2,13.23,13.23,0,0,1,5.18.94,8,8,0,0,1,3.45,2.65,6.46,6.46,0,0,1,1.21,3.86.46.46,0,0,1-.2.39.91.91,0,0,1-.58.16h-4.51q-.78,0-.78-.27v-.28a2,2,0,0,0-1-1.7,4.73,4.73,0,0,0-2.71-.69,5.1,5.1,0,0,0-2.51.55,1.69,1.69,0,0,0-1,1.52,1.49,1.49,0,0,0,.94,1.38,16.15,16.15,0,0,0,3.11,1,20.59,20.59,0,0,1,2.57.69,14.82,14.82,0,0,1,5.2,2.48A5.33,5.33,0,0,1,191,456a6.13,6.13,0,0,1-2.72,5.31,12.39,12.39,0,0,1-7.26,1.91A14.91,14.91,0,0,1,175.67,462.32Z"/><path class="cls-2" d="M207.5,444.43h-4.14a.24.24,0,0,0-.28.28v9.52a3.37,3.37,0,0,0,.62,2.23,2.55,2.55,0,0,0,2,.71H207a.69.69,0,0,1,.78.78v4a.77.77,0,0,1-.78.83c-1.17.06-2,.09-2.53.09a10.16,10.16,0,0,1-5.7-1.29q-1.89-1.29-1.94-4.78V444.71c0-.19-.09-.28-.27-.28H194.2a.69.69,0,0,1-.78-.78V440a.69.69,0,0,1,.78-.78h2.35a.24.24,0,0,0,.27-.27v-5.2a.7.7,0,0,1,.79-.78h4.69a.69.69,0,0,1,.78.78V439c0,.18.09.27.28.27h4.14a.69.69,0,0,1,.78.78v3.64A.69.69,0,0,1,207.5,444.43Z"/><path class="cls-2" d="M226.4,462.05a9.59,9.59,0,0,1-4.18-3.36,8.72,8.72,0,0,1-1.48-5.06v-.78a.69.69,0,0,1,.79-.78h4.83c.52,0,.78.19.78.59v.65a3.77,3.77,0,0,0,1.68,3.1,7.06,7.06,0,0,0,4.39,1.27,5.33,5.33,0,0,0,3.61-1,3.27,3.27,0,0,0,1.17-2.55,2.55,2.55,0,0,0-.73-1.86,6.6,6.6,0,0,0-2-1.34c-.83-.38-2.16-.91-4-1.58a37.23,37.23,0,0,1-5.25-2.17,10.7,10.7,0,0,1-3.58-3,7.43,7.43,0,0,1-1.48-4.71,8.31,8.31,0,0,1,1.43-4.83,9.11,9.11,0,0,1,4-3.18,14.63,14.63,0,0,1,5.82-1.1,15,15,0,0,1,6.25,1.24,10.24,10.24,0,0,1,4.31,3.47,9,9,0,0,1,1.54,5.18v.46a.69.69,0,0,1-.79.78h-4.82c-.53,0-.79-.15-.79-.46v-.46a4.2,4.2,0,0,0-1.58-3.29,6.51,6.51,0,0,0-4.35-1.36,5.53,5.53,0,0,0-3.41.92,3,3,0,0,0-1.19,2.53,2.84,2.84,0,0,0,.69,1.94,6.29,6.29,0,0,0,2.09,1.42q1.41.65,4.35,1.66c2.14.79,3.85,1.49,5.1,2.09a9.8,9.8,0,0,1,3.39,2.74,7.29,7.29,0,0,1,1.49,4.74,8.46,8.46,0,0,1-1.45,4.92,9.24,9.24,0,0,1-4.09,3.26,17.39,17.39,0,0,1-12.54,0Z"/><path class="cls-2" d="M263.16,439.9a8.75,8.75,0,0,1,3.65,2.83,6.57,6.57,0,0,1,1.31,4v15.36a.69.69,0,0,1-.78.79h-4.92a.69.69,0,0,1-.78-.79V461q0-.18-.09-.21c-.07,0-.14,0-.23.12q-2.11,2.34-6.31,2.34a8.81,8.81,0,0,1-5.7-1.74,6.26,6.26,0,0,1-2.16-5.16,6.59,6.59,0,0,1,2.48-5.49q2.49-2,7.09-2h4.64c.19,0,.28-.09.28-.27v-1a3.06,3.06,0,0,0-.94-2.37,4,4,0,0,0-2.74-.85,5,5,0,0,0-2.28.46,2.46,2.46,0,0,0-1.22,1.29.87.87,0,0,1-.92.6l-5.1-.65a1.14,1.14,0,0,1-.58-.21.41.41,0,0,1-.16-.43,6.12,6.12,0,0,1,1.59-3.41,9,9,0,0,1,3.59-2.37,13.88,13.88,0,0,1,4.94-.85A13.15,13.15,0,0,1,263.16,439.9Zm-2.9,17.46a3.28,3.28,0,0,0,1.38-2.72V453c0-.18-.09-.27-.28-.27H258.1a6,6,0,0,0-3.27.78,2.48,2.48,0,0,0-1.2,2.21,2.35,2.35,0,0,0,.9,1.95,3.68,3.68,0,0,0,2.37.71A5.39,5.39,0,0,0,260.26,457.36Z"/><path class="cls-2" d="M284.91,444.43h-4.14c-.18,0-.27.09-.27.28v9.52a3.37,3.37,0,0,0,.62,2.23,2.53,2.53,0,0,0,2,.71h1.29a.69.69,0,0,1,.78.78v4a.77.77,0,0,1-.78.83c-1.17.06-2,.09-2.53.09a10.14,10.14,0,0,1-5.7-1.29q-1.89-1.29-1.94-4.78V444.71c0-.19-.09-.28-.27-.28h-2.35a.69.69,0,0,1-.78-.78V440a.69.69,0,0,1,.78-.78H274a.24.24,0,0,0,.27-.27v-5.2A.69.69,0,0,1,275,433h4.7a.69.69,0,0,1,.78.78V439a.24.24,0,0,0,.27.27h4.14a.69.69,0,0,1,.79.78v3.64A.69.69,0,0,1,284.91,444.43Z"/><path class="cls-2" d="M290.34,435.9a4.08,4.08,0,0,1,0-5.57,4.37,4.37,0,0,1,5.73,0,4.18,4.18,0,0,1,0,5.61,4,4,0,0,1-2.88,1.06A3.92,3.92,0,0,1,290.34,435.9ZM290,462.09V440a.69.69,0,0,1,.79-.78h4.92a.69.69,0,0,1,.78.78v22.08a.69.69,0,0,1-.78.79h-4.92A.7.7,0,0,1,290,462.09Z"/><path class="cls-2" d="M305.61,462.32a8,8,0,0,1-3.54-2.43,5.57,5.57,0,0,1-1.24-3.55v-.23a.69.69,0,0,1,.78-.78h4.65c.52,0,.78.09.78.28v.32a2,2,0,0,0,1.1,1.72,5.05,5.05,0,0,0,2.81.72,4.74,4.74,0,0,0,2.53-.6,1.8,1.8,0,0,0,1-1.56,1.34,1.34,0,0,0-.83-1.25,14.79,14.79,0,0,0-2.72-.87,27.38,27.38,0,0,1-3.35-1.06,14.39,14.39,0,0,1-4.74-2.48,5.2,5.2,0,0,1-1.75-4.23,6.41,6.41,0,0,1,2.67-5.41,11.39,11.39,0,0,1,7-2,13.14,13.14,0,0,1,5.17.94,7.94,7.94,0,0,1,3.46,2.65,6.46,6.46,0,0,1,1.21,3.86.46.46,0,0,1-.2.39.91.91,0,0,1-.58.16h-4.51q-.78,0-.78-.27v-.28a2,2,0,0,0-1-1.7,4.73,4.73,0,0,0-2.71-.69,5.07,5.07,0,0,0-2.51.55,1.69,1.69,0,0,0-1,1.52,1.47,1.47,0,0,0,.94,1.38,16.15,16.15,0,0,0,3.11,1,20.59,20.59,0,0,1,2.57.69,14.91,14.91,0,0,1,5.2,2.48A5.33,5.33,0,0,1,321,456a6.13,6.13,0,0,1-2.72,5.31A12.41,12.41,0,0,1,311,463.2,15,15,0,0,1,305.61,462.32Z"/><path class="cls-2" d="M338.69,440v3.91a.69.69,0,0,1-.78.78h-4.19a.25.25,0,0,0-.28.28v17.15a.69.69,0,0,1-.78.79h-4.92a.69.69,0,0,1-.78-.79V444.94a.24.24,0,0,0-.28-.28h-2.44a.69.69,0,0,1-.78-.78V440a.69.69,0,0,1,.78-.78h2.44a.25.25,0,0,0,.28-.28v-1a9.35,9.35,0,0,1,.87-4.44,4.94,4.94,0,0,1,2.83-2.25,16,16,0,0,1,5.41-.57h1.52a.69.69,0,0,1,.78.78v3.26a.69.69,0,0,1-.78.79H336.3a3.26,3.26,0,0,0-2.23.66,3.2,3.2,0,0,0-.63,2.28v.46a.25.25,0,0,0,.28.28h4.19A.69.69,0,0,1,338.69,440Z"/><path class="cls-2" d="M357,439.9a8.85,8.85,0,0,1,3.66,2.83,6.63,6.63,0,0,1,1.31,4v15.36a.69.69,0,0,1-.78.79h-4.93a.69.69,0,0,1-.78-.79V461q0-.18-.09-.21c-.06,0-.14,0-.23.12q-2.12,2.34-6.3,2.34a8.86,8.86,0,0,1-5.71-1.74,6.26,6.26,0,0,1-2.16-5.16,6.57,6.57,0,0,1,2.49-5.49q2.47-2,7.08-2h4.65a.24.24,0,0,0,.27-.27v-1a3,3,0,0,0-.94-2.37,4,4,0,0,0-2.74-.85,4.88,4.88,0,0,0-2.27.46,2.42,2.42,0,0,0-1.22,1.29.87.87,0,0,1-.92.6l-5.11-.65a1.07,1.07,0,0,1-.57-.21.42.42,0,0,1-.17-.43,6.25,6.25,0,0,1,1.59-3.41,9.1,9.1,0,0,1,3.59-2.37,14,14,0,0,1,4.94-.85A13.08,13.08,0,0,1,357,439.9Zm-2.9,17.46a3.28,3.28,0,0,0,1.38-2.72V453a.24.24,0,0,0-.27-.27h-3.27a6,6,0,0,0-3.27.78,2.49,2.49,0,0,0-1.19,2.21,2.35,2.35,0,0,0,.9,1.95,3.63,3.63,0,0,0,2.36.71A5.39,5.39,0,0,0,354.05,457.36Z"/><path class="cls-2" d="M370.45,461.4a10,10,0,0,1-3.84-5.06,16.9,16.9,0,0,1-.78-5.42,16.34,16.34,0,0,1,.78-5.34,9.52,9.52,0,0,1,3.82-4.92,11.3,11.3,0,0,1,6.39-1.8,11.52,11.52,0,0,1,6.47,1.84,8.89,8.89,0,0,1,3.7,4.65,5.55,5.55,0,0,1,.37,1.43v.09c0,.4-.23.64-.69.73l-4.83.74-.23.05a.6.6,0,0,1-.65-.56l-.14-.64a3.49,3.49,0,0,0-1.42-2,4.43,4.43,0,0,0-2.62-.78,4.06,4.06,0,0,0-2.49.74,3.86,3.86,0,0,0-1.42,2,11.22,11.22,0,0,0-.51,3.77,12.21,12.21,0,0,0,.46,3.77,4.17,4.17,0,0,0,1.45,2.17,4,4,0,0,0,2.51.78,4.27,4.27,0,0,0,2.5-.76,3.93,3.93,0,0,0,1.5-2.05l0-.23a1,1,0,0,1,.33-.44.72.72,0,0,1,.59-.2l4.83.73a.82.82,0,0,1,.53.33.72.72,0,0,1,.12.55,4.4,4.4,0,0,1-.23,1.06,8.61,8.61,0,0,1-3.75,4.83,11.88,11.88,0,0,1-6.42,1.74A11,11,0,0,1,370.45,461.4Z"/><path class="cls-2" d="M403.92,444.43h-4.14a.24.24,0,0,0-.28.28v9.52a3.37,3.37,0,0,0,.62,2.23,2.53,2.53,0,0,0,2,.71h1.29a.69.69,0,0,1,.78.78v4a.77.77,0,0,1-.78.83c-1.17.06-2,.09-2.53.09a10.14,10.14,0,0,1-5.7-1.29q-1.89-1.29-1.94-4.78V444.71c0-.19-.09-.28-.27-.28h-2.35a.69.69,0,0,1-.78-.78V440a.69.69,0,0,1,.78-.78H393a.24.24,0,0,0,.27-.27v-5.2A.69.69,0,0,1,394,433h4.69a.69.69,0,0,1,.78.78V439c0,.18.09.27.28.27h4.14a.69.69,0,0,1,.78.78v3.64A.69.69,0,0,1,403.92,444.43Z"/><path class="cls-2" d="M409.34,435.9a4.08,4.08,0,0,1,0-5.57,4.37,4.37,0,0,1,5.73,0,4.18,4.18,0,0,1,0,5.61,4.37,4.37,0,0,1-5.73,0ZM409,462.09V440a.69.69,0,0,1,.78-.78h4.92a.69.69,0,0,1,.78.78v22.08a.69.69,0,0,1-.78.79h-4.92A.69.69,0,0,1,409,462.09Z"/><path class="cls-2" d="M424.39,461.22a10.16,10.16,0,0,1-3.78-5.52A16.36,16.36,0,0,1,420,451a15.49,15.49,0,0,1,.69-4.88,9.87,9.87,0,0,1,3.79-5.33,11.23,11.23,0,0,1,6.65-1.94,10.75,10.75,0,0,1,6.46,1.94,9.92,9.92,0,0,1,3.75,5.29,15.56,15.56,0,0,1,.69,4.83,18.39,18.39,0,0,1-.59,4.64,10.3,10.3,0,0,1-10.35,7.68A11,11,0,0,1,424.39,461.22Zm9.2-4.46a5.14,5.14,0,0,0,1.51-2.53,11.44,11.44,0,0,0,.37-3.22,12.27,12.27,0,0,0-.37-3.27,4.86,4.86,0,0,0-1.51-2.44,4,4,0,0,0-2.63-.87,3.9,3.9,0,0,0-2.57.87,4.87,4.87,0,0,0-1.52,2.44,12.27,12.27,0,0,0-.37,3.27,12.08,12.08,0,0,0,.37,3.22,5.11,5.11,0,0,0,1.54,2.53,4,4,0,0,0,2.65.92A3.75,3.75,0,0,0,433.59,456.76Z"/><path class="cls-2" d="M464.45,441.12a8.28,8.28,0,0,1,2.26,6.12v14.85a.7.7,0,0,1-.79.79H461a.69.69,0,0,1-.78-.79V448.57a4.38,4.38,0,0,0-1-3,3.44,3.44,0,0,0-2.72-1.15,3.58,3.58,0,0,0-2.76,1.15,4.26,4.26,0,0,0-1.05,3v13.52a.7.7,0,0,1-.79.79H447a.69.69,0,0,1-.78-.79V440a.69.69,0,0,1,.78-.78h4.92a.7.7,0,0,1,.79.78v1.29c0,.12,0,.2.09.23s.12,0,.18-.09a6.46,6.46,0,0,1,5.57-2.58A8,8,0,0,1,464.45,441.12Z"/><path class="cls-2" d="M499.6,431.87a8.74,8.74,0,0,1,3.56,3.52,10.62,10.62,0,0,1,1.27,5.22,9.77,9.77,0,0,1-1.32,5.11,8.92,8.92,0,0,1-3.67,3.42,11.71,11.71,0,0,1-5.46,1.22H487.5a.25.25,0,0,0-.28.28v11.45a.69.69,0,0,1-.78.79h-4.92a.69.69,0,0,1-.78-.79V431.41a.69.69,0,0,1,.78-.78h12.74A11.08,11.08,0,0,1,499.6,431.87ZM496.7,444a4.21,4.21,0,0,0,1.29-3.2,4.34,4.34,0,0,0-1.29-3.27,4.75,4.75,0,0,0-3.41-1.24H487.5a.24.24,0,0,0-.28.28v8.37a.25.25,0,0,0,.28.28h5.79A4.78,4.78,0,0,0,496.7,444Z"/><path class="cls-2" d="M522.23,439.46a.81.81,0,0,1,.41,1l-.87,4.83c0,.27-.12.44-.26.5a1.19,1.19,0,0,1-.66,0,5.7,5.7,0,0,0-1.34-.18,10,10,0,0,0-1.06.09,4.49,4.49,0,0,0-2.8,1.22,3.75,3.75,0,0,0-1.15,2.88v12.32a.69.69,0,0,1-.78.79h-4.93a.69.69,0,0,1-.78-.79V440a.69.69,0,0,1,.78-.78h4.93a.69.69,0,0,1,.78.78v1.43c0,.12,0,.2.09.23s.14,0,.23-.09a5.74,5.74,0,0,1,5-2.67A4.87,4.87,0,0,1,522.23,439.46Z"/><path class="cls-2" d="M528.85,461.22a10.09,10.09,0,0,1-3.77-5.52,16.36,16.36,0,0,1-.64-4.69,15.49,15.49,0,0,1,.69-4.88,9.87,9.87,0,0,1,3.79-5.33,11.23,11.23,0,0,1,6.65-1.94A10.77,10.77,0,0,1,542,440.8a10,10,0,0,1,3.75,5.29,15.56,15.56,0,0,1,.69,4.83,18,18,0,0,1-.6,4.64,10.55,10.55,0,0,1-3.79,5.64,10.68,10.68,0,0,1-6.56,2A11,11,0,0,1,528.85,461.22Zm9.2-4.46a5.15,5.15,0,0,0,1.52-2.53,11.82,11.82,0,0,0,.37-3.22,12.7,12.7,0,0,0-.37-3.27,4.87,4.87,0,0,0-1.52-2.44,4.32,4.32,0,0,0-5.2,0,4.86,4.86,0,0,0-1.51,2.44A12.27,12.27,0,0,0,531,451a12.08,12.08,0,0,0,.37,3.22,5,5,0,0,0,1.54,2.53,4,4,0,0,0,2.64.92A3.74,3.74,0,0,0,538.05,456.76Z"/><path class="cls-2" d="M565.7,430.68h4.92a.69.69,0,0,1,.78.78v30.63a.69.69,0,0,1-.78.79H565.7a.69.69,0,0,1-.78-.79v-1.24q0-.18-.12-.21a.22.22,0,0,0-.21.12,6.18,6.18,0,0,1-5.24,2.48,8.82,8.82,0,0,1-5.54-1.86,9.52,9.52,0,0,1-3.34-4.9,16.74,16.74,0,0,1-.78-5.52,16.19,16.19,0,0,1,.87-5.7,9.59,9.59,0,0,1,3.34-4.69,8.78,8.78,0,0,1,5.45-1.75,6.37,6.37,0,0,1,5.24,2.25q.09.14.21.09c.08,0,.12-.1.12-.23v-9.47A.69.69,0,0,1,565.7,430.68Zm-.83,20.37a9.56,9.56,0,0,0-1-4.73,3.5,3.5,0,0,0-3.08-1.8,3.57,3.57,0,0,0-3.22,1.75,9.39,9.39,0,0,0-1.1,4.83,9.5,9.5,0,0,0,1,4.51,3.61,3.61,0,0,0,3.36,2,3.44,3.44,0,0,0,3.13-2A9.69,9.69,0,0,0,564.87,451.05Z"/><path class="cls-2" d="M590.86,439.23h4.92a.69.69,0,0,1,.78.78v22.08a.69.69,0,0,1-.78.79h-4.92a.69.69,0,0,1-.78-.79v-1.24q0-.18-.12-.21a.21.21,0,0,0-.2.12c-1.2,1.62-3.09,2.44-5.66,2.44a8.07,8.07,0,0,1-5.75-2.12,7.75,7.75,0,0,1-2.26-5.93V440a.69.69,0,0,1,.79-.78h4.87a.69.69,0,0,1,.78.78v13.53a4.44,4.44,0,0,0,1,3,3.44,3.44,0,0,0,2.74,1.15,3.65,3.65,0,0,0,2.58-.95,4.1,4.1,0,0,0,1.24-2.46V440A.69.69,0,0,1,590.86,439.23Z"/><path class="cls-2" d="M605.37,461.4a10,10,0,0,1-3.84-5.06,16.9,16.9,0,0,1-.78-5.42,16.34,16.34,0,0,1,.78-5.34,9.52,9.52,0,0,1,3.82-4.92,11.3,11.3,0,0,1,6.39-1.8,11.52,11.52,0,0,1,6.47,1.84,8.85,8.85,0,0,1,3.7,4.65,5.17,5.17,0,0,1,.37,1.43v.09c0,.4-.23.64-.69.73l-4.83.74-.23.05a.6.6,0,0,1-.65-.56l-.13-.64a3.5,3.5,0,0,0-1.43-2,4.43,4.43,0,0,0-2.62-.78,4.08,4.08,0,0,0-2.49.74,3.86,3.86,0,0,0-1.42,2,11.22,11.22,0,0,0-.51,3.77,12.52,12.52,0,0,0,.46,3.77,4.17,4.17,0,0,0,1.45,2.17,4.06,4.06,0,0,0,2.51.78,4.33,4.33,0,0,0,2.51-.76,3.92,3.92,0,0,0,1.49-2.05l0-.23a1,1,0,0,1,.32-.44.73.73,0,0,1,.6-.2l4.83.73a.87.87,0,0,1,.53.33.77.77,0,0,1,.11.55,4.4,4.4,0,0,1-.23,1.06,8.57,8.57,0,0,1-3.75,4.83,11.83,11.83,0,0,1-6.42,1.74A11,11,0,0,1,605.37,461.4Z"/><path class="cls-2" d="M638.84,444.43H634.7a.24.24,0,0,0-.28.28v9.52a3.37,3.37,0,0,0,.62,2.23,2.55,2.55,0,0,0,2,.71h1.29a.69.69,0,0,1,.78.78v4a.77.77,0,0,1-.78.83c-1.16.06-2,.09-2.53.09a10.16,10.16,0,0,1-5.7-1.29q-1.89-1.29-1.93-4.78V444.71a.25.25,0,0,0-.28-.28h-2.35a.69.69,0,0,1-.78-.78V440a.69.69,0,0,1,.78-.78h2.35a.25.25,0,0,0,.28-.27v-5.2A.69.69,0,0,1,629,433h4.69a.69.69,0,0,1,.78.78V439c0,.18.09.27.28.27h4.14a.69.69,0,0,1,.78.78v3.64A.69.69,0,0,1,638.84,444.43Z"/><path class="cls-2" d="M647.58,462.32a7.93,7.93,0,0,1-3.54-2.43,5.57,5.57,0,0,1-1.25-3.55v-.23a.69.69,0,0,1,.79-.78h4.64c.52,0,.78.09.78.28v.32a2,2,0,0,0,1.11,1.72,5,5,0,0,0,2.8.72,4.71,4.71,0,0,0,2.53-.6,1.78,1.78,0,0,0,1-1.56,1.34,1.34,0,0,0-.83-1.25,14.9,14.9,0,0,0-2.71-.87,27.66,27.66,0,0,1-3.36-1.06,14.6,14.6,0,0,1-4.74-2.48,5.2,5.2,0,0,1-1.75-4.23,6.41,6.41,0,0,1,2.67-5.41,11.39,11.39,0,0,1,7-2,13.23,13.23,0,0,1,5.18.94,7.85,7.85,0,0,1,3.45,2.65,6.47,6.47,0,0,1,1.22,3.86.47.47,0,0,1-.21.39.9.9,0,0,1-.57.16h-4.51q-.78,0-.78-.27v-.28a2,2,0,0,0-1-1.7,4.73,4.73,0,0,0-2.71-.69,5.1,5.1,0,0,0-2.51.55,1.69,1.69,0,0,0-1,1.52,1.48,1.48,0,0,0,.95,1.38,15.76,15.76,0,0,0,3.1,1,21.23,21.23,0,0,1,2.58.69,15,15,0,0,1,5.2,2.48,5.35,5.35,0,0,1,1.88,4.42,6.12,6.12,0,0,1-2.71,5.31A12.42,12.42,0,0,1,653,463.2,14.91,14.91,0,0,1,647.58,462.32Z"/></svg>