<svg width="272" height="336" viewBox="0 0 272 336" fill="none" xmlns="http://www.w3.org/2000/svg">
<path d="M260.076 197.567C260.076 197.4 260.076 197.267 260.076 197.2C260.796 196.069 261.624 195.012 262.549 194.043L262.799 193.892C263.301 194.385 263.729 194.947 264.069 195.563C264.521 196.151 264.881 196.805 265.138 197.501L260.076 197.567ZM256.033 199.505C256.077 199.841 256.239 200.149 256.49 200.376C256.741 200.603 257.065 200.732 257.403 200.741C257.626 200.758 257.849 200.758 258.072 200.741L260.26 200.374C262.241 199.975 264.288 200.038 266.241 200.557C266.591 200.658 266.942 200.791 267.293 200.875C267.559 200.969 267.852 200.957 268.11 200.842C268.368 200.727 268.572 200.518 268.68 200.257C268.872 199.958 268.974 199.61 268.974 199.255C268.974 198.899 268.872 198.551 268.68 198.252L266.675 194.794C266.207 193.992 265.723 193.124 265.272 192.372C265.004 191.921 264.787 191.453 264.52 191.002C264.361 190.73 264.14 190.497 263.877 190.324C263.613 190.15 263.313 190.039 263 190C262.365 190 262.114 190.434 261.78 190.835C260.611 192.272 259.425 193.708 258.272 195.162C257.864 195.668 257.532 196.231 257.286 196.832C257.072 197.556 256.618 198.186 256 198.62C256 198.92 256 199.138 256.033 199.505Z" fill="#0068FF"/>
<path d="M260.01 231.434C260.01 231.267 260.01 231.133 260.01 231.049C260.723 229.939 261.54 228.898 262.449 227.942L262.7 227.792C263.206 228.277 263.629 228.841 263.953 229.462C264.408 230.043 264.769 230.691 265.022 231.384L260.01 231.434ZM256.035 233.338C256.064 233.672 256.217 233.982 256.465 234.208C256.713 234.434 257.036 234.559 257.371 234.557C257.593 234.582 257.817 234.582 258.039 234.557L260.211 234.19C262.17 233.791 264.194 233.854 266.125 234.374C266.475 234.457 266.826 234.591 267.177 234.691C267.441 234.78 267.73 234.766 267.984 234.652C268.238 234.537 268.439 234.33 268.547 234.073C268.736 233.776 268.836 233.431 268.836 233.079C268.836 232.727 268.736 232.382 268.547 232.085L266.559 228.744L265.156 226.355C264.905 225.904 264.688 225.437 264.421 225.002C264.267 224.728 264.051 224.495 263.789 224.32C263.528 224.146 263.229 224.036 262.917 224C262.282 224 262.032 224.434 261.714 224.835C260.562 226.255 259.376 227.675 258.24 229.112C257.838 229.592 257.507 230.126 257.254 230.699C257.055 231.417 256.612 232.043 256.001 232.469C255.996 232.759 256.007 233.049 256.035 233.338Z" fill="#0068FF"/>
<path d="M259.993 265.4C259.993 265.216 259.993 265.083 259.993 265.016C260.694 263.911 261.499 262.876 262.398 261.926L262.649 261.792C263.151 262.28 263.574 262.843 263.902 263.462C264.346 264.038 264.695 264.681 264.937 265.367L259.993 265.4ZM256.05 267.288C256.087 267.617 256.243 267.922 256.49 268.143C256.736 268.365 257.055 268.489 257.387 268.491H258.038L260.193 268.106C262.131 267.724 264.13 267.787 266.04 268.29C266.391 268.39 266.725 268.524 267.076 268.608C267.335 268.701 267.621 268.691 267.873 268.579C268.126 268.467 268.325 268.262 268.429 268.006C268.616 267.712 268.716 267.37 268.716 267.021C268.716 266.672 268.616 266.33 268.429 266.035C267.761 264.916 267.109 263.78 266.441 262.694L265.071 260.339C264.821 259.888 264.603 259.42 264.336 259.002C264.183 258.731 263.969 258.5 263.711 258.326C263.453 258.152 263.158 258.04 262.849 258C262.231 258 261.981 258.434 261.663 258.819C260.511 260.238 259.358 261.642 258.222 263.062C257.821 263.533 257.495 264.063 257.253 264.632C257.037 265.315 256.595 265.904 256 266.302C256.017 266.703 256.017 267.004 256.05 267.288Z" fill="#0068FF"/>
<path d="M260.775 331.983C260.775 331.816 260.775 331.699 260.775 331.632C261.442 330.595 262.202 329.622 263.047 328.725L263.281 328.592C263.77 329.072 264.167 329.638 264.451 330.262C264.875 330.8 265.207 331.404 265.436 332.049L260.775 331.983ZM257.05 333.753C257.083 334.065 257.228 334.354 257.459 334.567C257.689 334.779 257.99 334.9 258.303 334.906C258.509 334.922 258.715 334.922 258.921 334.906C259.589 334.806 260.274 334.689 260.943 334.555C262.77 334.19 264.657 334.253 266.455 334.739C266.789 334.739 267.107 334.956 267.441 335.04C267.687 335.122 267.956 335.108 268.192 334.999C268.428 334.891 268.613 334.696 268.711 334.455C268.89 334.182 268.986 333.863 268.986 333.536C268.986 333.21 268.89 332.89 268.711 332.617L266.84 329.41C266.405 328.675 265.971 327.94 265.553 327.188C265.303 326.771 265.119 326.336 264.852 325.935C264.711 325.678 264.509 325.458 264.265 325.295C264.02 325.133 263.74 325.031 263.448 325C262.864 325 262.63 325.401 262.329 325.768C261.26 327.105 260.157 328.424 259.105 329.761C258.722 330.204 258.411 330.706 258.186 331.248C257.985 331.92 257.568 332.507 257 332.918C257.017 333.219 257.017 333.486 257.05 333.753Z" fill="#0068FF"/>
<path d="M259.622 299.191C259.622 298.917 259.622 298.725 259.622 298.642C260.604 296.986 261.747 295.441 263.032 294.034L263.397 293.815C264.109 294.553 264.706 295.405 265.167 296.338C265.777 297.178 266.276 298.1 266.65 299.081L259.622 299.191ZM254.026 301.934C254.083 302.424 254.307 302.875 254.657 303.203C255.007 303.531 255.458 303.714 255.926 303.717C256.237 303.757 256.552 303.757 256.863 303.717L259.909 303.168C262.652 302.6 265.482 302.693 268.186 303.442C268.681 303.58 269.175 303.799 269.67 303.909C270.04 304.046 270.446 304.028 270.804 303.86C271.162 303.691 271.445 303.385 271.596 303.004C271.86 302.565 272 302.056 272 301.536C272 301.017 271.86 300.508 271.596 300.069L268.811 295.022C268.16 293.842 267.483 292.663 266.859 291.483C266.494 290.825 266.208 290.112 265.818 289.481C265.598 289.08 265.293 288.738 264.927 288.481C264.562 288.225 264.145 288.06 263.709 288C262.824 288 262.46 288.658 262.017 289.234C260.403 291.346 258.737 293.431 257.15 295.57C256.579 296.268 256.114 297.055 255.77 297.902C255.502 299.006 254.876 299.976 254 300.645C254.026 301.276 254.026 301.577 254.026 302.016V301.934Z" fill="#0068FF"/>
<path d="M228.26 163.778C228.26 163.594 228.26 163.46 228.26 163.377C228.995 162.214 229.846 161.128 230.799 160.136L231.05 159.986C231.577 160.512 232.022 161.114 232.369 161.773C232.833 162.384 233.205 163.059 233.472 163.778H228.26ZM224.117 165.766C224.154 166.11 224.315 166.429 224.57 166.663C224.825 166.897 225.157 167.029 225.503 167.035C225.737 167.052 225.972 167.052 226.205 167.035L228.46 166.651C230.496 166.233 232.601 166.296 234.608 166.835C234.976 166.935 235.343 167.085 235.711 167.169C235.984 167.263 236.282 167.251 236.546 167.133C236.81 167.015 237.019 166.801 237.131 166.534C237.327 166.224 237.431 165.865 237.431 165.498C237.431 165.132 237.327 164.773 237.131 164.463L235.042 160.905C234.558 160.069 234.073 159.234 233.606 158.415C233.338 157.948 233.121 157.447 232.821 156.996C232.66 156.714 232.436 156.474 232.166 156.294C231.896 156.115 231.589 156 231.267 155.96C230.599 155.96 230.348 156.411 230.014 156.829C228.795 158.315 227.575 159.785 226.389 161.289C225.967 161.791 225.623 162.354 225.37 162.959C225.124 163.677 224.641 164.29 224 164.697C224 165.148 224 165.465 224.117 165.766Z" fill="#0068FF"/>
<path d="M228.26 131.818C228.26 131.634 228.26 131.501 228.26 131.417C228.995 130.254 229.846 129.168 230.799 128.176L231.05 128.026C231.577 128.552 232.022 129.154 232.369 129.813C232.833 130.424 233.205 131.099 233.472 131.818H228.26ZM224.117 133.806C224.154 134.15 224.315 134.469 224.57 134.703C224.825 134.937 225.157 135.069 225.503 135.075C225.737 135.092 225.972 135.092 226.205 135.075L228.46 134.691C230.496 134.274 232.601 134.337 234.608 134.875C234.976 134.975 235.343 135.125 235.711 135.209C235.984 135.304 236.282 135.291 236.546 135.173C236.81 135.055 237.019 134.841 237.131 134.574C237.327 134.264 237.431 133.905 237.431 133.539C237.431 133.172 237.327 132.813 237.131 132.503L235.042 128.945C234.558 128.109 234.073 127.274 233.606 126.456C233.338 125.988 233.121 125.487 232.821 125.036C232.66 124.754 232.436 124.514 232.166 124.335C231.896 124.155 231.589 124.04 231.267 124C230.599 124 230.348 124.451 230.014 124.869C228.795 126.355 227.575 127.825 226.389 129.329C225.967 129.831 225.623 130.394 225.37 130.999C225.124 131.717 224.641 132.33 224 132.737C224 133.188 224 133.505 224.117 133.806Z" fill="#0068FF"/>
<path d="M228.859 197.033C228.859 196.866 228.859 196.749 228.859 196.682C229.521 195.633 230.288 194.653 231.148 193.759L231.365 193.625C231.849 194.113 232.25 194.677 232.551 195.295C232.969 195.844 233.301 196.452 233.537 197.1L228.859 197.033ZM225.117 198.82C225.157 199.13 225.307 199.416 225.54 199.624C225.773 199.833 226.074 199.951 226.387 199.956C226.592 199.973 226.799 199.973 227.005 199.956L229.026 199.605C230.857 199.234 232.75 199.291 234.556 199.772C234.89 199.873 235.207 199.99 235.541 200.073C235.785 200.157 236.052 200.145 236.288 200.039C236.524 199.934 236.711 199.743 236.811 199.505C236.994 199.231 237.092 198.908 237.092 198.578C237.092 198.248 236.994 197.925 236.811 197.651C236.193 196.582 235.575 195.513 234.94 194.444L233.637 192.205C233.403 191.787 233.202 191.353 232.952 190.935C232.805 190.683 232.602 190.468 232.358 190.306C232.115 190.143 231.838 190.039 231.549 190C230.964 190 230.73 190.418 230.429 190.785C229.343 192.122 228.241 193.441 227.088 194.794C226.711 195.236 226.401 195.732 226.169 196.264C225.99 196.942 225.576 197.534 225 197.935C225.084 198.269 225.084 198.536 225.117 198.82Z" fill="#0068FF"/>
<path d="M227.892 230.267C227.892 230.1 227.892 229.966 227.892 229.899C228.572 228.828 229.355 227.826 230.231 226.909L230.465 226.775C230.958 227.264 231.369 227.828 231.685 228.446C232.108 229.011 232.446 229.636 232.687 230.3L227.892 230.267ZM224.067 232.087C224.1 232.407 224.249 232.702 224.487 232.918C224.724 233.134 225.032 233.254 225.353 233.257C225.564 233.282 225.777 233.282 225.988 233.257L228.076 232.889C229.954 232.524 231.89 232.587 233.739 233.073L234.742 233.374C234.993 233.462 235.268 233.451 235.51 233.342C235.753 233.233 235.944 233.035 236.045 232.789C236.239 232.509 236.343 232.177 236.343 231.837C236.343 231.497 236.239 231.164 236.045 230.885C235.41 229.799 234.775 228.696 234.124 227.544L232.804 225.255C232.553 224.821 232.353 224.37 232.086 223.952C231.937 223.693 231.729 223.471 231.48 223.306C231.231 223.141 230.946 223.036 230.649 223C230.048 223 229.797 223.418 229.496 223.785C228.394 225.155 227.258 226.508 226.155 227.895C225.767 228.353 225.446 228.865 225.203 229.415C225.003 230.092 224.579 230.681 224 231.085C223.998 231.42 224.021 231.755 224.067 232.087Z" fill="#0068FF"/>
<path d="M228.11 263.651C228.11 263.484 228.11 263.35 228.11 263.267C228.839 262.134 229.672 261.071 230.599 260.093L230.849 259.942C231.362 260.461 231.795 261.052 232.136 261.696C232.587 262.291 232.948 262.95 233.205 263.651H228.11ZM224.05 265.605C224.087 265.944 224.247 266.256 224.5 266.484C224.752 266.712 225.08 266.839 225.42 266.841C225.642 266.867 225.866 266.867 226.088 266.841L228.31 266.457C230.308 266.058 232.371 266.121 234.341 266.641L235.41 266.975C235.678 267.064 235.971 267.048 236.228 266.93C236.485 266.813 236.688 266.602 236.796 266.34C236.988 266.038 237.09 265.688 237.09 265.33C237.09 264.972 236.988 264.621 236.796 264.319C236.112 263.166 235.443 261.997 234.758 260.828L233.338 258.406C233.088 257.938 232.871 257.453 232.587 257.019C232.429 256.74 232.207 256.503 231.94 256.326C231.673 256.149 231.368 256.037 231.05 256C230.415 256 230.148 256.434 229.83 256.835C228.644 258.305 227.458 259.742 226.289 261.212C225.873 261.716 225.535 262.279 225.286 262.882C225.075 263.613 224.622 264.249 224 264.687C224.017 265.004 224.017 265.305 224.05 265.605Z" fill="#0068FF"/>
<path d="M228.792 297.066C228.792 296.899 228.792 296.782 228.792 296.715C229.454 295.661 230.221 294.676 231.081 293.775L231.315 293.642C231.794 294.134 232.194 294.698 232.501 295.312C232.919 295.86 233.251 296.469 233.486 297.116L228.792 297.066ZM225.05 298.854C225.086 299.167 225.235 299.456 225.469 299.668C225.702 299.88 226.004 300 226.32 300.006H226.938L228.976 299.655C230.812 299.276 232.712 299.333 234.522 299.823L235.525 300.123C235.769 300.207 236.036 300.195 236.271 300.089C236.507 299.984 236.694 299.793 236.794 299.555C236.971 299.275 237.064 298.951 237.064 298.62C237.064 298.289 236.971 297.964 236.794 297.684L234.923 294.46L233.603 292.222C233.37 291.804 233.169 291.353 232.918 290.952C232.77 290.695 232.565 290.476 232.319 290.311C232.073 290.146 231.792 290.04 231.498 290C230.914 290 230.68 290.418 230.379 290.785C229.277 292.122 228.174 293.458 227.122 294.811C226.737 295.257 226.421 295.758 226.186 296.298C226 296.977 225.58 297.568 225 297.968C225.017 298.302 225.017 298.62 225.05 298.854Z" fill="#0068FF"/>
<path d="M227.959 330.183C227.959 330.016 227.959 329.899 227.959 329.832C228.623 328.769 229.395 327.778 230.265 326.876L230.498 326.725C230.986 327.214 231.392 327.778 231.701 328.396C232.125 328.949 232.462 329.563 232.704 330.216L227.959 330.183ZM224.184 331.987C224.216 332.303 224.363 332.597 224.597 332.812C224.831 333.028 225.136 333.15 225.453 333.157C225.664 333.181 225.877 333.181 226.088 333.157L228.143 332.806C230.004 332.44 231.923 332.503 233.756 332.989C234.09 333.073 234.408 333.207 234.758 333.29C235.007 333.374 235.278 333.36 235.517 333.251C235.755 333.143 235.944 332.948 236.045 332.705C236.235 332.428 236.337 332.099 236.337 331.762C236.337 331.425 236.235 331.096 236.045 330.818L234.057 327.51C233.622 326.742 233.171 326.007 232.737 325.238C232.503 324.821 232.303 324.37 232.035 323.952C231.889 323.694 231.685 323.473 231.438 323.308C231.192 323.142 230.91 323.037 230.615 323C230.014 323 229.78 323.418 229.479 323.802C228.377 325.155 227.258 326.491 226.138 327.861C225.75 328.314 225.429 328.82 225.186 329.365C224.992 330.04 224.574 330.629 224 331.035C224.039 331.356 224.101 331.674 224.184 331.987Z" fill="#0068FF"/>
<path d="M196.709 163.999C196.709 163.832 196.709 163.715 196.709 163.649C197.369 162.623 198.124 161.661 198.964 160.775L199.181 160.642C199.662 161.129 200.057 161.694 200.35 162.312C200.759 162.851 201.086 163.448 201.319 164.083L196.709 163.999ZM193.033 165.67C193.07 165.977 193.218 166.26 193.448 166.466C193.679 166.672 193.977 166.787 194.286 166.789C194.486 166.814 194.688 166.814 194.888 166.789L196.892 166.455C198.691 166.092 200.549 166.15 202.322 166.622L203.291 166.906C203.53 166.99 203.793 166.98 204.026 166.878C204.258 166.775 204.444 166.588 204.544 166.355C204.723 166.082 204.819 165.763 204.819 165.436C204.819 165.109 204.723 164.79 204.544 164.517L202.706 161.36C202.272 160.642 201.854 159.907 201.42 159.172C201.186 158.754 201.002 158.32 200.735 157.919C200.595 157.669 200.398 157.455 200.16 157.295C199.922 157.136 199.649 157.035 199.365 157C198.78 157 198.546 157.401 198.262 157.768C197.193 159.088 196.107 160.391 195.055 161.711C194.686 162.15 194.383 162.639 194.153 163.164C193.967 163.835 193.561 164.423 193 164.835C193.05 165.219 193.05 165.486 193.05 165.753L193.033 165.67Z" fill="#0068FF"/>
<path d="M196.709 63.9994C196.709 63.8323 196.709 63.7154 196.709 63.6486C197.369 62.6228 198.124 61.6609 198.964 60.7753L199.181 60.6417C199.662 61.1289 200.057 61.6936 200.35 62.3122C200.759 62.8513 201.086 63.448 201.319 64.0829L196.709 63.9994ZM193.033 65.6698C193.07 65.977 193.218 66.2602 193.448 66.4663C193.679 66.6724 193.977 66.7872 194.286 66.7891C194.486 66.8139 194.688 66.8139 194.888 66.7891L196.892 66.455C198.691 66.0924 200.549 66.1495 202.322 66.622L203.291 66.906C203.53 66.9901 203.793 66.9799 204.026 66.8775C204.258 66.7752 204.444 66.5883 204.544 66.3547C204.723 66.082 204.819 65.7626 204.819 65.436C204.819 65.1094 204.723 64.79 204.544 64.5172L202.706 61.36C202.272 60.6417 201.854 59.9067 201.42 59.1716C201.186 58.754 201.002 58.3197 200.735 57.9188C200.595 57.6686 200.398 57.455 200.16 57.2954C199.922 57.1357 199.649 57.0345 199.365 57C198.78 57 198.546 57.4009 198.262 57.7684C197.193 59.0881 196.107 60.3911 195.055 61.7108C194.686 62.1498 194.383 62.6392 194.153 63.1641C193.967 63.8348 193.561 64.4234 193 64.8346C193.05 65.2188 193.05 65.4861 193.05 65.7534L193.033 65.6698Z" fill="#0068FF"/>
<path d="M194.226 199.145C194.226 198.855 194.226 198.623 194.226 198.507C195.502 196.543 196.97 194.706 198.609 193.022L199.054 192.761C199.943 193.617 200.701 194.594 201.304 195.663C202.105 196.685 202.744 197.82 203.2 199.029L194.226 199.145ZM187.059 202.511C187.137 203.094 187.424 203.63 187.869 204.024C188.314 204.417 188.888 204.642 189.488 204.658C189.882 204.687 190.278 204.687 190.672 204.658L194.552 204.02C198.064 203.327 201.692 203.437 205.154 204.339C205.776 204.513 206.398 204.745 207.02 204.89C207.492 205.054 208.011 205.034 208.468 204.834C208.925 204.634 209.287 204.27 209.478 203.817C209.819 203.297 210 202.693 210 202.076C210 201.458 209.819 200.854 209.478 200.335L205.924 194.328C205.095 192.935 204.236 191.426 203.437 190.12C202.963 189.337 202.578 188.525 202.104 187.741C201.822 187.267 201.431 186.864 200.964 186.562C200.497 186.26 199.965 186.068 199.409 186C198.284 186 197.839 186.754 197.247 187.451C195.174 189.946 193.071 192.442 191.028 194.966C190.304 195.845 189.716 196.823 189.28 197.868C188.9 199.126 188.096 200.22 187 200.973C187 201.495 187 201.873 187.059 202.511Z" fill="#0068FF"/>
<path d="M197.199 96.4592C197.199 96.3828 197.199 96.3217 197.199 96.2912C197.587 95.7745 198.034 95.2911 198.533 94.848L198.668 94.7792C198.939 95.0044 199.17 95.2616 199.354 95.5428C199.597 95.8119 199.792 96.1105 199.93 96.4286L197.199 96.4592ZM195.018 97.345C195.042 97.4983 195.129 97.6395 195.264 97.7431C195.4 97.8467 195.575 97.9059 195.757 97.9101C195.877 97.9176 195.998 97.9176 196.118 97.9101L197.298 97.7421C198.367 97.5599 199.472 97.5886 200.525 97.8261C200.715 97.8719 200.904 97.933 201.093 97.9711C201.237 98.0142 201.395 98.0089 201.534 97.9563C201.673 97.9038 201.783 97.8079 201.841 97.6886C201.945 97.5519 202 97.3929 202 97.2304C202 97.068 201.945 96.909 201.841 96.7723L200.76 95.1916C200.507 94.825 200.246 94.428 200.002 94.0843C199.858 93.8782 199.741 93.6643 199.597 93.4582C199.511 93.3335 199.392 93.2274 199.25 93.1479C199.108 93.0684 198.946 93.0178 198.777 93C198.434 93 198.299 93.1985 198.119 93.3818C197.488 94.0385 196.848 94.6952 196.226 95.3596C196.006 95.5909 195.827 95.8481 195.694 96.1232C195.578 96.4542 195.334 96.7422 195 96.9403C195 97.0777 195 97.177 195.018 97.345Z" fill="#0068FF"/>
<path d="M196.01 231.434C196.01 231.267 196.01 231.133 196.01 231.049C196.723 229.939 197.54 228.898 198.449 227.942L198.7 227.792C199.206 228.277 199.629 228.841 199.953 229.462C200.408 230.043 200.769 230.691 201.022 231.384L196.01 231.434ZM192.035 233.338C192.064 233.672 192.217 233.982 192.465 234.208C192.713 234.434 193.036 234.559 193.371 234.557C193.593 234.582 193.817 234.582 194.039 234.557L196.211 234.19C198.17 233.791 200.194 233.854 202.125 234.374C202.475 234.457 202.826 234.591 203.177 234.691C203.441 234.78 203.73 234.766 203.984 234.652C204.238 234.537 204.439 234.33 204.547 234.073C204.736 233.776 204.836 233.431 204.836 233.079C204.836 232.727 204.736 232.382 204.547 232.085L202.559 228.744L201.156 226.355C200.905 225.904 200.688 225.437 200.421 225.002C200.267 224.728 200.051 224.495 199.789 224.32C199.528 224.146 199.229 224.036 198.917 224C198.282 224 198.032 224.434 197.714 224.835C196.562 226.255 195.376 227.675 194.24 229.112C193.838 229.592 193.507 230.126 193.254 230.699C193.055 231.417 192.612 232.043 192.001 232.469C191.996 232.759 192.007 233.049 192.035 233.338Z" fill="#0068FF"/>
<path d="M196.01 131.434C196.01 131.267 196.01 131.133 196.01 131.049C196.723 129.939 197.54 128.898 198.449 127.942L198.7 127.792C199.206 128.277 199.629 128.841 199.953 129.462C200.408 130.043 200.769 130.691 201.022 131.384L196.01 131.434ZM192.035 133.338C192.064 133.672 192.217 133.982 192.465 134.208C192.713 134.434 193.036 134.559 193.371 134.557C193.593 134.582 193.817 134.582 194.039 134.557L196.211 134.19C198.17 133.791 200.194 133.854 202.125 134.374C202.475 134.457 202.826 134.591 203.177 134.691C203.441 134.78 203.73 134.766 203.984 134.652C204.238 134.537 204.439 134.33 204.547 134.073C204.736 133.776 204.836 133.431 204.836 133.079C204.836 132.727 204.736 132.382 204.547 132.085L202.559 128.744L201.156 126.355C200.905 125.904 200.688 125.437 200.421 125.002C200.267 124.728 200.051 124.495 199.789 124.32C199.528 124.146 199.229 124.036 198.917 124C198.282 124 198.032 124.434 197.714 124.835C196.562 126.255 195.376 127.675 194.24 129.112C193.838 129.592 193.507 130.126 193.254 130.699C193.055 131.417 192.612 132.043 192.001 132.469C191.996 132.759 192.007 133.049 192.035 133.338Z" fill="#0068FF"/>
<path d="M195.993 265.4C195.993 265.216 195.993 265.083 195.993 265.016C196.694 263.911 197.499 262.876 198.398 261.926L198.649 261.792C199.151 262.28 199.574 262.843 199.902 263.462C200.346 264.038 200.695 264.681 200.937 265.367L195.993 265.4ZM192.05 267.288C192.087 267.617 192.243 267.922 192.49 268.143C192.736 268.365 193.055 268.489 193.387 268.491H194.038L196.193 268.106C198.131 267.724 200.13 267.787 202.04 268.29C202.391 268.39 202.725 268.524 203.076 268.608C203.335 268.701 203.621 268.691 203.873 268.579C204.126 268.467 204.325 268.262 204.429 268.006C204.616 267.712 204.716 267.37 204.716 267.021C204.716 266.672 204.616 266.33 204.429 266.035C203.761 264.916 203.109 263.78 202.441 262.694L201.071 260.339C200.821 259.888 200.603 259.42 200.336 259.002C200.183 258.731 199.969 258.5 199.711 258.326C199.453 258.152 199.158 258.04 198.849 258C198.231 258 197.981 258.434 197.663 258.819C196.511 260.238 195.358 261.642 194.222 263.062C193.821 263.533 193.495 264.063 193.253 264.632C193.037 265.315 192.595 265.904 192 266.302C192.017 266.703 192.017 267.004 192.05 267.288Z" fill="#0068FF"/>
<path d="M196.775 331.983C196.775 331.816 196.775 331.699 196.775 331.632C197.442 330.595 198.202 329.622 199.047 328.725L199.281 328.592C199.77 329.072 200.167 329.638 200.451 330.262C200.875 330.8 201.207 331.404 201.436 332.049L196.775 331.983ZM193.05 333.753C193.083 334.065 193.228 334.354 193.459 334.567C193.689 334.779 193.99 334.9 194.303 334.906C194.509 334.922 194.715 334.922 194.921 334.906C195.589 334.806 196.274 334.689 196.943 334.555C198.77 334.19 200.657 334.253 202.455 334.739C202.789 334.739 203.107 334.956 203.441 335.04C203.687 335.122 203.956 335.108 204.192 334.999C204.428 334.891 204.613 334.696 204.711 334.455C204.89 334.182 204.986 333.863 204.986 333.536C204.986 333.21 204.89 332.89 204.711 332.617L202.84 329.41C202.405 328.675 201.971 327.94 201.553 327.188C201.303 326.771 201.119 326.336 200.852 325.935C200.711 325.678 200.509 325.458 200.265 325.295C200.02 325.133 199.74 325.031 199.448 325C198.864 325 198.63 325.401 198.329 325.768C197.26 327.105 196.157 328.424 195.105 329.761C194.722 330.204 194.411 330.706 194.186 331.248C193.985 331.92 193.568 332.507 193 332.918C193.017 333.219 193.017 333.486 193.05 333.753Z" fill="#0068FF"/>
<path d="M196.608 298.816C196.608 298.649 196.608 298.532 196.608 298.481C197.238 297.472 197.972 296.532 198.797 295.675L199.031 295.541C199.488 295.991 199.871 296.51 200.167 297.078C200.558 297.589 200.879 298.151 201.119 298.749L196.608 298.816ZM193.017 300.486C193.053 300.784 193.197 301.059 193.422 301.259C193.646 301.459 193.936 301.57 194.236 301.572C194.436 301.597 194.638 301.597 194.838 301.572L196.792 301.238C198.553 300.892 200.369 300.949 202.105 301.405C202.422 301.488 202.739 301.622 203.057 301.689C203.294 301.772 203.555 301.761 203.784 301.659C204.014 301.556 204.196 301.37 204.293 301.138C204.462 300.87 204.552 300.56 204.552 300.244C204.552 299.927 204.462 299.617 204.293 299.35L202.505 296.276C202.088 295.558 201.653 294.84 201.253 294.122C201.019 293.721 200.835 293.286 200.584 292.902C200.443 292.658 200.248 292.45 200.013 292.293C199.778 292.137 199.511 292.036 199.231 292C198.663 292 198.429 292.401 198.145 292.752C197.11 294.038 196.04 295.308 195.021 296.611C194.655 297.036 194.356 297.515 194.136 298.03C193.964 298.703 193.562 299.294 193 299.701C193.017 300.085 193.017 300.269 193.017 300.536V300.486Z" fill="#0068FF"/>
<path d="M164.26 163.778C164.26 163.594 164.26 163.46 164.26 163.377C164.995 162.214 165.846 161.128 166.799 160.136L167.05 159.986C167.577 160.512 168.022 161.114 168.369 161.773C168.833 162.384 169.205 163.059 169.472 163.778H164.26ZM160.117 165.766C160.154 166.11 160.315 166.429 160.57 166.663C160.825 166.897 161.157 167.029 161.503 167.035C161.737 167.052 161.972 167.052 162.205 167.035L164.46 166.651C166.496 166.233 168.601 166.296 170.608 166.835C170.976 166.935 171.343 167.085 171.711 167.169C171.984 167.263 172.282 167.251 172.546 167.133C172.81 167.015 173.019 166.801 173.131 166.534C173.327 166.224 173.431 165.865 173.431 165.498C173.431 165.132 173.327 164.773 173.131 164.463L171.042 160.905C170.558 160.069 170.073 159.234 169.606 158.415C169.338 157.948 169.121 157.447 168.821 156.996C168.66 156.714 168.436 156.474 168.166 156.294C167.896 156.115 167.589 156 167.267 155.96C166.599 155.96 166.348 156.411 166.014 156.829C164.795 158.315 163.575 159.785 162.389 161.289C161.967 161.791 161.623 162.354 161.37 162.959C161.124 163.677 160.641 164.29 160 164.697C160 165.148 160 165.465 160.117 165.766Z" fill="#0068FF"/>
<path d="M164.26 97.8179C164.26 97.6341 164.26 97.5005 164.26 97.417C164.995 96.2541 165.846 95.1684 166.799 94.1762L167.05 94.0259C167.577 94.5519 168.022 95.1545 168.369 95.8133C168.833 96.424 169.205 97.0994 169.472 97.8179H164.26ZM160.117 99.8058C160.154 100.15 160.315 100.469 160.57 100.703C160.825 100.937 161.157 101.069 161.503 101.075C161.737 101.092 161.972 101.092 162.205 101.075L164.46 100.691C166.496 100.274 168.601 100.337 170.608 100.875C170.976 100.975 171.343 101.125 171.711 101.209C171.984 101.304 172.282 101.291 172.546 101.173C172.81 101.055 173.019 100.841 173.131 100.574C173.327 100.264 173.431 99.9052 173.431 99.5385C173.431 99.1718 173.327 98.8127 173.131 98.5028L171.042 94.9447C170.558 94.1094 170.073 93.2742 169.606 92.4556C169.338 91.9879 169.121 91.4867 168.821 91.0357C168.66 90.7544 168.436 90.5143 168.166 90.3345C167.896 90.1548 167.589 90.0402 167.267 90C166.599 90 166.348 90.451 166.014 90.8687C164.795 92.3554 163.575 93.8254 162.389 95.3289C161.967 95.8311 161.623 96.3943 161.37 96.9994C161.124 97.7172 160.641 98.3299 160 98.7367C160 99.1877 160 99.5051 160.117 99.8058Z" fill="#0068FF"/>
<path d="M164.859 197.033C164.859 196.866 164.859 196.749 164.859 196.682C165.521 195.633 166.288 194.653 167.148 193.759L167.365 193.625C167.849 194.113 168.25 194.677 168.551 195.295C168.969 195.844 169.301 196.452 169.537 197.1L164.859 197.033ZM161.117 198.82C161.157 199.13 161.307 199.416 161.54 199.624C161.773 199.833 162.074 199.951 162.387 199.956C162.592 199.973 162.799 199.973 163.005 199.956L165.026 199.605C166.857 199.234 168.75 199.291 170.556 199.772C170.89 199.873 171.207 199.99 171.541 200.073C171.785 200.157 172.052 200.145 172.288 200.039C172.524 199.934 172.711 199.743 172.811 199.505C172.994 199.231 173.092 198.908 173.092 198.578C173.092 198.248 172.994 197.925 172.811 197.651C172.193 196.582 171.575 195.513 170.94 194.444L169.637 192.205C169.403 191.787 169.202 191.353 168.952 190.935C168.805 190.683 168.602 190.468 168.358 190.306C168.115 190.143 167.838 190.039 167.549 190C166.964 190 166.73 190.418 166.429 190.785C165.343 192.122 164.241 193.441 163.088 194.794C162.711 195.236 162.401 195.732 162.169 196.264C161.99 196.942 161.576 197.534 161 197.935C161.084 198.269 161.084 198.536 161.117 198.82Z" fill="#0068FF"/>
<path d="M164.859 131.073C164.859 130.906 164.859 130.789 164.859 130.722C165.521 129.673 166.288 128.693 167.148 127.799L167.365 127.665C167.849 128.153 168.25 128.717 168.551 129.336C168.969 129.884 169.301 130.492 169.537 131.14L164.859 131.073ZM161.117 132.86C161.157 133.171 161.307 133.456 161.54 133.665C161.773 133.873 162.074 133.991 162.387 133.996C162.592 134.013 162.799 134.013 163.005 133.996L165.026 133.646C166.857 133.274 168.75 133.332 170.556 133.813C170.89 133.913 171.207 134.03 171.541 134.113C171.785 134.197 172.052 134.185 172.288 134.08C172.524 133.974 172.711 133.783 172.811 133.545C172.994 133.271 173.092 132.948 173.092 132.618C173.092 132.288 172.994 131.966 172.811 131.691C172.193 130.622 171.575 129.553 170.94 128.484L169.637 126.245C169.403 125.828 169.202 125.393 168.952 124.976C168.805 124.723 168.602 124.508 168.358 124.346C168.115 124.184 167.838 124.079 167.549 124.04C166.964 124.04 166.73 124.458 166.429 124.825C165.343 126.162 164.241 127.481 163.088 128.834C162.711 129.276 162.401 129.772 162.169 130.305C161.99 130.982 161.576 131.574 161 131.975C161.084 132.309 161.084 132.576 161.117 132.86Z" fill="#0068FF"/>
<path d="M164.523 229.179C164.523 229.083 164.523 229.006 164.523 228.968C164.963 228.352 165.471 227.776 166.039 227.248L166.19 227.171C166.51 227.452 166.777 227.777 166.981 228.132C167.255 228.457 167.474 228.817 167.63 229.198L164.523 229.179ZM162.043 230.226C162.065 230.41 162.162 230.58 162.315 230.704C162.469 230.828 162.669 230.897 162.877 230.899C163.014 230.913 163.152 230.913 163.289 230.899L164.642 230.687C165.859 230.477 167.114 230.513 168.313 230.793L168.962 230.966C169.125 231.017 169.303 231.01 169.46 230.948C169.618 230.885 169.742 230.771 169.807 230.63C169.933 230.469 170 230.278 170 230.082C170 229.887 169.933 229.695 169.807 229.535C169.395 228.91 168.984 228.276 168.562 227.613L167.706 226.297C167.544 226.047 167.414 225.788 167.241 225.548C167.144 225.398 167.01 225.271 166.848 225.176C166.687 225.081 166.502 225.021 166.31 225C165.92 225 165.757 225.24 165.562 225.452C164.848 226.239 164.111 227.018 163.397 227.815C163.145 228.079 162.937 228.373 162.78 228.689C162.65 229.079 162.375 229.418 162 229.65C161.999 229.843 162.014 230.035 162.043 230.226Z" fill="#0068FF"/>
<path d="M164.11 263.651C164.11 263.484 164.11 263.35 164.11 263.267C164.839 262.134 165.672 261.071 166.599 260.093L166.849 259.942C167.362 260.461 167.795 261.052 168.136 261.696C168.587 262.291 168.948 262.95 169.205 263.651H164.11ZM160.05 265.605C160.087 265.944 160.247 266.256 160.5 266.484C160.752 266.712 161.08 266.839 161.42 266.841C161.642 266.867 161.866 266.867 162.088 266.841L164.31 266.457C166.308 266.058 168.371 266.121 170.341 266.641L171.41 266.975C171.678 267.064 171.971 267.048 172.228 266.93C172.485 266.813 172.688 266.602 172.796 266.34C172.988 266.038 173.09 265.688 173.09 265.33C173.09 264.972 172.988 264.621 172.796 264.319C172.112 263.166 171.443 261.997 170.758 260.828L169.338 258.406C169.088 257.938 168.871 257.453 168.587 257.019C168.429 256.74 168.207 256.503 167.94 256.326C167.673 256.149 167.368 256.037 167.05 256C166.415 256 166.148 256.434 165.83 256.835C164.644 258.305 163.458 259.742 162.289 261.212C161.873 261.716 161.535 262.279 161.286 262.882C161.075 263.613 160.622 264.249 160 264.687C160.017 265.004 160.017 265.305 160.05 265.605Z" fill="#0068FF"/>
<path d="M164.792 297.066C164.792 296.899 164.792 296.782 164.792 296.715C165.454 295.661 166.221 294.676 167.081 293.775L167.315 293.642C167.794 294.134 168.194 294.698 168.501 295.312C168.919 295.86 169.251 296.469 169.486 297.116L164.792 297.066ZM161.05 298.854C161.086 299.167 161.235 299.456 161.469 299.668C161.702 299.88 162.004 300 162.32 300.006H162.938L164.976 299.655C166.812 299.276 168.712 299.333 170.522 299.823L171.525 300.123C171.769 300.207 172.036 300.195 172.271 300.089C172.507 299.984 172.694 299.793 172.794 299.555C172.971 299.275 173.064 298.951 173.064 298.62C173.064 298.289 172.971 297.964 172.794 297.684L170.923 294.46L169.603 292.222C169.37 291.804 169.169 291.353 168.918 290.952C168.77 290.695 168.565 290.476 168.319 290.311C168.073 290.146 167.792 290.04 167.498 290C166.914 290 166.68 290.418 166.379 290.785C165.277 292.122 164.174 293.458 163.122 294.811C162.737 295.257 162.421 295.758 162.186 296.298C162 296.977 161.58 297.568 161 297.968C161.017 298.302 161.017 298.62 161.05 298.854Z" fill="#0068FF"/>
<path d="M163.959 330.183C163.959 330.016 163.959 329.899 163.959 329.832C164.623 328.769 165.395 327.778 166.265 326.876L166.498 326.725C166.986 327.214 167.392 327.778 167.701 328.396C168.125 328.949 168.462 329.563 168.704 330.216L163.959 330.183ZM160.184 331.987C160.216 332.303 160.363 332.597 160.597 332.812C160.831 333.028 161.136 333.15 161.453 333.157C161.664 333.181 161.877 333.181 162.088 333.157L164.143 332.806C166.004 332.44 167.923 332.503 169.756 332.989C170.09 333.073 170.408 333.207 170.758 333.29C171.007 333.374 171.278 333.36 171.517 333.251C171.755 333.143 171.944 332.948 172.045 332.705C172.235 332.428 172.337 332.099 172.337 331.762C172.337 331.425 172.235 331.096 172.045 330.818L170.057 327.51C169.622 326.742 169.171 326.007 168.737 325.238C168.503 324.821 168.303 324.37 168.035 323.952C167.889 323.694 167.685 323.473 167.438 323.308C167.192 323.142 166.91 323.037 166.615 323C166.014 323 165.78 323.418 165.479 323.802C164.377 325.155 163.258 326.491 162.138 327.861C161.75 328.314 161.429 328.82 161.186 329.365C160.992 330.04 160.574 330.629 160 331.035C160.039 331.356 160.101 331.674 160.184 331.987Z" fill="#0068FF"/>
<path d="M132.709 163.999C132.709 163.832 132.709 163.715 132.709 163.649C133.369 162.623 134.124 161.661 134.964 160.775L135.181 160.642C135.662 161.129 136.057 161.694 136.35 162.312C136.759 162.851 137.086 163.448 137.319 164.083L132.709 163.999ZM129.033 165.67C129.07 165.977 129.218 166.26 129.448 166.466C129.679 166.672 129.977 166.787 130.286 166.789C130.486 166.814 130.688 166.814 130.888 166.789L132.892 166.455C134.691 166.092 136.549 166.15 138.322 166.622L139.291 166.906C139.53 166.99 139.793 166.98 140.026 166.878C140.258 166.775 140.444 166.588 140.544 166.355C140.723 166.082 140.819 165.763 140.819 165.436C140.819 165.109 140.723 164.79 140.544 164.517L138.706 161.36C138.272 160.642 137.854 159.907 137.42 159.172C137.186 158.754 137.002 158.32 136.735 157.919C136.595 157.669 136.398 157.455 136.16 157.295C135.922 157.136 135.649 157.035 135.365 157C134.78 157 134.546 157.401 134.262 157.768C133.193 159.088 132.107 160.391 131.055 161.711C130.686 162.15 130.383 162.639 130.153 163.164C129.967 163.835 129.561 164.423 129 164.835C129.05 165.219 129.05 165.486 129.05 165.753L129.033 165.67Z" fill="#0068FF"/>
<path d="M129.414 18.267C129.414 17.831 129.414 17.5258 129.414 17.3514C131.091 14.6744 133.007 12.164 135.138 9.85283L135.689 9.50405C136.91 10.7757 137.913 12.2495 138.658 13.8637C139.695 15.2708 140.524 16.8281 141.117 18.4849L129.414 18.267ZM120.085 22.6266C120.178 23.4283 120.552 24.1674 121.138 24.7053C121.723 25.2431 122.48 25.5426 123.265 25.5476C123.772 25.6123 124.285 25.6123 124.792 25.5476L129.88 24.6757C134.445 23.7293 139.161 23.8785 143.661 25.1116L146.121 25.8528C146.73 26.0721 147.397 26.0456 147.987 25.7785C148.577 25.5114 149.047 25.0237 149.301 24.4141C149.757 23.7022 150 22.8686 150 22.0163C150 21.1639 149.757 20.3303 149.301 19.6185L144.637 11.3787C143.534 9.50405 142.474 7.58581 141.372 5.66757C140.778 4.57765 140.311 3.44414 139.633 2.39782C139.278 1.745 138.778 1.18756 138.174 0.770903C137.569 0.354244 136.878 0.0901168 136.156 0C134.672 0 134.078 1.04631 133.357 2.00544C130.643 5.44957 127.887 8.8501 125.216 12.2942C124.281 13.4399 123.509 14.7171 122.926 16.0871C122.456 17.8376 121.425 19.3737 120 20.4468C120.127 21.4495 120.127 22.147 120.127 22.8446L120.085 22.6266Z" fill="#0068FF"/>
<path d="M132.076 197.567C132.076 197.4 132.076 197.267 132.076 197.2C132.796 196.069 133.624 195.012 134.549 194.043L134.799 193.892C135.301 194.385 135.729 194.947 136.069 195.563C136.521 196.151 136.881 196.805 137.138 197.501L132.076 197.567ZM128.033 199.505C128.077 199.841 128.239 200.149 128.49 200.376C128.741 200.603 129.065 200.732 129.403 200.741C129.626 200.758 129.849 200.758 130.072 200.741L132.26 200.374C134.241 199.975 136.288 200.038 138.241 200.557C138.591 200.658 138.942 200.791 139.293 200.875C139.559 200.969 139.852 200.957 140.11 200.842C140.368 200.727 140.572 200.518 140.68 200.257C140.872 199.958 140.974 199.61 140.974 199.255C140.974 198.899 140.872 198.551 140.68 198.252L138.675 194.794C138.207 193.992 137.723 193.124 137.272 192.372C137.004 191.921 136.787 191.453 136.52 191.002C136.361 190.73 136.14 190.497 135.877 190.324C135.613 190.15 135.313 190.039 135 190C134.365 190 134.114 190.434 133.78 190.835C132.611 192.272 131.425 193.708 130.272 195.162C129.864 195.668 129.532 196.231 129.286 196.832C129.072 197.556 128.618 198.186 128 198.62C128 198.92 128 199.138 128.033 199.505Z" fill="#0068FF"/>
<path d="M132.076 62.5673C132.076 62.4003 132.076 62.2666 132.076 62.1998C132.796 61.0695 133.624 60.0121 134.549 59.0426L134.799 58.8922C135.301 59.3847 135.729 59.9474 136.069 60.5627C136.521 61.1513 136.881 61.8045 137.138 62.5005L132.076 62.5673ZM128.033 64.5051C128.077 64.8405 128.239 65.1494 128.49 65.376C128.741 65.6026 129.065 65.7321 129.403 65.7413C129.626 65.7577 129.849 65.7577 130.072 65.7413L132.26 65.3737C134.241 64.9751 136.288 65.038 138.241 65.5575C138.591 65.6577 138.942 65.7913 139.293 65.8749C139.559 65.9691 139.852 65.9575 140.11 65.8425C140.368 65.7275 140.572 65.5178 140.68 65.2568C140.872 64.9578 140.974 64.6099 140.974 64.2545C140.974 63.8991 140.872 63.5512 140.68 63.2522L138.675 59.7943C138.207 58.9925 137.723 58.1238 137.272 57.3721C137.004 56.9211 136.787 56.4533 136.52 56.0023C136.361 55.7296 136.14 55.4974 135.877 55.3236C135.613 55.1497 135.313 55.039 135 55C134.365 55 134.114 55.4343 133.78 55.8352C132.611 57.2719 131.425 58.7085 130.272 60.1618C129.864 60.6677 129.532 61.2305 129.286 61.8323C129.072 62.5564 128.618 63.1864 128 63.6197C128 63.9204 128 64.1376 128.033 64.5051Z" fill="#0068FF"/>
<path d="M132.01 231.434C132.01 231.267 132.01 231.133 132.01 231.049C132.723 229.939 133.54 228.898 134.449 227.942L134.7 227.792C135.206 228.277 135.629 228.841 135.953 229.462C136.408 230.043 136.769 230.691 137.022 231.384L132.01 231.434ZM128.035 233.338C128.064 233.672 128.217 233.982 128.465 234.208C128.713 234.434 129.036 234.559 129.371 234.557C129.593 234.582 129.817 234.582 130.039 234.557L132.211 234.19C134.17 233.791 136.194 233.854 138.125 234.374C138.475 234.457 138.826 234.591 139.177 234.691C139.441 234.78 139.73 234.766 139.984 234.652C140.238 234.537 140.439 234.33 140.547 234.073C140.736 233.776 140.836 233.431 140.836 233.079C140.836 232.727 140.736 232.382 140.547 232.085L138.559 228.744L137.156 226.355C136.905 225.904 136.688 225.437 136.421 225.002C136.267 224.728 136.051 224.495 135.789 224.32C135.528 224.146 135.229 224.036 134.917 224C134.282 224 134.032 224.434 133.714 224.835C132.562 226.255 131.376 227.675 130.24 229.112C129.838 229.592 129.507 230.126 129.254 230.699C129.055 231.417 128.612 232.043 128.001 232.469C127.996 232.759 128.007 233.049 128.035 233.338Z" fill="#0068FF"/>
<path d="M132.01 96.4337C132.01 96.2666 132.01 96.133 132.01 96.0495C132.723 94.9388 133.54 93.8984 134.449 92.9424L134.7 92.792C135.206 93.2767 135.629 93.841 135.953 94.4625C136.408 95.0427 136.769 95.691 137.022 96.3836L132.01 96.4337ZM128.035 98.338C128.064 98.6718 128.217 98.9824 128.465 99.2083C128.713 99.4341 129.036 99.5588 129.371 99.5575C129.593 99.5823 129.817 99.5823 130.039 99.5575L132.211 99.19C134.17 98.7909 136.194 98.8538 138.125 99.3737C138.475 99.4573 138.826 99.5909 139.177 99.6911C139.441 99.7804 139.73 99.7663 139.984 99.6516C140.238 99.5369 140.439 99.3302 140.547 99.0731C140.736 98.7759 140.836 98.4311 140.836 98.0791C140.836 97.7271 140.736 97.3823 140.547 97.0852L138.559 93.7442L137.156 91.3554C136.905 90.9044 136.688 90.4366 136.421 90.0023C136.267 89.7283 136.051 89.4947 135.789 89.3205C135.528 89.1462 135.229 89.0364 134.917 89C134.282 89 134.032 89.4343 133.714 89.8352C132.562 91.2552 131.376 92.6751 130.24 94.1117C129.838 94.5919 129.507 95.1261 129.254 95.6987C129.055 96.4165 128.612 97.0426 128.001 97.4694C127.996 97.7593 128.007 98.0493 128.035 98.338Z" fill="#0068FF"/>
<path d="M131.993 264.4C131.993 264.216 131.993 264.083 131.993 264.016C132.694 262.911 133.499 261.876 134.398 260.926L134.649 260.792C135.151 261.28 135.574 261.843 135.902 262.462C136.346 263.038 136.695 263.681 136.937 264.367L131.993 264.4ZM128.05 266.288C128.087 266.617 128.243 266.922 128.49 267.143C128.736 267.365 129.055 267.489 129.387 267.491H130.038L132.193 267.106C134.131 266.724 136.13 266.787 138.04 267.29C138.391 267.39 138.725 267.524 139.076 267.608C139.335 267.701 139.621 267.691 139.873 267.579C140.126 267.467 140.325 267.262 140.429 267.006C140.616 266.712 140.716 266.37 140.716 266.021C140.716 265.672 140.616 265.33 140.429 265.035C139.761 263.916 139.109 262.78 138.441 261.694L137.071 259.339C136.821 258.888 136.603 258.42 136.336 258.002C136.183 257.731 135.969 257.5 135.711 257.326C135.453 257.152 135.158 257.04 134.849 257C134.231 257 133.981 257.434 133.663 257.819C132.511 259.238 131.358 260.642 130.222 262.062C129.821 262.533 129.495 263.063 129.253 263.632C129.037 264.315 128.595 264.904 128 265.302C128.017 265.703 128.017 266.004 128.05 266.288Z" fill="#0068FF"/>
<path d="M131.993 130.4C131.993 130.216 131.993 130.083 131.993 130.016C132.694 128.911 133.499 127.876 134.398 126.926L134.649 126.792C135.151 127.28 135.574 127.843 135.902 128.462C136.346 129.038 136.695 129.681 136.937 130.367L131.993 130.4ZM128.05 132.288C128.087 132.617 128.243 132.922 128.49 133.143C128.736 133.365 129.055 133.489 129.387 133.491H130.038L132.193 133.106C134.131 132.724 136.13 132.787 138.04 133.29C138.391 133.39 138.725 133.524 139.076 133.608C139.335 133.701 139.621 133.691 139.873 133.579C140.126 133.467 140.325 133.262 140.429 133.006C140.616 132.712 140.716 132.37 140.716 132.021C140.716 131.672 140.616 131.33 140.429 131.035C139.761 129.916 139.109 128.78 138.441 127.694L137.071 125.339C136.821 124.888 136.603 124.42 136.336 124.002C136.183 123.731 135.969 123.5 135.711 123.326C135.453 123.152 135.158 123.04 134.849 123C134.231 123 133.981 123.434 133.663 123.819C132.511 125.238 131.358 126.642 130.222 128.062C129.821 128.533 129.495 129.063 129.253 129.632C129.037 130.315 128.595 130.904 128 131.302C128.017 131.703 128.017 132.004 128.05 132.288Z" fill="#0068FF"/>
<path d="M132.775 331.983C132.775 331.816 132.775 331.699 132.775 331.632C133.442 330.595 134.202 329.622 135.047 328.725L135.281 328.592C135.77 329.072 136.167 329.638 136.451 330.262C136.875 330.8 137.207 331.404 137.436 332.049L132.775 331.983ZM129.05 333.753C129.083 334.065 129.228 334.354 129.459 334.567C129.689 334.779 129.99 334.9 130.303 334.906C130.509 334.922 130.715 334.922 130.921 334.906C131.589 334.806 132.274 334.689 132.943 334.555C134.77 334.19 136.657 334.253 138.455 334.739C138.789 334.739 139.107 334.956 139.441 335.04C139.687 335.122 139.956 335.108 140.192 334.999C140.428 334.891 140.613 334.696 140.711 334.455C140.89 334.182 140.986 333.863 140.986 333.536C140.986 333.21 140.89 332.89 140.711 332.617L138.84 329.41C138.405 328.675 137.971 327.94 137.553 327.188C137.303 326.771 137.119 326.336 136.852 325.935C136.711 325.678 136.509 325.458 136.265 325.295C136.02 325.133 135.74 325.031 135.448 325C134.864 325 134.63 325.401 134.329 325.768C133.26 327.105 132.157 328.424 131.105 329.761C130.722 330.204 130.411 330.706 130.186 331.248C129.985 331.92 129.568 332.507 129 332.918C129.017 333.219 129.017 333.486 129.05 333.753Z" fill="#0068FF"/>
<path d="M132.608 298.816C132.608 298.649 132.608 298.532 132.608 298.481C133.238 297.472 133.972 296.532 134.797 295.675L135.031 295.541C135.488 295.991 135.871 296.51 136.167 297.078C136.558 297.589 136.879 298.151 137.119 298.749L132.608 298.816ZM129.017 300.486C129.053 300.784 129.197 301.059 129.422 301.259C129.646 301.459 129.936 301.57 130.236 301.572C130.436 301.597 130.638 301.597 130.838 301.572L132.792 301.238C134.553 300.892 136.369 300.949 138.105 301.405C138.422 301.488 138.739 301.622 139.057 301.689C139.294 301.772 139.555 301.761 139.784 301.659C140.014 301.556 140.196 301.37 140.293 301.138C140.462 300.87 140.552 300.56 140.552 300.244C140.552 299.927 140.462 299.617 140.293 299.35L138.505 296.276C138.088 295.558 137.653 294.84 137.253 294.122C137.019 293.721 136.835 293.286 136.584 292.902C136.443 292.658 136.248 292.45 136.013 292.293C135.778 292.137 135.511 292.036 135.231 292C134.663 292 134.429 292.401 134.145 292.752C133.11 294.038 132.04 295.308 131.021 296.611C130.655 297.036 130.356 297.515 130.136 298.03C129.964 298.703 129.562 299.294 129 299.701C129.017 300.085 129.017 300.269 129.017 300.536V300.486Z" fill="#0068FF"/>
<path d="M100.26 163.778C100.26 163.594 100.26 163.46 100.26 163.377C100.995 162.214 101.846 161.128 102.799 160.136L103.05 159.986C103.577 160.512 104.022 161.114 104.369 161.773C104.833 162.384 105.205 163.059 105.472 163.778H100.26ZM96.117 165.766C96.1536 166.11 96.3147 166.429 96.57 166.663C96.8254 166.897 97.1573 167.029 97.5035 167.035C97.7371 167.052 97.9716 167.052 98.2051 167.035L100.46 166.651C102.496 166.233 104.601 166.296 106.608 166.835C106.976 166.935 107.343 167.085 107.711 167.169C107.984 167.263 108.282 167.251 108.546 167.133C108.81 167.015 109.019 166.801 109.131 166.534C109.327 166.224 109.431 165.865 109.431 165.498C109.431 165.132 109.327 164.773 109.131 164.463L107.042 160.905C106.558 160.069 106.073 159.234 105.606 158.415C105.338 157.948 105.121 157.447 104.821 156.996C104.66 156.714 104.436 156.474 104.166 156.294C103.896 156.115 103.589 156 103.267 155.96C102.599 155.96 102.348 156.411 102.014 156.829C100.795 158.315 99.575 159.785 98.3889 161.289C97.9668 161.791 97.6233 162.354 97.3699 162.959C97.1238 163.677 96.6407 164.29 96 164.697C96 165.148 96 165.465 96.117 165.766Z" fill="#0068FF"/>
<path d="M100.26 64.8179C100.26 64.6341 100.26 64.5005 100.26 64.417C100.995 63.2541 101.846 62.1684 102.799 61.1762L103.05 61.0259C103.577 61.5519 104.022 62.1545 104.369 62.8133C104.833 63.424 105.205 64.0994 105.472 64.8179H100.26ZM96.117 66.8058C96.1536 67.1501 96.3147 67.4691 96.57 67.7029C96.8254 67.9367 97.1573 68.0692 97.5035 68.0754C97.7371 68.0918 97.9716 68.0918 98.2051 68.0754L100.46 67.6911C102.496 67.2736 104.601 67.3366 106.608 67.8749C106.976 67.9751 107.343 68.1255 107.711 68.209C107.984 68.3036 108.282 68.2907 108.546 68.1727C108.81 68.0548 109.019 67.8408 109.131 67.5742C109.327 67.2643 109.431 66.9052 109.431 66.5385C109.431 66.1718 109.327 65.8127 109.131 65.5028L107.042 61.9447C106.558 61.1094 106.073 60.2742 105.606 59.4556C105.338 58.9879 105.121 58.4867 104.821 58.0357C104.66 57.7544 104.436 57.5143 104.166 57.3345C103.896 57.1548 103.589 57.0402 103.267 57C102.599 57 102.348 57.451 102.014 57.8687C100.795 59.3554 99.575 60.8254 98.3889 62.3289C97.9668 62.8311 97.6233 63.3943 97.3699 63.9994C97.1238 64.7172 96.6407 65.3299 96 65.7367C96 66.1877 96 66.5051 96.117 66.8058Z" fill="#0068FF"/>
<path d="M100.859 197.033C100.859 196.866 100.859 196.749 100.859 196.682C101.521 195.633 102.288 194.653 103.148 193.759L103.365 193.625C103.849 194.113 104.25 194.677 104.551 195.295C104.969 195.844 105.301 196.452 105.537 197.1L100.859 197.033ZM97.1169 198.82C97.157 199.13 97.3073 199.416 97.5404 199.624C97.7735 199.833 98.0738 199.951 98.3866 199.956C98.5923 199.973 98.799 199.973 99.0047 199.956L101.026 199.605C102.857 199.234 104.75 199.291 106.556 199.772C106.89 199.873 107.207 199.99 107.541 200.073C107.785 200.157 108.052 200.145 108.288 200.039C108.524 199.934 108.711 199.743 108.811 199.505C108.994 199.231 109.092 198.908 109.092 198.578C109.092 198.248 108.994 197.925 108.811 197.651C108.193 196.582 107.575 195.513 106.94 194.444L105.637 192.205C105.403 191.787 105.202 191.353 104.952 190.935C104.805 190.683 104.602 190.468 104.358 190.306C104.115 190.143 103.838 190.039 103.549 190C102.964 190 102.73 190.418 102.429 190.785C101.343 192.122 100.241 193.441 99.0882 194.794C98.7108 195.236 98.4011 195.732 98.1694 196.264C97.99 196.942 97.5756 197.534 97 197.935C97.0835 198.269 97.0835 198.536 97.1169 198.82Z" fill="#0068FF"/>
<path d="M100.859 98.0729C100.859 97.9059 100.859 97.789 100.859 97.7221C101.521 96.6729 102.288 95.6935 103.148 94.7988L103.365 94.6651C103.849 95.1529 104.25 95.7173 104.551 96.3356C104.969 96.8839 105.301 97.4921 105.537 98.1398L100.859 98.0729ZM97.1169 99.8604C97.157 100.171 97.3073 100.456 97.5404 100.665C97.7735 100.873 98.0738 100.991 98.3866 100.996C98.5923 101.013 98.799 101.013 99.0047 100.996L101.026 100.646C102.857 100.274 104.75 100.332 106.556 100.813C106.89 100.913 107.207 101.03 107.541 101.113C107.785 101.197 108.052 101.185 108.288 101.08C108.524 100.974 108.711 100.783 108.811 100.545C108.994 100.271 109.092 99.9482 109.092 99.6181C109.092 99.2881 108.994 98.9655 108.811 98.691C108.193 97.6219 107.575 96.5528 106.94 95.4837L105.637 93.2452C105.403 92.8276 105.202 92.3933 104.952 91.9756C104.805 91.7232 104.602 91.5078 104.358 91.3457C104.115 91.1836 103.838 91.0791 103.549 91.0402C102.964 91.0402 102.73 91.4578 102.429 91.8253C101.343 93.1617 100.241 94.4814 99.0882 95.8345C98.7108 96.2763 98.4011 96.7717 98.1694 97.3045C97.99 97.9824 97.5756 98.5744 97 98.975C97.0835 99.3091 97.0835 99.5764 97.1169 99.8604Z" fill="#0068FF"/>
<path d="M99.8925 230.267C99.8925 230.1 99.8925 229.966 99.8925 229.899C100.572 228.828 101.355 227.826 102.231 226.909L102.465 226.775C102.958 227.264 103.369 227.828 103.685 228.446C104.108 229.011 104.446 229.636 104.687 230.3L99.8925 230.267ZM96.0669 232.087C96.0998 232.407 96.2492 232.702 96.4866 232.918C96.7239 233.134 97.0325 233.254 97.3532 233.257C97.5641 233.282 97.7772 233.282 97.9881 233.257L100.076 232.889C101.954 232.524 103.89 232.587 105.739 233.073L106.742 233.374C106.993 233.462 107.268 233.451 107.51 233.342C107.753 233.233 107.944 233.035 108.045 232.789C108.239 232.509 108.343 232.177 108.343 231.837C108.343 231.497 108.239 231.164 108.045 230.885C107.41 229.799 106.775 228.696 106.124 227.544L104.804 225.255C104.553 224.821 104.353 224.37 104.086 223.952C103.937 223.693 103.729 223.471 103.48 223.306C103.231 223.141 102.946 223.036 102.649 223C102.048 223 101.797 223.418 101.496 223.785C100.394 225.155 99.2577 226.508 98.1551 227.895C97.7666 228.353 97.4459 228.865 97.2029 229.415C97.0034 230.092 96.5792 230.681 96.0001 231.085C95.9985 231.42 96.0208 231.755 96.0669 232.087Z" fill="#0068FF"/>
<path d="M97.9381 132.537C97.9381 132.249 97.9381 132.019 97.9381 131.903C99.1484 130.055 100.545 128.327 102.107 126.744L102.524 126.514C103.402 127.357 104.135 128.33 104.697 129.396C105.452 130.372 106.054 131.45 106.484 132.595L97.9381 132.537ZM91.1193 135.679C91.1779 136.23 91.4442 136.74 91.8673 137.112C92.2903 137.484 92.8403 137.692 93.412 137.697C93.7879 137.739 94.1677 137.739 94.5435 137.697L98.2656 137.062C101.612 136.432 105.063 136.54 108.36 137.38L110.146 137.898C110.593 138.051 111.084 138.031 111.516 137.843C111.948 137.656 112.29 137.314 112.469 136.89C112.815 136.407 113 135.834 113 135.247C113 134.66 112.815 134.086 112.469 133.604C111.337 131.73 110.206 129.828 109.045 127.84L106.692 123.891C106.246 123.142 105.888 122.363 105.412 121.643C105.147 121.195 104.777 120.813 104.333 120.528C103.888 120.243 103.381 120.062 102.851 120C101.779 120 101.333 120.721 100.797 121.355C98.8314 123.718 96.8066 126.053 94.8413 128.445C94.1489 129.236 93.5773 130.119 93.144 131.068C92.7885 132.236 92.0323 133.253 91.0001 133.95C90.9973 134.528 91.0371 135.106 91.1193 135.679Z" fill="#0068FF"/>
<path d="M100.11 263.651C100.11 263.484 100.11 263.35 100.11 263.267C100.839 262.134 101.672 261.071 102.599 260.093L102.849 259.942C103.362 260.461 103.795 261.052 104.136 261.696C104.587 262.291 104.948 262.95 105.205 263.651H100.11ZM96.0501 265.605C96.087 265.944 96.2469 266.256 96.4995 266.484C96.7521 266.712 97.0797 266.839 97.42 266.841C97.642 266.867 97.8662 266.867 98.0882 266.841L100.31 266.457C102.308 266.058 104.371 266.121 106.341 266.641L107.41 266.975C107.678 267.064 107.971 267.048 108.228 266.93C108.485 266.813 108.688 266.602 108.796 266.34C108.988 266.038 109.09 265.688 109.09 265.33C109.09 264.972 108.988 264.621 108.796 264.319C108.112 263.166 107.443 261.997 106.758 260.828L105.338 258.406C105.088 257.938 104.871 257.453 104.587 257.019C104.429 256.74 104.207 256.503 103.94 256.326C103.673 256.149 103.368 256.037 103.05 256C102.415 256 102.148 256.434 101.83 256.835C100.644 258.305 99.4581 259.742 98.2887 261.212C97.8731 261.716 97.5353 262.279 97.2863 262.882C97.0752 263.613 96.6215 264.249 96 264.687C96.0167 265.004 96.0167 265.305 96.0501 265.605Z" fill="#0068FF"/>
<path d="M100.792 297.066C100.792 296.899 100.792 296.782 100.792 296.715C101.454 295.661 102.221 294.676 103.081 293.775L103.315 293.642C103.794 294.134 104.194 294.698 104.501 295.312C104.919 295.86 105.251 296.469 105.486 297.116L100.792 297.066ZM97.0501 298.854C97.0864 299.167 97.2351 299.456 97.4686 299.668C97.7021 299.88 98.0045 300 98.3197 300.006H98.9379L100.976 299.655C102.812 299.276 104.712 299.333 106.522 299.823L107.525 300.123C107.769 300.207 108.036 300.195 108.271 300.089C108.507 299.984 108.694 299.793 108.794 299.555C108.971 299.275 109.064 298.951 109.064 298.62C109.064 298.289 108.971 297.964 108.794 297.684L106.923 294.46L105.603 292.222C105.37 291.804 105.169 291.353 104.918 290.952C104.77 290.695 104.565 290.476 104.319 290.311C104.073 290.146 103.792 290.04 103.498 290C102.914 290 102.68 290.418 102.379 290.785C101.277 292.122 100.174 293.458 99.1216 294.811C98.7367 295.257 98.4213 295.758 98.1861 296.298C97.9998 296.977 97.5797 297.568 97 297.968C97.0167 298.302 97.0167 298.62 97.0501 298.854Z" fill="#0068FF"/>
<path d="M99.9592 330.183C99.9592 330.016 99.9592 329.899 99.9592 329.832C100.623 328.769 101.395 327.778 102.265 326.876L102.498 326.725C102.986 327.214 103.392 327.778 103.701 328.396C104.125 328.949 104.462 329.563 104.704 330.216L99.9592 330.183ZM96.1838 331.987C96.2163 332.303 96.3634 332.597 96.5972 332.812C96.831 333.028 97.1356 333.15 97.4534 333.157C97.6643 333.181 97.8773 333.181 98.0882 333.157L100.143 332.806C102.004 332.44 103.923 332.503 105.756 332.989C106.09 333.073 106.408 333.207 106.758 333.29C107.007 333.374 107.278 333.36 107.517 333.251C107.755 333.143 107.944 332.948 108.045 332.705C108.235 332.428 108.337 332.099 108.337 331.762C108.337 331.425 108.235 331.096 108.045 330.818L106.057 327.51C105.622 326.742 105.171 326.007 104.737 325.238C104.503 324.821 104.303 324.37 104.035 323.952C103.889 323.694 103.685 323.473 103.438 323.308C103.192 323.142 102.91 323.037 102.615 323C102.014 323 101.78 323.418 101.479 323.802C100.377 325.155 99.2576 326.491 98.1383 327.861C97.75 328.314 97.4293 328.82 97.1861 329.365C96.9922 330.04 96.5738 330.629 96 331.035C96.0391 331.356 96.1005 331.674 96.1838 331.987Z" fill="#0068FF"/>
<path d="M68.7086 163.999C68.7086 163.832 68.7086 163.715 68.7086 163.649C69.3695 162.623 70.1245 161.661 70.9639 160.775L71.1811 160.642C71.6619 161.129 72.0572 161.694 72.3505 162.312C72.7591 162.851 73.0856 163.448 73.3194 164.083L68.7086 163.999ZM65.0334 165.67C65.07 165.977 65.2175 166.26 65.4483 166.466C65.679 166.672 65.977 166.787 66.2863 166.789C66.486 166.814 66.688 166.814 66.8877 166.789L68.8924 166.455C70.6909 166.092 72.5489 166.15 74.3217 166.622L75.2907 166.906C75.5305 166.99 75.7933 166.98 76.0259 166.878C76.2585 166.775 76.4435 166.588 76.5436 166.355C76.7232 166.082 76.8189 165.763 76.8189 165.436C76.8189 165.109 76.7232 164.79 76.5436 164.517L74.7059 161.36C74.2716 160.642 73.854 159.907 73.4196 159.172C73.1857 158.754 73.002 158.32 72.7347 157.919C72.5948 157.669 72.3978 157.455 72.1598 157.295C71.9217 157.136 71.6494 157.035 71.3648 157C70.7801 157 70.5462 157.401 70.2623 157.768C69.1931 159.088 68.1072 160.391 67.0548 161.711C66.6864 162.15 66.3826 162.639 66.1527 163.164C65.9675 163.835 65.5613 164.423 65 164.835C65.0501 165.219 65.0501 165.486 65.0501 165.753L65.0334 165.67Z" fill="#0068FF"/>
<path d="M69.1993 196.459C69.1993 196.383 69.1993 196.322 69.1993 196.291C69.5875 195.774 70.0343 195.291 70.5333 194.848L70.6685 194.779C70.9392 195.004 71.17 195.262 71.3535 195.543C71.5972 195.812 71.7917 196.111 71.9304 196.429L69.1993 196.459ZM67.018 197.345C67.0416 197.498 67.129 197.64 67.2645 197.743C67.4 197.847 67.5747 197.906 67.7571 197.91C67.8771 197.918 67.9977 197.918 68.1177 197.91L69.2984 197.742C70.3674 197.56 71.4715 197.589 72.5253 197.826C72.7146 197.872 72.9038 197.933 73.0931 197.971C73.2368 198.014 73.3945 198.009 73.5337 197.956C73.6729 197.904 73.783 197.808 73.8412 197.689C73.9449 197.552 74 197.393 74 197.23C74 197.068 73.9449 196.909 73.8412 196.772L72.7596 195.192C72.5072 194.825 72.2458 194.428 72.0025 194.084C71.8583 193.878 71.7411 193.664 71.5969 193.458C71.5109 193.334 71.3922 193.227 71.2499 193.148C71.1077 193.068 70.9457 193.018 70.7767 193C70.4341 193 70.2989 193.199 70.1187 193.382C69.4877 194.039 68.8478 194.695 68.2258 195.36C68.0057 195.591 67.8265 195.848 67.694 196.123C67.5783 196.454 67.3337 196.742 67 196.94C67 197.078 67 197.177 67.018 197.345Z" fill="#0068FF"/>
<path d="M68.0104 231.434C68.0104 231.267 68.0104 231.133 68.0104 231.049C68.7231 229.939 69.5398 228.898 70.4494 227.942L70.7 227.792C71.2061 228.277 71.6293 228.841 71.9529 229.462C72.4081 230.043 72.7689 230.691 73.0221 231.384L68.0104 231.434ZM64.0345 233.338C64.0638 233.672 64.2175 233.982 64.465 234.208C64.7125 234.434 65.0359 234.559 65.371 234.557C65.593 234.582 65.8171 234.582 66.0392 234.557L68.2109 234.19C70.1697 233.791 72.1945 233.854 74.1247 234.374C74.4755 234.457 74.8263 234.591 75.1771 234.691C75.4413 234.78 75.7295 234.766 75.9837 234.652C76.2379 234.537 76.4391 234.33 76.547 234.073C76.7357 233.776 76.8359 233.431 76.8359 233.079C76.8359 232.727 76.7357 232.382 76.547 232.085L74.559 228.744L73.1557 226.355C72.9052 225.904 72.688 225.437 72.4207 225.002C72.2671 224.728 72.0508 224.495 71.7894 224.32C71.5281 224.146 71.2292 224.036 70.9172 224C70.2824 224 70.0318 224.434 69.7144 224.835C68.5617 226.255 67.3756 227.675 66.2396 229.112C65.8384 229.592 65.5066 230.126 65.254 230.699C65.0547 231.417 64.6117 232.043 64.0011 232.469C63.9963 232.759 64.0074 233.049 64.0345 233.338Z" fill="#0068FF"/>
<path d="M66.5939 266.483C66.5939 266.173 66.5939 265.947 66.5939 265.835C67.7518 263.971 69.0822 262.225 70.5667 260.622L70.9806 260.396C71.8107 261.219 72.5089 262.17 73.0498 263.214C73.783 264.185 74.3603 265.27 74.7603 266.426L66.5939 266.483ZM60.0828 269.667C60.1436 270.222 60.4019 270.736 60.8087 271.11C61.2156 271.484 61.7426 271.692 62.2899 271.695H63.3659L66.925 271.047C70.1252 270.403 73.427 270.509 76.5813 271.357C77.1606 271.526 77.7124 271.752 78.2918 271.893C78.7205 272.051 79.1924 272.034 79.609 271.845C80.0255 271.656 80.3542 271.309 80.5265 270.878C80.8358 270.381 81 269.805 81 269.216C81 268.627 80.8358 268.05 80.5265 267.553C79.4229 265.665 78.347 263.749 77.2434 261.918L74.9811 257.945C74.5672 257.184 74.2086 256.395 73.7671 255.691C73.5144 255.233 73.161 254.843 72.7348 254.549C72.3086 254.256 71.8214 254.068 71.3117 254C70.2909 254 69.877 254.733 69.3528 255.381C67.4491 257.776 65.5455 260.143 63.6694 262.538C63.0082 263.333 62.4687 264.226 62.0692 265.186C61.7124 266.338 60.9827 267.332 60 268.004C60.0276 268.68 60.0276 269.188 60.0828 269.667Z" fill="#0068FF"/>
<path d="M68.7755 331.983C68.7755 331.816 68.7755 331.699 68.7755 331.632C69.4418 330.595 70.2024 329.622 71.0474 328.725L71.2813 328.592C71.7704 329.072 72.1668 329.638 72.4507 330.262C72.8745 330.8 73.2074 331.404 73.4363 332.049L68.7755 331.983ZM65.0501 333.753C65.0826 334.065 65.2279 334.354 65.4586 334.567C65.6893 334.779 65.9896 334.9 66.303 334.906C66.5087 334.922 66.7154 334.922 66.9211 334.906C67.5894 334.806 68.2743 334.689 68.9425 334.555C70.7696 334.19 72.6566 334.253 74.4554 334.739C74.7895 334.739 75.1069 334.956 75.441 335.04C75.6873 335.122 75.9559 335.108 76.1919 334.999C76.4279 334.891 76.6134 334.696 76.7106 334.455C76.8903 334.182 76.986 333.863 76.986 333.536C76.986 333.21 76.8903 332.89 76.7106 332.617L74.8396 329.41C74.4053 328.675 73.9709 327.94 73.5533 327.188C73.3027 326.771 73.1189 326.336 72.8516 325.935C72.7105 325.678 72.5092 325.458 72.2648 325.295C72.0205 325.133 71.7403 325.031 71.4483 325C70.8636 325 70.6298 325.401 70.3291 325.768C69.2599 327.105 68.1574 328.424 67.1049 329.761C66.7215 330.204 66.4113 330.706 66.1861 331.248C65.9851 331.92 65.5683 332.507 65 332.918C65.0167 333.219 65.0167 333.486 65.0501 333.753Z" fill="#0068FF"/>
<path d="M68.7755 130.983C68.7755 130.816 68.7755 130.699 68.7755 130.632C69.4418 129.595 70.2024 128.622 71.0474 127.725L71.2813 127.592C71.7704 128.072 72.1668 128.638 72.4507 129.262C72.8745 129.8 73.2074 130.404 73.4363 131.049L68.7755 130.983ZM65.0501 132.753C65.0826 133.065 65.2279 133.354 65.4586 133.567C65.6893 133.779 65.9896 133.9 66.303 133.906C66.5087 133.922 66.7154 133.922 66.9211 133.906C67.5894 133.806 68.2743 133.689 68.9425 133.555C70.7696 133.19 72.6566 133.253 74.4554 133.739C74.7895 133.739 75.1069 133.956 75.441 134.04C75.6873 134.122 75.9559 134.108 76.1919 133.999C76.4279 133.891 76.6134 133.696 76.7106 133.455C76.8903 133.182 76.986 132.863 76.986 132.536C76.986 132.21 76.8903 131.89 76.7106 131.617L74.8396 128.41C74.4053 127.675 73.9709 126.94 73.5533 126.188C73.3027 125.771 73.1189 125.336 72.8516 124.935C72.7105 124.678 72.5092 124.458 72.2648 124.295C72.0205 124.133 71.7403 124.031 71.4483 124C70.8636 124 70.6298 124.401 70.3291 124.768C69.2599 126.105 68.1574 127.424 67.1049 128.761C66.7215 129.204 66.4113 129.706 66.1861 130.248C65.9851 130.92 65.5683 131.507 65 131.918C65.0167 132.219 65.0167 132.486 65.0501 132.753Z" fill="#0068FF"/>
<path d="M68.6084 298.816C68.6084 298.649 68.6084 298.532 68.6084 298.481C69.2382 297.472 69.9717 296.532 70.7968 295.675L71.0307 295.541C71.4876 295.991 71.8709 296.51 72.1667 297.078C72.5582 297.589 72.8785 298.151 73.1189 298.749L68.6084 298.816ZM65.0167 300.486C65.0532 300.784 65.1972 301.059 65.4217 301.259C65.6461 301.459 65.9357 301.57 66.2362 301.572C66.4359 301.597 66.6379 301.597 66.8376 301.572L68.7921 301.238C70.5528 300.892 72.3691 300.949 74.1045 301.405C74.4219 301.488 74.7393 301.622 75.0567 301.689C75.2942 301.772 75.5546 301.761 75.7845 301.659C76.0143 301.556 76.1962 301.37 76.293 301.138C76.4623 300.87 76.5522 300.56 76.5522 300.244C76.5522 299.927 76.4623 299.617 76.293 299.35L74.5055 296.276C74.0878 295.558 73.6535 294.84 73.2525 294.122C73.0187 293.721 72.8349 293.286 72.5843 292.902C72.4431 292.658 72.2476 292.45 72.013 292.293C71.7783 292.137 71.5108 292.036 71.2312 292C70.6632 292 70.4293 292.401 70.1453 292.752C69.1096 294.038 68.0404 295.308 67.0214 296.611C66.6551 297.036 66.3564 297.515 66.136 298.03C65.9639 298.703 65.562 299.294 65 299.701C65.0167 300.085 65.0167 300.269 65.0167 300.536V300.486Z" fill="#0068FF"/>
<path d="M68.6084 97.8156C68.6084 97.6486 68.6084 97.5316 68.6084 97.4815C69.2382 96.4724 69.9717 95.5318 70.7968 94.6751L71.0307 94.5414C71.4876 94.991 71.8709 95.5096 72.1667 96.0783C72.5582 96.5895 72.8785 97.1514 73.1189 97.7488L68.6084 97.8156ZM65.0167 99.4861C65.0532 99.7844 65.1972 100.059 65.4217 100.259C65.6461 100.459 65.9357 100.57 66.2362 100.572C66.4359 100.597 66.6379 100.597 66.8376 100.572L68.7921 100.238C70.5528 99.8915 72.3691 99.9486 74.1045 100.405C74.4219 100.488 74.7393 100.622 75.0567 100.689C75.2942 100.772 75.5546 100.761 75.7845 100.659C76.0143 100.556 76.1962 100.37 76.293 100.138C76.4623 99.8702 76.5522 99.5603 76.5522 99.2439C76.5522 98.9274 76.4623 98.6175 76.293 98.3502L74.5055 95.2765C74.0878 94.5581 73.6535 93.8398 73.2525 93.1215C73.0187 92.7206 72.8349 92.2863 72.5843 91.9021C72.4431 91.6579 72.2476 91.4496 72.013 91.2932C71.7783 91.1368 71.5108 91.0365 71.2312 91C70.6632 91 70.4293 91.4009 70.1453 91.7517C69.1096 93.038 68.0404 94.3076 67.0214 95.6105C66.6551 96.0356 66.3564 96.5145 66.136 97.0305C65.9639 97.7028 65.562 98.2938 65 98.701C65.0167 99.0852 65.0167 99.2689 65.0167 99.5362V99.4861Z" fill="#0068FF"/>
<path d="M36.2599 163.778C36.2599 163.594 36.2599 163.46 36.2599 163.377C36.9952 162.214 37.846 161.128 38.7992 160.136L39.0498 159.986C39.5771 160.512 40.022 161.114 40.3695 161.773C40.8331 162.384 41.2046 163.059 41.4721 163.778H36.2599ZM32.117 165.766C32.1536 166.11 32.3147 166.429 32.57 166.663C32.8254 166.897 33.1573 167.029 33.5035 167.035C33.7371 167.052 33.9716 167.052 34.2051 167.035L36.4604 166.651C38.496 166.233 40.601 166.296 42.608 166.835C42.9756 166.935 43.3431 167.085 43.7106 167.169C43.9836 167.263 44.2825 167.251 44.5463 167.133C44.8101 167.015 45.019 166.801 45.1306 166.534C45.3266 166.224 45.4306 165.865 45.4306 165.498C45.4306 165.132 45.3266 164.773 45.1306 164.463L43.0424 160.905C42.5579 160.069 42.0735 159.234 41.6057 158.415C41.3384 157.948 41.1212 157.447 40.8205 156.996C40.6597 156.714 40.4356 156.474 40.1659 156.294C39.8963 156.115 39.5885 156 39.2669 155.96C38.5987 155.96 38.3481 156.411 38.014 156.829C36.7945 158.315 35.575 159.785 34.3889 161.289C33.9668 161.791 33.6233 162.354 33.3699 162.959C33.1238 163.677 32.6407 164.29 32 164.697C32 165.148 32 165.465 32.117 165.766Z" fill="#0068FF"/>
<path d="M36.859 197.033C36.859 196.866 36.859 196.749 36.859 196.682C37.5212 195.633 38.288 194.653 39.1477 193.759L39.3648 193.625C39.8494 194.113 40.2502 194.677 40.5509 195.295C40.9686 195.844 41.3009 196.452 41.5366 197.1L36.859 197.033ZM33.1169 198.82C33.157 199.13 33.3073 199.416 33.5404 199.624C33.7735 199.833 34.0738 199.951 34.3866 199.956C34.5923 199.973 34.799 199.973 35.0047 199.956L37.026 199.605C38.8575 199.234 40.7499 199.291 42.5556 199.772C42.8897 199.873 43.2071 199.99 43.5412 200.073C43.7855 200.157 44.0523 200.145 44.288 200.039C44.5237 199.934 44.7106 199.743 44.8109 199.505C44.994 199.231 45.0918 198.908 45.0918 198.578C45.0918 198.248 44.994 197.925 44.8109 197.651C44.1928 196.582 43.5747 195.513 42.9398 194.444L41.6368 192.205C41.4029 191.787 41.2024 191.353 40.9519 190.935C40.8045 190.683 40.6015 190.468 40.3584 190.306C40.1152 190.143 39.8383 190.039 39.5486 190C38.9639 190 38.73 190.418 38.4293 190.785C37.3435 192.122 36.2409 193.441 35.0882 194.794C34.7108 195.236 34.4011 195.732 34.1694 196.264C33.99 196.942 33.5756 197.534 33 197.935C33.0835 198.269 33.0835 198.536 33.1169 198.82Z" fill="#0068FF"/>
<path d="M35.8925 230.267C35.8925 230.1 35.8925 229.966 35.8925 229.899C36.5715 228.828 37.3549 227.826 38.2313 226.909L38.4651 226.775C38.9578 227.264 39.3695 227.828 39.6847 228.446C40.1079 229.011 40.4457 229.636 40.687 230.3L35.8925 230.267ZM32.0669 232.087C32.0998 232.407 32.2492 232.702 32.4866 232.918C32.7239 233.134 33.0325 233.254 33.3532 233.257C33.5641 233.282 33.7772 233.282 33.9881 233.257L36.0763 232.889C37.9538 232.524 39.8896 232.587 41.7395 233.073L42.7418 233.374C42.9925 233.462 43.2676 233.451 43.5102 233.342C43.7528 233.233 43.9442 233.035 44.0448 232.789C44.2388 232.509 44.3428 232.177 44.3428 231.837C44.3428 231.497 44.2388 231.164 44.0448 230.885C43.41 229.799 42.7752 228.696 42.1237 227.544L40.8039 225.255C40.5534 224.821 40.3529 224.37 40.0856 223.952C39.9368 223.693 39.7295 223.471 39.48 223.306C39.2306 223.141 38.946 223.036 38.6489 223C38.0475 223 37.7969 223.418 37.4962 223.785C36.3937 225.155 35.2577 226.508 34.1551 227.895C33.7666 228.353 33.4459 228.865 33.2029 229.415C33.0034 230.092 32.5792 230.681 32.0001 231.085C31.9985 231.42 32.0208 231.755 32.0669 232.087Z" fill="#0068FF"/>
<path d="M36.1096 263.651C36.1096 263.484 36.1096 263.35 36.1096 263.267C36.839 262.134 37.6723 261.071 38.5987 260.093L38.8493 259.942C39.3619 260.461 39.7954 261.052 40.1356 261.696C40.5873 262.291 40.9477 262.95 41.2048 263.651H36.1096ZM32.0501 265.605C32.087 265.944 32.2469 266.256 32.4995 266.484C32.7521 266.712 33.0797 266.839 33.42 266.841C33.642 266.867 33.8662 266.867 34.0882 266.841L36.31 266.457C38.308 266.058 40.3708 266.121 42.3407 266.641L43.4099 266.975C43.6785 267.064 43.9708 267.048 44.228 266.93C44.4853 266.813 44.6884 266.602 44.7965 266.34C44.9881 266.038 45.0898 265.688 45.0898 265.33C45.0898 264.972 44.9881 264.621 44.7965 264.319C44.1115 263.166 43.4433 261.997 42.7584 260.828L41.3384 258.406C41.0878 257.938 40.8707 257.453 40.5867 257.019C40.4286 256.74 40.2071 256.503 39.9401 256.326C39.673 256.149 39.368 256.037 39.0497 256C38.4149 256 38.1476 256.434 37.8302 256.835C36.6441 258.305 35.4581 259.742 34.2887 261.212C33.8731 261.716 33.5353 262.279 33.2863 262.882C33.0752 263.613 32.6215 264.249 32 264.687C32.0167 265.004 32.0167 265.305 32.0501 265.605Z" fill="#0068FF"/>
<path d="M36.7922 297.066C36.7922 296.899 36.7922 296.782 36.7922 296.715C37.4542 295.661 38.221 294.676 39.0809 293.775L39.3147 293.642C39.7936 294.134 40.1937 294.698 40.5008 295.312C40.9185 295.86 41.2508 296.469 41.4865 297.116L36.7922 297.066ZM33.0501 298.854C33.0864 299.167 33.2351 299.456 33.4686 299.668C33.7021 299.88 34.0045 300 34.3197 300.006H34.9379L36.976 299.655C38.8123 299.276 40.712 299.333 42.5222 299.823L43.5246 300.123C43.7688 300.207 44.0357 300.195 44.2713 300.089C44.507 299.984 44.6939 299.793 44.7942 299.555C44.9708 299.275 45.0645 298.951 45.0645 298.62C45.0645 298.289 44.9708 297.964 44.7942 297.684L42.9232 294.46L41.6034 292.222C41.3695 291.804 41.1691 291.353 40.9185 290.952C40.7704 290.695 40.5653 290.476 40.3192 290.311C40.073 290.146 39.7922 290.04 39.4985 290C38.9138 290 38.6799 290.418 38.3792 290.785C37.2766 292.122 36.1741 293.458 35.1216 294.811C34.7367 295.257 34.4213 295.758 34.1861 296.298C33.9998 296.977 33.5797 297.568 33 297.968C33.0167 298.302 33.0167 298.62 33.0501 298.854Z" fill="#0068FF"/>
<path d="M35.9592 330.183C35.9592 330.016 35.9592 329.899 35.9592 329.832C36.6227 328.769 37.3954 327.778 38.2646 326.876L38.4985 326.725C38.9858 327.214 39.3919 327.778 39.7013 328.396C40.1246 328.949 40.4625 329.563 40.7036 330.216L35.9592 330.183ZM32.1838 331.987C32.2163 332.303 32.3634 332.597 32.5972 332.812C32.831 333.028 33.1356 333.15 33.4534 333.157C33.6643 333.181 33.8773 333.181 34.0882 333.157L36.143 332.806C38.0037 332.44 39.9232 332.503 41.7561 332.989C42.0902 333.073 42.4076 333.207 42.7584 333.29C43.007 333.374 43.278 333.36 43.5168 333.251C43.7555 333.143 43.9442 332.948 44.0447 332.705C44.2351 332.428 44.3369 332.099 44.3369 331.762C44.3369 331.425 44.2351 331.096 44.0447 330.818L42.0568 327.51C41.6224 326.742 41.1714 326.007 40.737 325.238C40.5032 324.821 40.3027 324.37 40.0354 323.952C39.8893 323.694 39.6848 323.473 39.4383 323.308C39.1917 323.142 38.9099 323.037 38.6154 323C38.014 323 37.7801 323.418 37.4794 323.802C36.3769 325.155 35.2576 326.491 34.1383 327.861C33.75 328.314 33.4293 328.82 33.1861 329.365C32.9922 330.04 32.5738 330.629 32 331.035C32.0391 331.356 32.1005 331.674 32.1838 331.987Z" fill="#0068FF"/>
<path d="M3.89249 230.267C3.89249 230.1 3.89249 229.966 3.89249 229.899C4.57154 228.828 5.35494 227.826 6.23127 226.909L6.46514 226.775C6.95779 227.264 7.36947 227.828 7.68467 228.446C8.10794 229.011 8.44566 229.636 8.68699 230.3L3.89249 230.267ZM0.0669159 232.087C0.0998051 232.407 0.249227 232.702 0.48657 232.918C0.723913 233.134 1.03248 233.254 1.35323 233.257C1.56411 233.282 1.77717 233.282 1.98805 233.257L4.07625 232.889C5.95377 232.524 7.88958 232.587 9.73946 233.073L10.7418 233.374C10.9925 233.462 11.2676 233.451 11.5102 233.342C11.7528 233.233 11.9442 233.035 12.0448 232.789C12.2388 232.509 12.3428 232.177 12.3428 231.837C12.3428 231.497 12.2388 231.164 12.0448 230.885C11.41 229.799 10.7752 228.696 10.1237 227.544L8.80394 225.255C8.55336 224.821 8.35288 224.37 8.08559 223.952C7.93682 223.693 7.72946 223.471 7.48003 223.306C7.2306 223.141 6.94599 223.036 6.64891 223C6.0475 223 5.79694 223.418 5.49624 223.785C4.39367 225.155 3.25769 226.508 2.15512 227.895C1.76662 228.353 1.44593 228.865 1.20289 229.415C1.00341 230.092 0.579181 230.681 7.91529e-05 231.085C-0.0015101 231.42 0.020835 231.755 0.0669159 232.087Z" fill="#0068FF"/>
<path d="M4.10956 264.651C4.10956 264.484 4.10956 264.35 4.10956 264.267C4.83901 263.134 5.67232 262.071 6.59871 261.093L6.84928 260.942C7.36193 261.461 7.79537 262.052 8.13562 262.696C8.58731 263.291 8.94767 263.95 9.20478 264.651H4.10956ZM0.0501148 266.605C0.087002 266.944 0.246949 267.256 0.499542 267.484C0.752135 267.712 1.07973 267.839 1.41996 267.841C1.64197 267.867 1.86619 267.867 2.0882 267.841L4.31002 267.457C6.30799 267.058 8.37079 267.121 10.3407 267.641L11.4099 267.975C11.6785 268.064 11.9708 268.048 12.228 267.93C12.4853 267.813 12.6884 267.602 12.7965 267.34C12.9881 267.038 13.0898 266.688 13.0898 266.33C13.0898 265.972 12.9881 265.621 12.7965 265.319C12.1115 264.166 11.4433 262.997 10.7584 261.828L9.33842 259.406C9.08784 258.938 8.87067 258.453 8.58668 258.019C8.42863 257.74 8.20709 257.503 7.94005 257.326C7.67302 257.149 7.36799 257.037 7.04974 257C6.41493 257 6.14764 257.434 5.83024 257.835C4.64414 259.305 3.45805 260.742 2.28866 262.212C1.87312 262.716 1.53526 263.279 1.28631 263.882C1.07525 264.613 0.621523 265.249 0 265.687C0.0167056 266.004 0.0167036 266.305 0.0501148 266.605Z" fill="#0068FF"/>
<path d="M4.79219 297.066C4.79219 296.899 4.79219 296.782 4.79219 296.715C5.45424 295.661 6.22101 294.676 7.08085 293.775L7.31473 293.642C7.79362 294.134 8.1937 294.698 8.50084 295.312C8.9185 295.86 9.2508 296.469 9.48647 297.116L4.79219 297.066ZM1.05011 298.854C1.08644 299.167 1.23513 299.456 1.4686 299.668C1.70206 299.88 2.00446 300 2.31973 300.006H2.93786L4.97595 299.655C6.8123 299.276 8.71201 299.333 10.5222 299.823L11.5246 300.123C11.7688 300.207 12.0357 300.195 12.2713 300.089C12.507 299.984 12.6939 299.793 12.7942 299.555C12.9708 299.275 13.0645 298.951 13.0645 298.62C13.0645 298.289 12.9708 297.964 12.7942 297.684L10.9232 294.46L9.6034 292.222C9.36952 291.804 9.16907 291.353 8.91848 290.952C8.77038 290.695 8.56534 290.476 8.31917 290.311C8.073 290.146 7.79224 290.04 7.49849 290C6.9138 290 6.67992 290.418 6.37922 290.785C5.27665 292.122 4.17408 293.458 3.12162 294.811C2.73669 295.257 2.4213 295.758 2.18611 296.298C1.9998 296.977 1.57975 297.568 1 297.968C1.01671 298.302 1.0167 298.62 1.05011 298.854Z" fill="#0068FF"/>
<path d="M3.95924 330.183C3.95924 330.016 3.95924 329.899 3.95924 329.832C4.62272 328.769 5.39535 327.778 6.2646 326.876L6.49848 326.725C6.98584 327.214 7.39189 327.778 7.70128 328.396C8.12457 328.949 8.46246 329.563 8.70363 330.216L3.95924 330.183ZM0.183763 331.987C0.216303 332.303 0.363354 332.597 0.597196 332.812C0.831038 333.028 1.13555 333.15 1.4534 333.157C1.66429 333.181 1.87731 333.181 2.0882 333.157L4.14301 332.806C6.00374 332.44 7.92324 332.503 9.75609 332.989C10.0902 333.073 10.4076 333.207 10.7584 333.29C11.007 333.374 11.278 333.36 11.5168 333.251C11.7555 333.143 11.9442 332.948 12.0447 332.705C12.2351 332.428 12.3369 332.099 12.3369 331.762C12.3369 331.425 12.2351 331.096 12.0447 330.818L10.0568 327.51C9.62243 326.742 9.17139 326.007 8.73704 325.238C8.50317 324.821 8.30268 324.37 8.03539 323.952C7.88929 323.694 7.68481 323.473 7.43827 323.308C7.19172 323.142 6.90995 323.037 6.61543 323C6.01403 323 5.78013 323.418 5.47943 323.802C4.37686 325.155 3.25759 326.491 2.13831 327.861C1.75004 328.314 1.42933 328.82 1.18611 329.365C0.992189 330.04 0.573811 330.629 0 331.035C0.0391126 331.356 0.100515 331.674 0.183763 331.987Z" fill="#0068FF"/>
</svg>
