<svg width="113" height="187" viewBox="0 0 113 187" fill="none" xmlns="http://www.w3.org/2000/svg">
<path d="M99.8925 15.2666C99.8925 15.0996 99.8925 14.9659 99.8925 14.8991C100.572 13.8277 101.355 12.8261 102.231 11.909L102.465 11.7753C102.958 12.2639 103.369 12.8277 103.685 13.4458C104.108 14.0114 104.446 14.6362 104.687 15.3001L99.8925 15.2666ZM96.0669 17.0875C96.0998 17.4065 96.2492 17.7022 96.4866 17.918C96.7239 18.1337 97.0325 18.2544 97.3532 18.2568C97.5641 18.2816 97.7772 18.2816 97.9881 18.2568L100.076 17.8893C101.954 17.5237 103.89 17.5866 105.739 18.073L106.742 18.3737C106.993 18.4621 107.268 18.4507 107.51 18.3419C107.753 18.2331 107.944 18.0351 108.045 17.7891C108.239 17.5094 108.343 17.1772 108.343 16.8369C108.343 16.4966 108.239 16.1643 108.045 15.8847C107.41 14.7989 106.775 13.6964 106.124 12.5437L104.804 10.2552C104.553 9.82084 104.353 9.36981 104.086 8.95219C103.937 8.69256 103.729 8.47127 103.48 8.30595C103.231 8.14064 102.946 8.03586 102.649 8C102.048 8 101.797 8.41762 101.496 8.78513C100.394 10.1549 99.2577 11.508 98.1551 12.8945C97.7666 13.3531 97.4459 13.865 97.2029 14.4147C97.0034 15.092 96.5792 15.6812 96.0001 16.0852C95.9985 16.4204 96.0208 16.7554 96.0669 17.0875Z" fill="#FC2774"/>
<path d="M100.11 48.6508C100.11 48.4838 100.11 48.3501 100.11 48.2666C100.839 47.1337 101.672 46.0712 102.599 45.0927L102.849 44.9423C103.362 45.4606 103.795 46.0517 104.136 46.6964C104.587 47.291 104.948 47.9497 105.205 48.6508H100.11ZM96.0501 50.6053C96.087 50.9435 96.2469 51.2564 96.4995 51.4843C96.7521 51.7123 97.0797 51.8394 97.42 51.8415C97.642 51.867 97.8662 51.867 98.0882 51.8415L100.31 51.4573C102.308 51.058 104.371 51.1209 106.341 51.641L107.41 51.9751C107.678 52.0641 107.971 52.0481 108.228 51.9304C108.485 51.8126 108.688 51.6018 108.796 51.3403C108.988 51.038 109.09 50.6875 109.09 50.3297C109.09 49.9718 108.988 49.6213 108.796 49.319C108.112 48.1664 107.443 46.997 106.758 45.8277L105.338 43.4055C105.088 42.9378 104.871 42.4533 104.587 42.019C104.429 41.7403 104.207 41.5028 103.94 41.3258C103.673 41.1487 103.368 41.0371 103.05 41C102.415 41 102.148 41.4343 101.83 41.8352C100.644 43.3053 99.4581 44.7419 98.2887 46.2119C97.8731 46.7157 97.5353 47.2787 97.2863 47.8824C97.0752 48.6126 96.6215 49.249 96 49.6865C96.0167 50.0039 96.0167 50.3046 96.0501 50.6053Z" fill="#FC2774"/>
<path d="M100.792 82.0662C100.792 81.8992 100.792 81.7822 100.792 81.7154C101.454 80.6609 102.221 79.6759 103.081 78.7753L103.315 78.6417C103.794 79.1342 104.194 79.6977 104.501 80.3122C104.919 80.8604 105.251 81.4687 105.486 82.1163L100.792 82.0662ZM97.0501 83.8536C97.0864 84.1668 97.2351 84.4563 97.4686 84.6682C97.7021 84.8802 98.0045 85.0003 98.3197 85.0063H98.9379L100.976 84.6554C102.812 84.2763 104.712 84.3335 106.522 84.8225L107.525 85.1232C107.769 85.2069 108.036 85.1949 108.271 85.0895C108.507 84.9841 108.694 84.7931 108.794 84.5552C108.971 84.2752 109.064 83.9508 109.064 83.6197C109.064 83.2887 108.971 82.9643 108.794 82.6843L106.923 79.4602L105.603 77.2218C105.37 76.8041 105.169 76.3531 104.918 75.9522C104.77 75.6955 104.565 75.4761 104.319 75.3111C104.073 75.146 103.792 75.0396 103.498 75C102.914 75 102.68 75.4176 102.379 75.7851C101.277 77.1215 100.174 78.4579 99.1216 79.811C98.7367 80.2567 98.4213 80.7579 98.1861 81.2978C97.9998 81.9769 97.5797 82.5685 97 82.9683C97.0167 83.3024 97.0167 83.6197 97.0501 83.8536Z" fill="#FC2774"/>
<path d="M99.9592 115.183C99.9592 115.016 99.9592 114.899 99.9592 114.832C100.623 113.769 101.395 112.778 102.265 111.876L102.498 111.725C102.986 112.214 103.392 112.778 103.701 113.396C104.125 113.949 104.462 114.563 104.704 115.216L99.9592 115.183ZM96.1838 116.987C96.2163 117.303 96.3634 117.597 96.5972 117.812C96.831 118.028 97.1356 118.15 97.4534 118.157C97.6643 118.181 97.8773 118.181 98.0882 118.157L100.143 117.806C102.004 117.44 103.923 117.503 105.756 117.989C106.09 118.073 106.408 118.207 106.758 118.29C107.007 118.374 107.278 118.36 107.517 118.251C107.755 118.143 107.944 117.948 108.045 117.705C108.235 117.428 108.337 117.099 108.337 116.762C108.337 116.425 108.235 116.096 108.045 115.818L106.057 112.51C105.622 111.742 105.171 111.007 104.737 110.238C104.503 109.821 104.303 109.37 104.035 108.952C103.889 108.694 103.685 108.473 103.438 108.308C103.192 108.142 102.91 108.037 102.615 108C102.014 108 101.78 108.418 101.479 108.802C100.377 110.155 99.2576 111.491 98.1383 112.861C97.75 113.314 97.4293 113.82 97.1861 114.365C96.9922 115.04 96.5738 115.629 96 116.035C96.0391 116.356 96.1005 116.674 96.1838 116.987Z" fill="#FC2774"/>
<path d="M68.0104 16.4337C68.0104 16.2666 68.0104 16.133 68.0104 16.0495C68.7231 14.9388 69.5398 13.8984 70.4494 12.9424L70.7 12.792C71.2061 13.2767 71.6293 13.841 71.9529 14.4625C72.4081 15.0427 72.7689 15.691 73.0221 16.3836L68.0104 16.4337ZM64.0345 18.338C64.0638 18.6718 64.2175 18.9824 64.465 19.2083C64.7125 19.4341 65.0359 19.5588 65.371 19.5575C65.593 19.5823 65.8171 19.5823 66.0392 19.5575L68.2109 19.19C70.1697 18.7909 72.1945 18.8538 74.1247 19.3737C74.4755 19.4573 74.8263 19.5909 75.1771 19.6911C75.4413 19.7804 75.7295 19.7663 75.9837 19.6516C76.2379 19.5369 76.4391 19.3302 76.547 19.0731C76.7357 18.7759 76.8359 18.4311 76.8359 18.0791C76.8359 17.7271 76.7357 17.3823 76.547 17.0852L74.559 13.7442L73.1557 11.3554C72.9052 10.9044 72.688 10.4366 72.4207 10.0023C72.2671 9.72835 72.0508 9.49467 71.7894 9.32046C71.5281 9.14624 71.2292 9.03642 70.9172 9C70.2824 9 70.0318 9.43433 69.7144 9.83524C68.5617 11.2552 67.3756 12.6751 66.2396 14.1117C65.8384 14.5919 65.5066 15.1261 65.254 15.6987C65.0547 16.4165 64.6117 17.0426 64.0011 17.4694C63.9963 17.7593 64.0074 18.0493 64.0345 18.338Z" fill="#FC2774"/>
<path d="M66.5939 51.4826C66.5939 51.1727 66.5939 50.9473 66.5939 50.8345C67.7518 48.9711 69.0822 47.2255 70.5667 45.6217L70.9806 45.3963C71.8107 46.219 72.5089 47.1698 73.0498 48.214C73.783 49.1855 74.3603 50.2697 74.7603 51.4262L66.5939 51.4826ZM60.0828 54.6667C60.1436 55.2222 60.4019 55.7357 60.8087 56.1096C61.2156 56.4836 61.7426 56.692 62.2899 56.6955H63.3659L66.925 56.0474C70.1252 55.4029 73.427 55.5088 76.5813 56.3573C77.1606 56.5264 77.7124 56.7518 78.2918 56.8927C78.7205 57.0509 79.1924 57.0336 79.609 56.8446C80.0255 56.6555 80.3542 56.3093 80.5265 55.8783C80.8358 55.3813 81 54.8047 81 54.2158C81 53.627 80.8358 53.0503 80.5265 52.5534C79.4229 50.6655 78.347 48.7494 77.2434 46.9179L74.9811 42.9448C74.5672 42.184 74.2086 41.3951 73.7671 40.6906C73.5144 40.2335 73.161 39.8428 72.7348 39.5493C72.3086 39.2559 71.8214 39.0678 71.3117 39C70.2909 39 69.877 39.7326 69.3528 40.3807C67.4491 42.7758 65.5455 45.1427 63.6694 47.5378C63.0082 48.3332 62.4687 49.2262 62.0692 50.1865C61.7124 51.3382 60.9827 52.3318 60 53.0042C60.0276 53.6805 60.0276 54.1877 60.0828 54.6667Z" fill="#FC2774"/>
<path d="M68.7755 116.983C68.7755 116.816 68.7755 116.699 68.7755 116.632C69.4418 115.595 70.2024 114.622 71.0474 113.725L71.2813 113.592C71.7704 114.072 72.1668 114.638 72.4507 115.262C72.8745 115.8 73.2074 116.404 73.4363 117.049L68.7755 116.983ZM65.0501 118.753C65.0826 119.065 65.2279 119.354 65.4586 119.567C65.6893 119.779 65.9896 119.9 66.303 119.906C66.5087 119.922 66.7154 119.922 66.9211 119.906C67.5894 119.806 68.2743 119.689 68.9425 119.555C70.7696 119.19 72.6566 119.253 74.4554 119.739C74.7895 119.739 75.1069 119.956 75.441 120.04C75.6873 120.122 75.9559 120.108 76.1919 119.999C76.4279 119.891 76.6134 119.696 76.7106 119.455C76.8903 119.182 76.986 118.863 76.986 118.536C76.986 118.21 76.8903 117.89 76.7106 117.617L74.8396 114.41C74.4053 113.675 73.9709 112.94 73.5533 112.188C73.3027 111.771 73.1189 111.336 72.8516 110.935C72.7105 110.678 72.5092 110.458 72.2648 110.295C72.0205 110.133 71.7403 110.031 71.4483 110C70.8636 110 70.6298 110.401 70.3291 110.768C69.2599 112.105 68.1574 113.424 67.1049 114.761C66.7215 115.204 66.4113 115.706 66.1861 116.248C65.9851 116.92 65.5683 117.507 65 117.918C65.0167 118.219 65.0167 118.486 65.0501 118.753Z" fill="#FC2774"/>
<path d="M68.7755 182.983C68.7755 182.816 68.7755 182.699 68.7755 182.632C69.4418 181.595 70.2024 180.622 71.0474 179.725L71.2813 179.592C71.7704 180.072 72.1668 180.638 72.4507 181.262C72.8745 181.8 73.2074 182.404 73.4363 183.049L68.7755 182.983ZM65.0501 184.753C65.0826 185.065 65.2279 185.354 65.4586 185.567C65.6893 185.779 65.9896 185.9 66.303 185.906C66.5087 185.922 66.7154 185.922 66.9211 185.906C67.5894 185.806 68.2743 185.689 68.9425 185.555C70.7696 185.19 72.6566 185.253 74.4554 185.739C74.7895 185.739 75.1069 185.956 75.441 186.04C75.6873 186.122 75.9559 186.108 76.1919 185.999C76.4279 185.891 76.6134 185.696 76.7106 185.455C76.8903 185.182 76.986 184.863 76.986 184.536C76.986 184.21 76.8903 183.89 76.7106 183.617L74.8396 180.41C74.4053 179.675 73.9709 178.94 73.5533 178.188C73.3027 177.771 73.1189 177.336 72.8516 176.935C72.7105 176.678 72.5092 176.458 72.2648 176.295C72.0205 176.133 71.7403 176.031 71.4483 176C70.8636 176 70.6298 176.401 70.3291 176.768C69.2599 178.105 68.1574 179.424 67.1049 180.761C66.7215 181.204 66.4113 181.706 66.1861 182.248C65.9851 182.92 65.5683 183.507 65 183.918C65.0167 184.219 65.0167 184.486 65.0501 184.753Z" fill="#FC2774"/>
<path d="M68.6084 83.8156C68.6084 83.6486 68.6084 83.5316 68.6084 83.4815C69.2382 82.4724 69.9717 81.5318 70.7968 80.6751L71.0307 80.5414C71.4876 80.991 71.8709 81.5096 72.1667 82.0783C72.5582 82.5895 72.8785 83.1514 73.1189 83.7488L68.6084 83.8156ZM65.0167 85.4861C65.0532 85.7844 65.1972 86.0592 65.4217 86.259C65.6461 86.4588 65.9357 86.5701 66.2362 86.5719C66.4359 86.5967 66.6379 86.5967 66.8376 86.5719L68.7921 86.2378C70.5528 85.8915 72.3691 85.9486 74.1045 86.4049C74.4219 86.4884 74.7393 86.622 75.0567 86.6889C75.2942 86.7722 75.5546 86.7615 75.7845 86.659C76.0143 86.5565 76.1962 86.3699 76.293 86.1376C76.4623 85.8702 76.5522 85.5603 76.5522 85.2439C76.5522 84.9274 76.4623 84.6175 76.293 84.3502L74.5055 81.2765C74.0878 80.5581 73.6535 79.8398 73.2525 79.1215C73.0187 78.7206 72.8349 78.2863 72.5843 77.9021C72.4431 77.6579 72.2476 77.4496 72.013 77.2932C71.7783 77.1368 71.5108 77.0365 71.2312 77C70.6632 77 70.4293 77.4009 70.1453 77.7517C69.1096 79.038 68.0404 80.3076 67.0214 81.6105C66.6551 82.0356 66.3564 82.5145 66.136 83.0305C65.9639 83.7028 65.562 84.2938 65 84.701C65.0167 85.0852 65.0167 85.2689 65.0167 85.5362V85.4861Z" fill="#FC2774"/>
<path d="M68.6084 149.816C68.6084 149.649 68.6084 149.532 68.6084 149.481C69.2382 148.472 69.9717 147.532 70.7968 146.675L71.0307 146.541C71.4876 146.991 71.8709 147.51 72.1667 148.078C72.5582 148.589 72.8785 149.151 73.1189 149.749L68.6084 149.816ZM65.0167 151.486C65.0532 151.784 65.1972 152.059 65.4217 152.259C65.6461 152.459 65.9357 152.57 66.2362 152.572C66.4359 152.597 66.6379 152.597 66.8376 152.572L68.7921 152.238C70.5528 151.892 72.3691 151.949 74.1045 152.405C74.4219 152.488 74.7393 152.622 75.0567 152.689C75.2942 152.772 75.5546 152.761 75.7845 152.659C76.0143 152.556 76.1962 152.37 76.293 152.138C76.4623 151.87 76.5522 151.56 76.5522 151.244C76.5522 150.927 76.4623 150.617 76.293 150.35L74.5055 147.276C74.0878 146.558 73.6535 145.84 73.2525 145.122C73.0187 144.721 72.8349 144.286 72.5843 143.902C72.4431 143.658 72.2476 143.45 72.013 143.293C71.7783 143.137 71.5108 143.036 71.2312 143C70.6632 143 70.4293 143.401 70.1453 143.752C69.1096 145.038 68.0404 146.308 67.0214 147.611C66.6551 148.036 66.3564 148.515 66.136 149.03C65.9639 149.703 65.562 150.294 65 150.701C65.0167 151.085 65.0167 151.269 65.0167 151.536V151.486Z" fill="#FC2774"/>
<path d="M35.8925 15.2666C35.8925 15.0996 35.8925 14.9659 35.8925 14.8991C36.5715 13.8277 37.3549 12.8261 38.2313 11.909L38.4651 11.7753C38.9578 12.2639 39.3695 12.8277 39.6847 13.4458C40.1079 14.0114 40.4457 14.6362 40.687 15.3001L35.8925 15.2666ZM32.0669 17.0875C32.0998 17.4065 32.2492 17.7022 32.4866 17.918C32.7239 18.1337 33.0325 18.2544 33.3532 18.2568C33.5641 18.2816 33.7772 18.2816 33.9881 18.2568L36.0763 17.8893C37.9538 17.5237 39.8896 17.5866 41.7395 18.073L42.7418 18.3737C42.9925 18.4621 43.2676 18.4507 43.5102 18.3419C43.7528 18.2331 43.9442 18.0351 44.0448 17.7891C44.2388 17.5094 44.3428 17.1772 44.3428 16.8369C44.3428 16.4966 44.2388 16.1643 44.0448 15.8847C43.41 14.7989 42.7752 13.6964 42.1237 12.5437L40.8039 10.2552C40.5534 9.82084 40.3529 9.36981 40.0856 8.95219C39.9368 8.69256 39.7295 8.47127 39.48 8.30595C39.2306 8.14064 38.946 8.03586 38.6489 8C38.0475 8 37.7969 8.41762 37.4962 8.78513C36.3937 10.1549 35.2577 11.508 34.1551 12.8945C33.7666 13.3531 33.4459 13.865 33.2029 14.4147C33.0034 15.092 32.5792 15.6812 32.0001 16.0852C31.9985 16.4204 32.0208 16.7554 32.0669 17.0875Z" fill="#FC2774"/>
<path d="M36.1096 48.6508C36.1096 48.4838 36.1096 48.3501 36.1096 48.2666C36.839 47.1337 37.6723 46.0712 38.5987 45.0927L38.8493 44.9423C39.3619 45.4606 39.7954 46.0517 40.1356 46.6964C40.5873 47.291 40.9477 47.9497 41.2048 48.6508H36.1096ZM32.0501 50.6053C32.087 50.9435 32.2469 51.2564 32.4995 51.4843C32.7521 51.7123 33.0797 51.8394 33.42 51.8415C33.642 51.867 33.8662 51.867 34.0882 51.8415L36.31 51.4573C38.308 51.058 40.3708 51.1209 42.3407 51.641L43.4099 51.9751C43.6785 52.0641 43.9708 52.0481 44.228 51.9304C44.4853 51.8126 44.6884 51.6018 44.7965 51.3403C44.9881 51.038 45.0898 50.6875 45.0898 50.3297C45.0898 49.9718 44.9881 49.6213 44.7965 49.319C44.1115 48.1664 43.4433 46.997 42.7584 45.8277L41.3384 43.4055C41.0878 42.9378 40.8707 42.4533 40.5867 42.019C40.4286 41.7403 40.2071 41.5028 39.9401 41.3258C39.673 41.1487 39.368 41.0371 39.0497 41C38.4149 41 38.1476 41.4343 37.8302 41.8352C36.6441 43.3053 35.4581 44.7419 34.2887 46.2119C33.8731 46.7157 33.5353 47.2787 33.2863 47.8824C33.0752 48.6126 32.6215 49.249 32 49.6865C32.0167 50.0039 32.0167 50.3046 32.0501 50.6053Z" fill="#FC2774"/>
<path d="M36.7922 82.0662C36.7922 81.8992 36.7922 81.7822 36.7922 81.7154C37.4542 80.6609 38.221 79.6759 39.0809 78.7753L39.3147 78.6417C39.7936 79.1342 40.1937 79.6977 40.5008 80.3122C40.9185 80.8604 41.2508 81.4687 41.4865 82.1163L36.7922 82.0662ZM33.0501 83.8536C33.0864 84.1668 33.2351 84.4563 33.4686 84.6682C33.7021 84.8802 34.0045 85.0003 34.3197 85.0063H34.9379L36.976 84.6554C38.8123 84.2763 40.712 84.3335 42.5222 84.8225L43.5246 85.1232C43.7688 85.2069 44.0357 85.1949 44.2713 85.0895C44.507 84.9841 44.6939 84.7931 44.7942 84.5552C44.9708 84.2752 45.0645 83.9508 45.0645 83.6197C45.0645 83.2887 44.9708 82.9643 44.7942 82.6843L42.9232 79.4602L41.6034 77.2218C41.3695 76.8041 41.1691 76.3531 40.9185 75.9522C40.7704 75.6955 40.5653 75.4761 40.3192 75.3111C40.073 75.146 39.7922 75.0396 39.4985 75C38.9138 75 38.6799 75.4176 38.3792 75.7851C37.2766 77.1215 36.1741 78.4579 35.1216 79.811C34.7367 80.2567 34.4213 80.7579 34.1861 81.2978C33.9998 81.9769 33.5797 82.5685 33 82.9683C33.0167 83.3024 33.0167 83.6197 33.0501 83.8536Z" fill="#FC2774"/>
<path d="M35.9592 115.183C35.9592 115.016 35.9592 114.899 35.9592 114.832C36.6227 113.769 37.3954 112.778 38.2646 111.876L38.4985 111.725C38.9858 112.214 39.3919 112.778 39.7013 113.396C40.1246 113.949 40.4625 114.563 40.7036 115.216L35.9592 115.183ZM32.1838 116.987C32.2163 117.303 32.3634 117.597 32.5972 117.812C32.831 118.028 33.1356 118.15 33.4534 118.157C33.6643 118.181 33.8773 118.181 34.0882 118.157L36.143 117.806C38.0037 117.44 39.9232 117.503 41.7561 117.989C42.0902 118.073 42.4076 118.207 42.7584 118.29C43.007 118.374 43.278 118.36 43.5168 118.251C43.7555 118.143 43.9442 117.948 44.0447 117.705C44.2351 117.428 44.3369 117.099 44.3369 116.762C44.3369 116.425 44.2351 116.096 44.0447 115.818L42.0568 112.51C41.6224 111.742 41.1714 111.007 40.737 110.238C40.5032 109.821 40.3027 109.37 40.0354 108.952C39.8893 108.694 39.6848 108.473 39.4383 108.308C39.1917 108.142 38.9099 108.037 38.6154 108C38.014 108 37.7801 108.418 37.4794 108.802C36.3769 110.155 35.2576 111.491 34.1383 112.861C33.75 113.314 33.4293 113.82 33.1861 114.365C32.9922 115.04 32.5738 115.629 32 116.035C32.0391 116.356 32.1005 116.674 32.1838 116.987Z" fill="#FC2774"/>
<path d="M33.7022 151.888C33.7022 151.565 33.7022 151.339 33.7022 151.21C34.9929 149.155 36.496 147.239 38.187 145.493L38.642 145.203C39.5901 146.148 40.38 147.239 40.9819 148.432C41.8054 149.502 42.4627 150.689 42.9318 151.953L33.7022 151.888ZM26.3575 155.377C26.4208 155.988 26.7069 156.555 27.1618 156.972C27.6167 157.388 28.2091 157.625 28.8274 157.637C29.2377 157.685 29.6521 157.685 30.0623 157.637L34.0597 156.959C37.6795 156.253 41.4137 156.374 44.9793 157.314C45.6292 157.476 46.2467 157.734 46.9291 157.896C47.4128 158.057 47.94 158.03 48.4044 157.821C48.8689 157.611 49.2359 157.234 49.4316 156.765C49.8018 156.228 50 155.592 50 154.94C50 154.289 49.8018 153.653 49.4316 153.116L45.5642 146.721C44.7192 145.235 43.8418 143.814 42.9968 142.328C42.5419 141.521 42.1518 140.648 41.6319 139.841C41.3476 139.341 40.9499 138.915 40.4702 138.595C39.9906 138.275 39.4425 138.072 38.8695 138C37.6995 138 37.2445 138.807 36.6596 139.55C34.5146 142.166 32.3372 144.75 30.1598 147.399C29.4045 148.274 28.7806 149.253 28.3074 150.306C27.9302 151.612 27.1163 152.751 26 153.536C26.0761 154.157 26.1955 154.772 26.3575 155.377Z" fill="#FC2774"/>
<path d="M3.89249 15.2666C3.89249 15.0996 3.89249 14.9659 3.89249 14.8991C4.57154 13.8277 5.35494 12.8261 6.23127 11.909L6.46514 11.7753C6.95779 12.2639 7.36947 12.8277 7.68467 13.4458C8.10794 14.0114 8.44566 14.6362 8.68699 15.3001L3.89249 15.2666ZM0.0669159 17.0875C0.0998051 17.4065 0.249227 17.7022 0.48657 17.918C0.723913 18.1337 1.03248 18.2544 1.35323 18.2568C1.56411 18.2816 1.77717 18.2816 1.98805 18.2568L4.07625 17.8893C5.95377 17.5237 7.88958 17.5866 9.73946 18.073L10.7418 18.3737C10.9925 18.4621 11.2676 18.4507 11.5102 18.3419C11.7528 18.2331 11.9442 18.0351 12.0448 17.7891C12.2388 17.5094 12.3428 17.1772 12.3428 16.8369C12.3428 16.4966 12.2388 16.1643 12.0448 15.8847C11.41 14.7989 10.7752 13.6964 10.1237 12.5437L8.80394 10.2552C8.55336 9.82084 8.35288 9.36981 8.08559 8.95219C7.93682 8.69256 7.72946 8.47127 7.48003 8.30595C7.2306 8.14064 6.94599 8.03586 6.64891 8C6.0475 8 5.79694 8.41762 5.49624 8.78513C4.39367 10.1549 3.25769 11.508 2.15512 12.8945C1.76662 13.3531 1.44593 13.865 1.20289 14.4147C1.00341 15.092 0.579181 15.6812 7.91529e-05 16.0852C-0.0015101 16.4204 0.020835 16.7554 0.0669159 17.0875Z" fill="#FC2774"/>
<path d="M5.19765 48.4676C5.19765 48.3919 5.19765 48.3313 5.19765 48.2934C5.58774 47.78 6.03336 47.2984 6.52876 46.8549L6.66276 46.7868C6.93691 47.0217 7.1687 47.2896 7.35065 47.5818C7.5922 47.8513 7.78491 48.1498 7.9224 48.4676H5.19765ZM3.0268 49.3534C3.04653 49.5067 3.13206 49.6485 3.26714 49.7518C3.40222 49.8551 3.5774 49.9127 3.75935 49.9137C3.87807 49.9252 3.99797 49.9252 4.1167 49.9137L5.30485 49.7395C6.3733 49.5586 7.47641 49.5871 8.52988 49.8228L9.10162 49.9742C9.24524 50.0146 9.40156 50.0073 9.53913 49.954C9.6767 49.9006 9.78531 49.805 9.84311 49.6865C9.94558 49.5495 10 49.3907 10 49.2285C10 49.0663 9.94558 48.9074 9.84311 48.7704C9.47684 48.248 9.11949 47.718 8.75322 47.1881L7.99387 46.0902C7.85987 45.8783 7.74373 45.6587 7.59186 45.4618C7.50734 45.3355 7.38887 45.2279 7.24607 45.1476C7.10327 45.0674 6.94015 45.0168 6.76996 45C6.43048 45 6.28755 45.1968 6.11781 45.3786C5.48353 46.0448 4.84925 46.6959 4.2239 47.3622C4.00168 47.5905 3.82101 47.8457 3.68788 48.1193C3.57501 48.4502 3.33237 48.7387 3 48.937C3.00893 49.0808 3.00893 49.2171 3.0268 49.3534Z" fill="#FC2774"/>
<path d="M4.79219 82.0662C4.79219 81.8992 4.79219 81.7822 4.79219 81.7154C5.45424 80.6609 6.22101 79.6759 7.08085 78.7753L7.31473 78.6417C7.79362 79.1342 8.1937 79.6977 8.50084 80.3122C8.9185 80.8604 9.2508 81.4687 9.48647 82.1163L4.79219 82.0662ZM1.05011 83.8536C1.08644 84.1668 1.23513 84.4563 1.4686 84.6682C1.70206 84.8802 2.00446 85.0003 2.31973 85.0063H2.93786L4.97595 84.6554C6.8123 84.2763 8.71201 84.3335 10.5222 84.8225L11.5246 85.1232C11.7688 85.2069 12.0357 85.1949 12.2713 85.0895C12.507 84.9841 12.6939 84.7931 12.7942 84.5552C12.9708 84.2752 13.0645 83.9508 13.0645 83.6197C13.0645 83.2887 12.9708 82.9643 12.7942 82.6843L10.9232 79.4602L9.6034 77.2218C9.36952 76.8041 9.16907 76.3531 8.91848 75.9522C8.77038 75.6955 8.56534 75.4761 8.31917 75.3111C8.073 75.146 7.79224 75.0396 7.49849 75C6.9138 75 6.67992 75.4176 6.37922 75.7851C5.27665 77.1215 4.17408 78.4579 3.12162 79.811C2.73669 80.2567 2.4213 80.7579 2.18611 81.2978C1.9998 81.9769 1.57975 82.5685 1 82.9683C1.01671 83.3024 1.0167 83.6197 1.05011 83.8536Z" fill="#FC2774"/>
<path d="M3.95924 115.183C3.95924 115.016 3.95924 114.899 3.95924 114.832C4.62272 113.769 5.39535 112.778 6.2646 111.876L6.49848 111.725C6.98584 112.214 7.39189 112.778 7.70128 113.396C8.12457 113.949 8.46246 114.563 8.70363 115.216L3.95924 115.183ZM0.183763 116.987C0.216303 117.303 0.363354 117.597 0.597196 117.812C0.831038 118.028 1.13555 118.15 1.4534 118.157C1.66429 118.181 1.87731 118.181 2.0882 118.157L4.14301 117.806C6.00374 117.44 7.92324 117.503 9.75609 117.989C10.0902 118.073 10.4076 118.207 10.7584 118.29C11.007 118.374 11.278 118.36 11.5168 118.251C11.7555 118.143 11.9442 117.948 12.0447 117.705C12.2351 117.428 12.3369 117.099 12.3369 116.762C12.3369 116.425 12.2351 116.096 12.0447 115.818L10.0568 112.51C9.62243 111.742 9.17139 111.007 8.73704 110.238C8.50317 109.821 8.30268 109.37 8.03539 108.952C7.88929 108.694 7.68481 108.473 7.43827 108.308C7.19172 108.142 6.90995 108.037 6.61543 108C6.01403 108 5.78013 108.418 5.47943 108.802C4.37686 110.155 3.25759 111.491 2.13831 112.861C1.75004 113.314 1.42933 113.82 1.18611 114.365C0.992189 115.04 0.573811 115.629 0 116.035C0.0391126 116.356 0.100515 116.674 0.183763 116.987Z" fill="#FC2774"/>
</svg>
