<svg xmlns="http://www.w3.org/2000/svg" viewBox="0 0 126.53 28.34"><g id="Layer_2" data-name="Layer 2"><g id="Layer_1-2" data-name="Layer 1"><path d="M8.75,18.92c4.27,0,5.93-2.6,5.93-7.06S12.73,4.3,8.88,4.3H4.55V18.92ZM0,.41H9.44c6,0,9.85,4.83,9.85,11.45,0,3.64-1.22,6.84-3.58,8.82a10,10,0,0,1-6.65,2.17H0Zm32.29,14.4c0-3.14-1.48-5.27-4.08-5.27s-4.08,2.13-4.08,5.27,1.44,5.24,4.08,5.24,4.08-2.1,4.08-5.24m-12.49,0a8.18,8.18,0,0,1,8.41-8.5,8.18,8.18,0,0,1,8.41,8.5,8.19,8.19,0,0,1-8.41,8.51,8.19,8.19,0,0,1-8.41-8.51m17.52,0c0-4.8,3.14-8.5,8-8.5,4.18,0,6.75,2.41,7.31,5.9H48.49a3,3,0,0,0-3-2.48c-2.57,0-3.89,2-3.89,5.08s1.22,5.09,3.83,5.09a3,3,0,0,0,3.23-2.73h4.11c-.28,3.42-3,6.15-7.25,6.15-5.08,0-8.25-3.71-8.25-8.51m26.61,8V21h-.09a5.17,5.17,0,0,1-4.62,2.33c-3.57,0-5.58-2.29-5.58-5.81V6.75h4.23v10c0,1.88.85,2.92,2.67,2.92,2,0,3.23-1.51,3.23-3.64V6.75H68v16.1Zm24.9,0H93.1V6.75H88.83Zm0-18.35H93.1v-4H88.83Zm17.3,9.59c0-2.35-1.26-4.36-3.83-4.36-2.16,0-3.61,1.69-3.61,4.39s1.45,4.33,3.64,4.33c2.7,0,3.8-2,3.8-4.36M94.87,23.32H99.1c.35,1,1.25,1.79,3.23,1.79,2.42,0,3.58-1.16,3.58-3.36V20h-.09a5.21,5.21,0,0,1-4.21,1.88c-3.58,0-7.09-2.82-7.09-7.69s2.89-7.87,7-7.87a5.18,5.18,0,0,1,4.45,2.13H106V6.75h4.11V21.62a6.27,6.27,0,0,1-1.91,4.9,8.44,8.44,0,0,1-5.8,1.82c-4.4,0-7.1-1.89-7.53-5M116.12,8.94h.09A5.23,5.23,0,0,1,121,6.31c3.33,0,5.55,2.51,5.55,6V22.85h-4.26V13a2.69,2.69,0,0,0-2.8-3c-1.88,0-3.26,1.51-3.26,3.7v9.14h-4.27V6.75h4.18Zm-37,.38c-3.33-.72-4.9-1.25-4.9-3.08,0-1.6,1.6-2.63,4.05-2.63,2.23,0,3.94,1.05,4.29,3.14h4.38C86.48,2.39,83.25,0,78.29,0s-8.6,2.29-8.6,6.72c0,4.67,3.67,5.74,7.69,6.65,3.42.78,5.55,1.22,5.55,3.42s-2,2.89-4.36,2.89c-3.2,0-4.74-1.07-5-3.77H69.07c.15,4.74,3.6,7.44,9.69,7.44,5,0,8.72-2.54,8.72-7.09,0-4.84-3.76-5.93-8.37-6.94"/></g></g></svg>