<svg width="249" height="56" viewBox="0 0 249 56" fill="none" xmlns="http://www.w3.org/2000/svg">
<path d="M33.7795 6.30005C34.4177 6.57005 35.0559 6.57005 35.6942 6.66005C41.5295 8.01005 45.7236 11.43 48.2765 16.74C48.6412 17.46 48.6412 17.46 49.3706 17.19C58.9442 13.77 69.2471 18.81 72.0736 28.17C74.7177 36.99 69.6118 46.17 60.7677 48.42C56.7559 49.5 52.5618 48.96 49.0059 46.89C49.2795 46.71 49.553 46.89 49.7353 46.98C55.2059 48.96 60.3118 48.42 64.8706 44.82C72.6206 38.7 71.7089 26.55 62.5912 22.05C58.6706 20.07 54.75 20.25 50.8295 22.14C48.6412 23.13 46.7265 24.48 44.903 26.01C44.8118 26.1 44.6295 26.19 44.4471 26.37C44.5383 25.29 44.6295 24.39 44.6295 23.4C44.4471 17.64 39.7059 12.42 33.8706 11.61C26.9412 10.62 20.65 14.85 19.1912 21.69C18.9177 23.04 18.8265 24.48 19.1 25.92C19.1912 26.73 19.1912 26.73 18.4618 26.73C17.0942 26.73 15.7265 26.64 14.45 26.91C9.89122 27.63 6.15299 32.04 6.60887 36.54C7.06475 40.95 10.2559 44.55 14.9971 45.18C15.6353 45.2701 16.3648 45.27 17.0942 45.27C22.3824 45.27 27.7618 45.27 33.05 45.27C34.9648 45.27 36.6059 44.1 37.0618 42.57C37.4265 41.31 37.153 40.23 36.15 39.33C34.7824 38.16 33.2324 37.53 31.5912 36.99C29.95 36.45 28.2177 36 26.7589 35.01C24.4795 33.48 23.2942 31.41 23.203 28.71C23.1118 27.63 23.203 26.46 23.4765 25.47C24.2059 22.59 26.2118 20.88 29.0383 20.16C32.9589 19.17 36.8795 19.44 40.7089 20.61C41.0736 20.7 41.2559 20.88 41.1647 21.24C41.1647 22.5 41.1647 23.67 41.1647 24.93C41.1647 25.2 41.1648 25.38 40.8 25.2C38.2471 24.48 35.603 24.39 32.9589 24.57C30.5883 24.75 29.2206 26.28 29.403 28.62C29.4942 29.34 29.95 29.79 30.4971 30.24C31.5 31.05 32.6853 31.59 33.8706 32.13C34.9648 32.58 36.0589 32.94 37.2442 33.39C39.1589 34.11 40.8 35.1901 41.9853 36.81C44.2648 39.96 43.9912 45.09 41.2559 47.6101C39.6148 49.14 37.6089 49.68 35.5118 50.13C33.7795 50.4 32.0471 50.4 30.3148 50.4C25.3 50.4 20.5589 50.4 15.8177 50.31C9.80004 50.2201 5.3324 47.43 2.68828 42.12C-1.41466 33.84 3.41769 24.21 12.6265 22.05C13.6295 21.78 13.9942 21.42 14.1765 20.43C15.5442 13.32 21.653 7.56005 28.9471 6.48005C29.2206 6.39005 29.5853 6.48005 29.8589 6.30005H33.7795Z" fill="black"/>
<path d="M144.103 45.6301C142.097 45.5401 140.091 45.4501 138.176 44.8201C137.812 44.7301 137.629 44.5501 137.629 44.1901C137.629 43.3801 137.629 42.4801 137.629 41.6701C137.629 41.4001 137.629 41.2201 137.994 41.3101C140.547 41.9401 143.1 41.9401 145.653 41.7601C146.291 41.6701 146.838 41.4901 147.385 41.2201C148.753 40.5001 149.391 38.3401 147.841 37.1701C146.565 36.1801 145.106 35.6401 143.647 35.1901C142.097 34.7401 140.547 34.1101 139.453 32.8501C136.171 29.1601 138.176 23.4001 143.1 22.5001C145.835 21.9601 148.571 22.1401 151.215 22.9501C151.671 23.0401 151.762 23.3101 151.762 23.6701C151.762 24.4801 151.762 25.2901 151.762 26.0101C151.762 26.4601 151.671 26.5501 151.215 26.4601C149.209 25.9201 147.112 25.8301 145.015 26.1001C143.465 26.2801 142.553 27.5401 142.644 29.0701C142.735 29.6101 143.1 30.0601 143.465 30.3301C144.65 31.2301 146.109 31.8601 147.568 32.3101C148.844 32.7601 150.121 33.3001 151.215 34.2001C153.859 36.3601 154.224 40.7701 151.944 43.2901C150.85 44.4601 149.482 45.0001 147.932 45.3601C146.747 45.5401 145.471 45.6301 144.103 45.6301Z" fill="black"/>
<path d="M89.0324 45.63C87.0265 45.63 85.0206 45.45 83.0147 44.82C82.65 44.73 82.5588 44.55 82.5588 44.19C82.5588 43.38 82.5588 42.48 82.5588 41.67C82.5588 41.31 82.65 41.22 83.0147 41.31C85.6588 41.9401 88.3941 41.94 91.0383 41.58C91.403 41.49 91.7677 41.4 92.1324 41.22C93.5912 40.59 94.4118 38.34 92.6794 36.99C91.7677 36.27 90.6735 35.82 89.4882 35.37C88.3941 35.01 87.3 34.74 86.2971 34.2C82.4677 32.22 81.5559 26.82 84.5647 23.94C85.75 22.86 87.1177 22.41 88.6677 22.23C91.1294 21.87 93.5 22.05 95.8706 22.77C96.4177 22.95 96.6912 23.13 96.6 23.76C96.5088 24.48 96.6 25.11 96.6 25.83C96.6 26.55 96.6 26.46 95.9618 26.37C93.9559 25.92 91.95 25.74 89.853 26.01C87.8471 26.28 87.4824 27.81 87.4824 29.07C87.4824 29.43 87.7559 29.7 88.0294 29.97C88.85 30.78 89.853 31.23 90.8559 31.68C91.7677 32.04 92.6794 32.3101 93.5912 32.76C95.6882 33.66 97.4206 34.92 97.9677 37.26C98.7882 40.68 97.6941 43.83 93.7735 45C92.953 45.27 92.1324 45.45 91.2206 45.54C90.6735 45.54 89.853 45.63 89.0324 45.63Z" fill="black"/>
<path d="M116.568 38.7901C116.568 41.1301 116.568 43.1101 116.568 45.0901C116.568 45.3601 116.568 45.6301 116.203 45.6301C113.194 45.5401 110.276 45.7201 107.268 45.5401C105.626 45.4501 104.076 45.0001 102.891 43.8301C100.885 41.7601 101.25 38.1601 103.621 36.6301C105.079 35.7301 106.629 35.3701 108.271 35.1901C109.273 35.1001 110.368 35.0101 111.371 35.0101C111.735 35.0101 111.826 34.9201 111.826 34.5601C111.826 33.9301 111.826 33.3001 111.644 32.6701C111.371 31.6801 110.641 31.2301 109.547 31.0501C107.268 30.7801 105.079 31.1401 102.982 31.7701C102.526 31.8601 102.344 31.8601 102.435 31.3201C102.435 30.3301 102.435 29.4301 102.435 28.4401C102.435 28.3501 102.435 28.1701 102.526 28.0801C102.618 27.9901 102.709 27.9001 102.8 27.9001C105.991 26.8201 109.365 26.6401 112.647 27.5401C114.835 28.1701 116.203 29.9701 116.476 32.4901C116.659 34.7401 116.476 36.9001 116.568 38.7901ZM111.826 39.7801C111.826 39.3301 111.826 38.7901 111.826 38.3401C111.826 37.9801 111.735 37.8001 111.279 37.8001C110.459 37.8001 109.547 37.8901 108.726 38.0701C108.088 38.1601 107.541 38.3401 106.994 38.7001C106.812 38.7901 106.629 38.9701 106.538 39.2401C106.447 39.4201 106.356 39.6901 106.356 39.8701C106.356 40.1401 106.356 40.3201 106.447 40.5901C106.538 40.7701 106.629 41.0401 106.812 41.1301C107.176 41.4001 107.632 41.6701 108.088 41.6701C109.182 41.8501 110.368 41.7601 111.462 41.7601C111.735 41.7601 111.826 41.5801 111.826 41.4001C111.826 40.8601 111.826 40.3201 111.826 39.7801Z" fill="black"/>
<path d="M134.621 38.9699C134.621 41.0399 134.621 43.0199 134.621 45.0899C134.621 45.3599 134.621 45.6299 134.256 45.6299C131.247 45.5399 128.329 45.7199 125.321 45.5399C124.409 45.4499 123.497 45.2699 122.676 44.9099C120.762 44.0999 119.759 42.6599 119.668 40.6799C119.576 38.5199 120.488 36.9899 122.494 36.0899C124.044 35.3699 125.776 35.0999 127.509 34.9199C128.147 34.8299 128.876 34.8299 129.606 34.8299C129.788 34.8299 129.971 34.8299 129.971 34.5599C129.971 33.9299 129.971 33.2999 129.788 32.6699C129.515 31.6799 128.785 31.1399 127.691 30.9599C125.412 30.6899 123.223 31.0499 121.126 31.6799C120.579 31.8599 120.488 31.6799 120.579 31.2299C120.579 30.3299 120.579 29.4299 120.579 28.5299C120.579 28.1699 120.671 27.9899 121.035 27.8999C124.044 26.8199 127.418 26.7299 130.518 27.4499C132.888 27.9899 134.165 29.6999 134.529 32.0399C134.803 33.4799 134.621 34.9199 134.621 36.3599C134.621 37.2599 134.621 38.1599 134.621 38.9699ZM129.879 39.8699C129.879 39.3299 129.879 38.7899 129.879 38.2499C129.879 37.9799 129.788 37.8899 129.515 37.8899C128.785 37.9799 128.056 37.9799 127.326 38.0699C126.506 38.1599 125.776 38.3399 125.047 38.7899C124.226 39.3299 124.044 40.2299 124.591 40.9499C124.773 41.1299 124.956 41.3099 125.229 41.4899C125.503 41.6699 125.776 41.6699 125.959 41.7599C127.144 41.9399 128.329 41.8499 129.515 41.8499C129.788 41.8499 129.788 41.7599 129.788 41.4899C129.879 40.9499 129.879 40.4099 129.879 39.8699Z" fill="black"/>
<path d="M156.503 36.0901C156.594 34.6501 156.412 33.2101 156.594 31.7701C157.05 28.8001 158.965 27.0001 162.065 26.7301C163.432 26.5501 164.8 26.6401 166.076 26.9101C168.447 27.4501 169.997 28.8901 170.362 31.2301C170.818 34.3801 170.818 37.6201 170.362 40.7701C169.997 43.4701 168.356 44.9101 165.621 45.3601C163.979 45.7201 162.338 45.6301 160.788 45.2701C158.418 44.6401 156.959 43.0201 156.594 40.5901C156.412 39.1501 156.594 37.6201 156.503 36.0901ZM166.806 36.1801C166.806 35.0101 166.806 33.8401 166.715 32.6701C166.532 30.8701 165.438 29.7901 163.615 29.7901C161.7 29.7901 160.515 30.6901 160.332 32.4901C160.15 34.7401 160.241 37.0801 160.241 39.4201C160.241 40.1401 160.424 40.7701 160.788 41.3101C161.426 42.3001 162.885 42.7501 164.344 42.4801C165.712 42.2101 166.441 41.2201 166.624 39.7801C166.897 38.5201 166.806 37.3501 166.806 36.1801Z" fill="black"/>
<path d="M173.462 36.0901C173.462 33.2101 173.462 30.2401 173.462 27.3601C173.462 27.0001 173.462 26.8201 173.918 26.8201C176.379 26.8201 178.75 26.8201 181.212 26.8201C182.215 26.8201 183.218 27.0901 184.129 27.4501C185.588 28.0801 186.409 29.1601 186.774 30.6901C186.956 31.8601 187.047 33.1201 186.865 34.2901C186.591 36.5401 185.315 37.8901 182.944 38.4301C182.124 38.6101 181.394 38.7001 180.574 38.7001C179.662 38.7001 178.75 38.7001 177.838 38.7001C177.382 38.7001 177.2 38.7901 177.2 39.2401C177.2 41.1301 177.2 43.0201 177.2 44.8201C177.2 45.3601 177.109 45.4501 176.562 45.4501C175.65 45.4501 174.829 45.4501 173.918 45.4501C173.462 45.4501 173.371 45.3601 173.371 44.9101C173.462 42.0301 173.462 39.0601 173.462 36.0901ZM177.291 32.7601C177.291 33.5701 177.291 34.3801 177.291 35.2801C177.291 35.5501 177.382 35.7301 177.656 35.6401C178.476 35.6401 179.388 35.6401 180.209 35.6401C182.124 35.5501 182.944 34.7401 183.035 32.8501C183.126 31.2301 182.306 30.1501 180.574 29.9701C179.662 29.8801 178.659 29.9701 177.656 29.8801C177.291 29.8801 177.109 29.9701 177.109 30.4201C177.291 31.1401 177.291 31.9501 177.291 32.7601Z" fill="black"/>
<path d="M232.271 45.63C230.356 45.63 228.897 45.45 227.438 45.09C226.982 45 226.8 44.82 226.8 44.28C226.8 43.74 226.8 43.2 226.8 42.57C226.8 42.12 226.982 42.03 227.347 42.12C229.444 42.57 231.541 42.57 233.638 42.3C234.915 42.12 235.644 41.31 235.735 40.23C235.827 39.42 235.279 38.88 234.641 38.43C233.729 37.8 232.635 37.35 231.45 37.08C230.265 36.72 229.171 36.27 228.35 35.37C226.891 33.84 226.8 31.95 227.256 30.06C227.712 28.17 229.171 27.27 231.085 26.82C233.274 26.37 235.553 26.55 237.65 27.18C238.015 27.27 238.197 27.45 238.197 27.9C238.197 28.53 238.197 29.07 238.197 29.7C238.197 30.06 238.197 30.24 237.741 30.06C236.1 29.61 234.368 29.52 232.727 29.79C232.179 29.88 231.724 30.15 231.359 30.6C230.994 31.05 230.903 31.59 230.903 32.13C230.994 32.67 231.359 33.03 231.724 33.3C232.818 34.02 234.003 34.47 235.188 34.92C236.191 35.28 237.194 35.73 238.015 36.45C239.565 37.98 239.929 39.78 239.382 41.85C238.835 43.83 237.377 44.73 235.553 45.18C234.368 45.54 233.365 45.63 232.271 45.63Z" fill="black"/>
<path d="M212.121 36.09C212.212 34.65 212.029 33.21 212.212 31.77C212.668 28.8 214.218 27.18 217.226 26.73C219.415 26.46 221.512 26.64 223.609 27.18C223.974 27.27 224.156 27.45 224.156 27.9C224.156 28.53 224.156 29.16 224.156 29.79C224.156 30.06 224.065 30.15 223.791 30.06C222.15 29.61 220.418 29.61 218.776 29.7C217.226 29.79 216.224 30.69 216.132 32.4C215.95 34.92 215.95 37.35 216.132 39.87C216.224 41.58 217.318 42.48 219.05 42.48C220.6 42.48 222.15 42.3 223.609 42.03C224.065 41.94 224.156 42.03 224.156 42.48C224.156 43.11 224.156 43.74 224.156 44.37C224.156 44.73 224.065 44.91 223.7 45C222.424 45.36 221.056 45.54 219.688 45.63C218.685 45.72 217.682 45.63 216.679 45.45C214.126 44.91 212.576 43.29 212.212 40.68C212.029 39.15 212.121 37.62 212.121 36.09Z" fill="black"/>
<path d="M197.988 37.7101C197.988 40.1401 197.988 42.5701 197.988 44.9101C197.988 45.3601 197.806 45.5401 197.35 45.4501C196.438 45.4501 195.618 45.4501 194.706 45.4501C194.25 45.4501 194.159 45.3601 194.159 44.9101C194.159 40.8601 194.159 36.9001 194.159 32.8501C194.159 32.0401 194.159 31.1401 194.159 30.3301C194.159 29.9701 194.068 29.8801 193.703 29.8801C192.426 29.8801 191.15 29.8801 189.782 29.8801C189.418 29.8801 189.235 29.7901 189.326 29.4301C189.326 28.8001 189.326 28.0801 189.326 27.3601C189.326 26.9101 189.418 26.8201 189.874 26.8201C192.335 26.8201 194.706 26.8201 197.168 26.8201C198.9 26.8201 200.541 26.8201 202.274 26.8201C202.729 26.8201 202.821 26.9101 202.821 27.3601C202.821 27.9901 202.821 28.7101 202.821 29.4301C202.821 29.7901 202.729 29.8801 202.274 29.8801C201.088 29.8801 199.903 29.8801 198.718 29.8801C198.171 29.8801 197.988 29.9701 197.988 30.6001C198.079 32.9401 197.988 35.2801 197.988 37.7101Z" fill="black"/>
<path d="M205.465 36.1801C205.465 33.3001 205.465 30.3301 205.465 27.4501C205.465 27.0001 205.556 26.8201 206.103 26.8201C206.924 26.8201 207.835 26.8201 208.656 26.8201C209.112 26.8201 209.294 26.9101 209.294 27.4501C209.294 33.0301 209.294 38.6101 209.294 44.1901C209.294 44.4601 209.294 44.8201 209.294 45.0901C209.294 45.4501 209.203 45.5401 208.838 45.5401C207.926 45.5401 207.015 45.5401 206.103 45.5401C205.556 45.5401 205.465 45.4501 205.465 44.9101C205.465 41.9401 205.465 39.0601 205.465 36.1801Z" fill="black"/>
<path d="M53.2 41.5799C54.2941 42.0299 55.4794 42.1199 56.6647 42.1199C59.9471 41.9399 62.8647 39.2399 63.1382 35.9099C63.5029 32.2199 60.95 29.2499 57.7588 28.7999C55.2059 28.4399 53.1088 29.2499 51.65 31.3199C51.3765 31.6799 51.1941 31.7699 50.8294 31.4999C50.2824 31.0499 49.7353 30.6899 49.1882 30.3299C48.9147 30.1499 48.9147 30.0599 49.0971 29.7899C51.1029 27.1799 54.8412 25.8299 58.1235 26.6399C61.4971 27.4499 64.1412 30.1499 64.5971 33.5699C65.4177 39.7799 59.4912 44.1899 53.9294 42.0299C53.5647 41.8499 53.3824 41.7599 53.2 41.5799Z" fill="black"/>
<path d="M242.847 32.6701C242.3 32.6701 241.662 32.4901 241.206 32.2201C240.75 31.8601 240.385 31.4101 240.112 30.9601C239.929 30.4201 239.838 29.8801 239.929 29.2501C240.021 28.7101 240.294 28.1701 240.75 27.8101C241.206 27.3601 241.662 27.0901 242.3 27.0001C242.847 26.9101 243.485 26.9101 244.032 27.1801C244.579 27.3601 245.035 27.8101 245.309 28.2601C245.673 28.7101 245.765 29.3401 245.765 29.8801C245.765 30.2401 245.673 30.6001 245.582 30.9601C245.4 31.3201 245.218 31.6801 244.944 31.9501C244.671 32.2201 244.306 32.4001 243.941 32.5801C243.576 32.5801 243.212 32.6701 242.847 32.6701ZM240.385 29.7001C240.385 30.0601 240.476 30.3301 240.568 30.6901C240.659 30.9601 240.841 31.2301 241.115 31.5001C241.297 31.7701 241.571 31.9501 241.935 32.0401C242.209 32.1301 242.573 32.2201 242.847 32.2201C243.212 32.2201 243.485 32.1301 243.85 32.0401C244.123 31.9501 244.397 31.6801 244.671 31.5001C244.944 31.2301 245.126 30.9601 245.218 30.6901C245.309 30.4201 245.4 30.0601 245.4 29.7001C245.4 28.3501 244.215 27.1801 242.938 27.1801C242.3 27.1801 241.662 27.4501 241.206 27.9001C240.659 28.4401 240.385 29.0701 240.385 29.7001Z" fill="black"/>
<path d="M244.306 31.4101C243.85 31.5901 243.668 31.4101 243.485 31.0501C243.394 30.7801 243.212 30.5101 243.029 30.3301C243.029 30.2401 242.938 30.1501 242.847 30.1501C242.756 30.1501 242.665 30.1501 242.574 30.1501C242.391 30.2401 242.391 30.4201 242.391 30.5101C242.391 30.7801 242.391 30.9601 242.391 31.2301C242.391 31.5001 242.3 31.5001 242.118 31.5001C241.844 31.5001 241.844 31.4101 241.844 31.2301C241.844 30.2401 241.844 29.3401 241.844 28.3501C241.844 28.1701 241.935 27.9901 242.118 28.0801C242.482 28.0801 242.847 28.0801 243.212 28.1701C244.032 28.3501 244.306 29.2501 243.759 29.7901C243.394 30.0601 243.485 30.2401 243.668 30.5101C243.85 30.6901 244.032 31.0501 244.306 31.4101ZM242.391 28.9801C242.482 29.2501 242.209 29.6101 242.756 29.6101C243.121 29.6101 243.394 29.4301 243.485 28.9801C243.485 28.5301 243.121 28.4401 242.756 28.4401C242.3 28.4401 242.391 28.7101 242.391 28.9801Z" fill="black"/>
</svg>
