<svg xmlns="http://www.w3.org/2000/svg" viewBox="0 0 99.41 10.21"><g id="Layer_2" data-name="Layer 2"><g id="svg20"><path id="path2-1" d="M54.16,0C50.63,0,48.8,2.17,48.8,5.09s1.83,5.11,5.36,5.11S59.52,8,59.52,5.09,57.69,0,54.16,0ZM84.72,0c-3,0-4.48,1.19-4.48,3.29,0,1.7,1,2.5,3.05,2.72l2.29.25c.87.1,1.27.43,1.27.87s-.58.94-2,.94c-1.62,0-2.27-.41-2.38-1.23H80.1c.11,2.23,1.56,3.37,4.68,3.37,2.84,0,4.43-1.25,4.43-3.13a2.67,2.67,0,0,0-2.72-2.82L84.23,4c-1.31-.14-1.64-.47-1.64-.92s.67-.94,2-.94,1.93.47,2,1.19h2.43C88.94,1.27,87.23,0,84.72,0ZM29.41.23V6.51c0,2.8,2.49,3.67,4.59,3.67s4.56-.87,4.56-3.67V.23H36.09v6h0C36.1,7.49,35.33,8,34,8s-2.12-.53-2.12-1.77v-6ZM8.65.27,0,5.64V10H.07l8.68-5.4h4.5a.27.27,0,0,1,.27.27.22.22,0,0,1-.13.22L9.13,7.6a.87.87,0,0,0-.37.75V10h5.42V.6a.33.33,0,0,0-.35-.33Zm13.53,0L18.47,10H21l.65-1.81h4.15L26.45,10h2.64L25.33.27ZM39.7.27v2.1h3.12V10h2.47V2.37h3.12V.27Zm21.17,0V10H65.4c3.47,0,4.43-1.29,4.43-4.92,0-3.4-.92-4.77-4.43-4.77Zm10.34,0V10H79V7.87H73.69V6.11H78V4H73.69V2.37H79V.27Zm19.26,0V10h2.46V6.28L96.28,10h3.13L94.9,5.18,99.41.27H96.47L92.94,4.2V.27ZM54.16,2.18A2.63,2.63,0,0,1,57,5.09a2.84,2.84,0,1,1-5.67,0A2.64,2.64,0,0,1,54.16,2.18Zm-30.4.1,1.34,3.8H22.4Zm39.57.09h2c1.55,0,2,.42,2,2.67,0,2.06-.52,2.83-2,2.83h-2Z"/></g></g></svg>