<svg xmlns="http://www.w3.org/2000/svg" xmlns:xlink="http://www.w3.org/1999/xlink" viewBox="0 0 2498.25 1036.13"><defs><style>.cls-1{fill:#fff;}.cls-1,.cls-3{fill-rule:evenodd;}.cls-2{mask:url(#mask);}.cls-3{fill:#1a1918;}</style><mask id="mask" x="0" y="0" width="2498.25" height="1036.13" maskUnits="userSpaceOnUse"><g id="b"><path id="a" class="cls-1" d="M.33,0H2498.25V1036.13H.33Z"/></g></mask></defs><g id="Layer_2" data-name="Layer 2"><g id="Layer_1-2" data-name="Layer 1"><g class="cls-2"><path class="cls-3" d="M261.06,466.08c-53.83-19.91-83.33-35.4-83.33-59.74,0-20.65,17-32.45,47.2-32.45,55.31,0,112.09,21.39,151.18,40.56L398.23,278c-31-14.76-94.4-39.09-182.15-39.09-62,0-113.57,16.22-150.44,46.46C27.28,317.11,7.37,362.83,7.37,418.14c0,100.29,61.21,143.07,160.77,179.21,64.16,22.85,85.55,39.08,85.55,64.15,0,24.34-20.65,38.35-58.26,38.35C149,699.85,72.27,677,22.12,647.49L0,785.4c42.77,24.33,122.42,49.41,205,49.41,65.63,0,120.2-15.49,157.08-45,41.29-32.45,62.68-80.38,62.68-142.33,0-102.51-62.68-145.28-163.72-181.41Zm523.88-80.39L807.06,250H690.27V85.28l-157,25.84L510.55,250l-55.23,9L434.65,385.69h75.68V651.92c0,69.32,17.7,117.26,53.83,146.75,30.24,24.34,73.74,36.14,135,36.14,47.19,0,76-8.11,95.86-13.28V677.73c-11.06,2.95-36.13,8.11-53.09,8.11-36.14,0-51.62-18.43-51.62-60.47V385.69Zm350.75-143.62c-51.62,0-92.92,27.11-109.14,75.78L1015.49,250h-160V823.74h182.89V451.33c22.86-28,55.31-38.16,99.55-38.16,9.59,0,19.92,0,32.45,2.21V246.5A148.83,148.83,0,0,0,1135.69,242.07Zm171.1-48.86c53.09,0,95.86-43.5,95.86-96.6,0-53.84-42.77-96.61-95.86-96.61a96.61,96.61,0,1,0,0,193.21ZM1214.6,250h183.63V823.74H1214.6Zm704,51.62c-32.45-42-77.43-62.68-135-62.68-53.09,0-99.55,22.12-143.06,68.58L1631,250H1470.22v786.13l182.89-30.23V821.53c28,8.85,56.78,13.28,82.6,13.28,45.72,0,112.09-11.8,163.71-67.85,49.41-53.84,74.49-137.16,74.49-247.05,0-97.34-18.44-171.09-55.31-218.29Zm-151.92,354c-14.75,28-37.61,42.78-64.16,42.78-18.43,0-34.66-3.69-49.41-11.06V414.45c31-32.44,59-36.13,69.32-36.13,46.46,0,69.32,50.15,69.32,148.23,0,56-8.11,99.56-25.07,129.05Zm731.57-123.89c0-91.44-19.91-163.72-59-214.6-39.83-51.62-99.56-78.17-175.52-78.17-155.61,0-252.21,115-252.21,299.41,0,103.24,25.81,180.68,76.69,230.08,45.73,44.25,111.36,66.38,196.17,66.38,78.17,0,150.44-18.44,196.17-48.68l-19.91-125.36c-45,24.34-97.35,37.61-156.35,37.61-35.4,0-59.73-7.38-77.43-22.87-19.18-16.22-30.24-42.77-33.92-80.38H2496c.74-8.85,2.22-50.15,2.22-63.42ZM2191.46,483c5.16-81.86,27.28-120.21,69.32-120.21,41.3,0,62.69,39.09,65.64,120.21Z"/></g></g></g></svg>