<svg width="33" height="33" viewBox="0 0 33 33" fill="none" xmlns="http://www.w3.org/2000/svg">
<g clip-path="url(#clip0_299_946)">
<path d="M32.7768 16.6499C32.7731 15.6179 32.6861 14.588 32.5168 13.5699H17.1868V19.6899H25.9668C25.7726 20.6756 25.3843 21.6129 24.8247 22.4472C24.265 23.2816 23.5451 23.9963 22.7068 24.5499V28.6199H27.9168C29.5174 27.0744 30.7768 25.2109 31.6138 23.1494C32.4508 21.0878 32.847 18.8738 32.7768 16.6499Z" fill="#4285F4"/>
<path d="M17.1867 32.57C21.1525 32.6588 25.002 31.2277 27.9467 28.57L22.7067 24.5C21.4472 25.3136 20.0181 25.828 18.529 26.0037C17.0399 26.1794 15.5303 26.0117 14.116 25.5135C12.7017 25.0154 11.4203 24.2 10.37 23.1299C9.31966 22.0598 8.52835 20.7633 8.05673 19.34H2.64673V23.54C3.99204 26.2474 6.0651 28.5264 8.63336 30.1214C11.2016 31.7164 14.1635 32.5643 17.1867 32.57Z" fill="#34A853"/>
<path d="M8.05681 19.39C7.71034 18.3933 7.53453 17.3452 7.5368 16.29C7.53954 15.2319 7.71519 14.1814 8.05681 13.18V8.96997H2.6468C1.49638 11.2314 0.896729 13.7327 0.896729 16.27C0.896729 18.8072 1.49638 21.3085 2.6468 23.57L8.05681 19.39Z" fill="#FBBC05"/>
<path d="M17.1867 6.44997C19.5059 6.41516 21.7463 7.2912 23.4267 8.88997L28.0667 4.24995C25.1326 1.46592 21.2313 -0.0687782 17.1867 -0.030046C14.1669 -0.0260393 11.2077 0.817822 8.63994 2.40721C6.07219 3.9966 3.99712 6.26886 2.64673 8.96995L8.05673 13.16C8.68467 11.2266 9.90355 9.53902 11.5415 8.33519C13.1796 7.13136 15.1541 6.47197 17.1867 6.44997Z" fill="#EA4335"/>
</g>
<defs>
<clipPath id="clip0_299_946">
<rect width="31.87" height="32.57" fill="white" transform="translate(0.896729)"/>
</clipPath>
</defs>
</svg>